<?xml version="1.0" encoding="utf-8"?>
<!-- Generator: Adobe Illustrator 27.9.0, SVG Export Plug-In . SVG Version: 6.00 Build 0)  -->
<svg version="1.1" id="Layer_1" xmlns:svg="http://www.w3.org/2000/svg"
	 xmlns="http://www.w3.org/2000/svg" xmlns:xlink="http://www.w3.org/1999/xlink" x="0px" y="0px" viewBox="0 0 383.5 317.6"
	 style="enable-background:new 0 0 383.5 317.6;" xml:space="preserve">
<style type="text/css">
	
		.st0{fill:#F2EDA1;fill-opacity:0;stroke:#F2EDA1;stroke-width:0.4252;stroke-linecap:round;stroke-linejoin:round;stroke-miterlimit:11.3386;}
	
		.st1{fill:#FF26E2;fill-opacity:0;stroke:#FF26E2;stroke-width:0.1417;stroke-linecap:round;stroke-linejoin:round;stroke-miterlimit:11.3386;}
	
		.st2{fill:#D0D2CD;fill-opacity:0;stroke:#D0D2CD;stroke-width:0.1417;stroke-linecap:round;stroke-linejoin:round;stroke-miterlimit:11.3386;}
</style>
<g transform="translate(0 0) scale(1 1)">
</g>
<g>
	<path class="st0" d="M96.7,15.1h-2.9"/>
	<path class="st0" d="M96.7,2.2v13"/>
	<path class="st0" d="M93.9,15.1H71.5"/>
	<path class="st0" d="M93.9,15.1H67.9"/>
	<path class="st0" d="M67.9,15.1v-13"/>
	<path class="st0" d="M67.9,2.2h28.8"/>
</g>
<path class="st1" d="M90.6,37.4H77.2"/>
<path class="st1" d="M143,23.2h-13.3"/>
<path class="st1" d="M141.6,238.7h-13.3"/>
<path class="st1" d="M196.9,9.1h-13.3"/>
<path class="st1" d="M250.7,23.2h-13.3"/>
<path class="st1" d="M250.7,238.7h-13.3"/>
<path class="st1" d="M304.6,37.4h-13.3"/>
<path class="st1" d="M5.2,37.7v43.9"/>
<path class="st1" d="M5.2,81.6h43.9"/>
<path class="st1" d="M49.2,37.7H5.2"/>
<path class="st1" d="M49.2,81.6V37.7"/>
<path class="st1" d="M5.2,91.6v43.9"/>
<path class="st1" d="M5.2,135.5h43.9"/>
<path class="st1" d="M49.2,91.6H5.2"/>
<path class="st1" d="M49.2,135.5V91.6"/>
<path class="st1" d="M5.2,145.4v43.9"/>
<path class="st1" d="M5.2,189.4h43.9"/>
<path class="st1" d="M49.2,145.4H5.2"/>
<path class="st1" d="M49.2,189.4v-43.9"/>
<path class="st1" d="M5.2,199.3v43.9"/>
<path class="st1" d="M5.2,243.2h43.9"/>
<path class="st1" d="M49.2,199.3H5.2"/>
<path class="st1" d="M49.2,243.2v-43.9"/>
<path class="st1" d="M5.2,253.1v43.9"/>
<path class="st1" d="M5.2,297.1h43.9"/>
<path class="st1" d="M49.2,253.1H5.2"/>
<path class="st1" d="M49.2,297.1v-43.9"/>
<path class="st1" d="M59.1,37.7v43.9"/>
<path class="st1" d="M59.1,81.6H103"/>
<path class="st1" d="M103,37.7H59.1"/>
<path class="st1" d="M103,81.6V37.7"/>
<path class="st1" d="M59.1,253.1v43.9"/>
<path class="st1" d="M59.1,297.1H103"/>
<path class="st1" d="M103,253.1H59.1"/>
<path class="st1" d="M103,297.1v-43.9"/>
<path class="st1" d="M113,23.5v43.9"/>
<path class="st1" d="M113,67.5h43.9"/>
<path class="st1" d="M156.9,23.5H113"/>
<path class="st1" d="M156.9,67.5V23.5"/>
<path class="st1" d="M113,239v43.9"/>
<path class="st1" d="M113,282.9h43.9"/>
<path class="st1" d="M156.9,239H113"/>
<path class="st1" d="M156.9,282.9V239"/>
<path class="st1" d="M166.8,9.4v43.9"/>
<path class="st1" d="M166.8,53.3h43.9"/>
<path class="st1" d="M210.8,9.4h-43.9"/>
<path class="st1" d="M210.8,53.3V9.4"/>
<path class="st1" d="M166.8,268.7h43.9"/>
<path class="st1" d="M220.7,23.5v43.9"/>
<path class="st1" d="M220.7,67.5h43.9"/>
<path class="st1" d="M264.6,23.5h-43.9"/>
<path class="st1" d="M264.6,67.5V23.5"/>
<path class="st1" d="M220.7,239v43.9"/>
<path class="st1" d="M220.7,282.9h43.9"/>
<path class="st1" d="M264.6,239h-43.9"/>
<path class="st1" d="M264.6,282.9V239"/>
<path class="st1" d="M274.5,37.7v43.9"/>
<path class="st1" d="M274.5,81.6h43.9"/>
<path class="st1" d="M318.5,37.7h-43.9"/>
<path class="st1" d="M318.5,81.6V37.7"/>
<path class="st1" d="M274.5,253.7v43.9"/>
<path class="st1" d="M274.5,297.6h43.9"/>
<path class="st1" d="M318.5,253.7h-43.9"/>
<path class="st1" d="M318.5,297.6v-43.9"/>
<path class="st1" d="M328.5,183.5v43.9"/>
<path class="st1" d="M328.5,227.5h43.9"/>
<path class="st1" d="M372.4,183.5h-43.9"/>
<path class="st1" d="M372.4,227.5v-43.9"/>
<path class="st1" d="M328.5,237.5v43.9"/>
<path class="st1" d="M328.5,281.4h43.9"/>
<path class="st1" d="M372.4,237.5h-43.9"/>
<path class="st1" d="M372.4,281.4v-43.9"/>
<path class="st1" d="M379,45.9v84.9"/>
<path class="st1" d="M328,45.9h51"/>
<path class="st1" d="M379,130.7h-51"/>
<path class="st1" d="M328,130.7V45.9"/>
<path class="st1" d="M365.7,168.8v-28.9"/>
<path class="st1" d="M365.7,139.9h-26.1"/>
<path class="st1" d="M339.7,168.8h26.1"/>
<path class="st1" d="M339.7,139.9v28.9"/>
<circle class="st1" cx="13.5" cy="305.9" r="7.8"/>
<circle class="st1" cx="188.9" cy="285.9" r="7.8"/>
<circle class="st1" cx="329.4" cy="147.6" r="7.8"/>
<circle class="st1" cx="12.5" cy="20" r="7.8"/>
<circle class="st1" cx="369.9" cy="300.5" r="7.8"/>
<circle class="st1" cx="326.6" cy="33.8" r="7.8"/>
<circle class="st1" cx="154.2" cy="9.5" r="7.8"/>
<g>
	<path class="st2" d="M245.5,0.4l138,42.4"/>
	<path class="st2" d="M0.3,12.3L0.1,317.6"/>
	<path class="st2" d="M0.3,12.3L63.2,0.1"/>
	<path class="st2" d="M222.7,0.4h22.7"/>
	<path class="st2" d="M383.5,42.9l-0.2,270.6"/>
	<path class="st2" d="M103.6,0.1l119.1,0.4"/>
	<path class="st2" d="M63.2,0.1h40.4"/>
	<path class="st2" d="M383.2,313.4L0.1,317.6"/>
</g>
</svg>
