%TF.GenerationSoftware,KiCad,Pcbnew,7.0.1-0*%
%TF.CreationDate,2024-04-27T23:40:22-07:00*%
%TF.ProjectId,swing-atreus,7377696e-672d-4617-9472-6575732e6b69,rev?*%
%TF.SameCoordinates,Original*%
%TF.FileFunction,Copper,L1,Top*%
%TF.FilePolarity,Positive*%
%FSLAX46Y46*%
G04 Gerber Fmt 4.6, Leading zero omitted, Abs format (unit mm)*
G04 Created by KiCad (PCBNEW 7.0.1-0) date 2024-04-27 23:40:22*
%MOMM*%
%LPD*%
G01*
G04 APERTURE LIST*
G04 Aperture macros list*
%AMRoundRect*
0 Rectangle with rounded corners*
0 $1 Rounding radius*
0 $2 $3 $4 $5 $6 $7 $8 $9 X,Y pos of 4 corners*
0 Add a 4 corners polygon primitive as box body*
4,1,4,$2,$3,$4,$5,$6,$7,$8,$9,$2,$3,0*
0 Add four circle primitives for the rounded corners*
1,1,$1+$1,$2,$3*
1,1,$1+$1,$4,$5*
1,1,$1+$1,$6,$7*
1,1,$1+$1,$8,$9*
0 Add four rect primitives between the rounded corners*
20,1,$1+$1,$2,$3,$4,$5,0*
20,1,$1+$1,$4,$5,$6,$7,0*
20,1,$1+$1,$6,$7,$8,$9,0*
20,1,$1+$1,$8,$9,$2,$3,0*%
G04 Aperture macros list end*
%TA.AperFunction,ComponentPad*%
%ADD10C,2.200000*%
%TD*%
%TA.AperFunction,ComponentPad*%
%ADD11C,2.600000*%
%TD*%
%TA.AperFunction,SMDPad,CuDef*%
%ADD12RoundRect,0.225000X0.149313X0.411042X-0.292419X0.325178X-0.149313X-0.411042X0.292419X-0.325178X0*%
%TD*%
%TA.AperFunction,SMDPad,CuDef*%
%ADD13RoundRect,0.225000X0.292419X0.325178X-0.149313X0.411042X-0.292419X-0.325178X0.149313X-0.411042X0*%
%TD*%
%TA.AperFunction,ComponentPad*%
%ADD14C,1.524000*%
%TD*%
%TA.AperFunction,ComponentPad*%
%ADD15O,2.000000X1.500000*%
%TD*%
%TA.AperFunction,SMDPad,CuDef*%
%ADD16RoundRect,0.250000X-0.250000X-1.500000X0.250000X-1.500000X0.250000X1.500000X-0.250000X1.500000X0*%
%TD*%
%TA.AperFunction,SMDPad,CuDef*%
%ADD17RoundRect,0.250001X-0.499999X-1.449999X0.499999X-1.449999X0.499999X1.449999X-0.499999X1.449999X0*%
%TD*%
%TA.AperFunction,ViaPad*%
%ADD18C,0.800000*%
%TD*%
%TA.AperFunction,Conductor*%
%ADD19C,0.500000*%
%TD*%
%TA.AperFunction,Conductor*%
%ADD20C,0.200000*%
%TD*%
G04 APERTURE END LIST*
D10*
%TO.P,SW54,2,B*%
%TO.N,Net-(D53-A)*%
X315496195Y-72062533D03*
%TO.P,SW54,1,A*%
%TO.N,/L_Row6*%
X320805030Y-73169905D03*
X311086921Y-75058914D03*
D11*
%TO.P,SW54,*%
%TO.N,*%
X322503230Y-81906387D03*
X312696498Y-83863558D03*
%TD*%
D12*
%TO.P,D39,2,A*%
%TO.N,Net-(D39-A)*%
X260935630Y-93104670D03*
%TO.P,D39,1,K*%
%TO.N,/L_column2*%
X264175000Y-92475000D03*
%TD*%
%TO.P,D41,2,A*%
%TO.N,Net-(D41-A)*%
X268160630Y-130554670D03*
%TO.P,D41,1,K*%
%TO.N,/L_column2*%
X271400000Y-129925000D03*
%TD*%
%TO.P,D42,2,A*%
%TO.N,Net-(D42-A)*%
X271760630Y-148579670D03*
%TO.P,D42,1,K*%
%TO.N,/L_column2*%
X275000000Y-147950000D03*
%TD*%
%TO.P,D43,2,A*%
%TO.N,Net-(D43-A)*%
X275485630Y-65854670D03*
%TO.P,D43,1,K*%
%TO.N,/L_column3*%
X278725000Y-65225000D03*
%TD*%
%TO.P,D44,2,A*%
%TO.N,Net-(D44-A)*%
X279110630Y-84379670D03*
%TO.P,D44,1,K*%
%TO.N,/L_column3*%
X282350000Y-83750000D03*
%TD*%
%TO.P,D45,2,A*%
%TO.N,Net-(D45-A)*%
X282460630Y-103304670D03*
%TO.P,D45,1,K*%
%TO.N,/L_column3*%
X285700000Y-102675000D03*
%TD*%
%TO.P,D46,2,A*%
%TO.N,Net-(D46-A)*%
X286060630Y-122454670D03*
%TO.P,D46,1,K*%
%TO.N,/L_column3*%
X289300000Y-121825000D03*
%TD*%
%TO.P,D47,2,A*%
%TO.N,Net-(D47-A)*%
X289560630Y-141754670D03*
%TO.P,D47,1,K*%
%TO.N,/L_column3*%
X292800000Y-141125000D03*
%TD*%
%TO.P,D48,2,A*%
%TO.N,Net-(D48-A)*%
X294660630Y-66979670D03*
%TO.P,D48,1,K*%
%TO.N,/L_column4*%
X297900000Y-66350000D03*
%TD*%
%TO.P,D33,2,A*%
%TO.N,Net-(D33-A)*%
X239785630Y-83029670D03*
%TO.P,D33,1,K*%
%TO.N,/L_column1*%
X243025000Y-82400000D03*
%TD*%
%TO.P,D50,2,A*%
%TO.N,Net-(D50-A)*%
X301610630Y-105029670D03*
%TO.P,D50,1,K*%
%TO.N,/L_column4*%
X304850000Y-104400000D03*
%TD*%
%TO.P,D34,2,A*%
%TO.N,Net-(D34-A)*%
X243385630Y-101554670D03*
%TO.P,D34,1,K*%
%TO.N,/L_column1*%
X246625000Y-100925000D03*
%TD*%
%TO.P,D35,2,A*%
%TO.N,Net-(D35-A)*%
X247010630Y-120229670D03*
%TO.P,D35,1,K*%
%TO.N,/L_column1*%
X250250000Y-119600000D03*
%TD*%
%TO.P,D36,2,A*%
%TO.N,Net-(D36-A)*%
X250375000Y-138875000D03*
%TO.P,D36,1,K*%
%TO.N,/L_column1*%
X253614370Y-138245330D03*
%TD*%
%TO.P,D38,2,A*%
%TO.N,Net-(D38-A)*%
X257585630Y-74054670D03*
%TO.P,D38,1,K*%
%TO.N,/L_column2*%
X260825000Y-73425000D03*
%TD*%
%TO.P,D40,2,A*%
%TO.N,Net-(D40-A)*%
X264660630Y-111504670D03*
%TO.P,D40,1,K*%
%TO.N,/L_column2*%
X267900000Y-110875000D03*
%TD*%
%TO.P,D37,2,A*%
%TO.N,Net-(D37-A)*%
X254085630Y-157429670D03*
%TO.P,D37,1,K*%
%TO.N,/L_column1*%
X257325000Y-156800000D03*
%TD*%
%TO.P,D49,2,A*%
%TO.N,Net-(D49-A)*%
X297760630Y-86254670D03*
%TO.P,D49,1,K*%
%TO.N,/L_column4*%
X301000000Y-85625000D03*
%TD*%
%TO.P,D51,2,A*%
%TO.N,Net-(D51-A)*%
X305360630Y-123454670D03*
%TO.P,D51,1,K*%
%TO.N,/L_column4*%
X308600000Y-122825000D03*
%TD*%
%TO.P,D52,2,A*%
%TO.N,Net-(D52-A)*%
X308960630Y-142004670D03*
%TO.P,D52,1,K*%
%TO.N,/L_column4*%
X312200000Y-141375000D03*
%TD*%
%TO.P,D54,2,A*%
%TO.N,Net-(D54-A)*%
X317435630Y-87254670D03*
%TO.P,D54,1,K*%
%TO.N,/L_column5*%
X320675000Y-86625000D03*
%TD*%
%TO.P,D55,2,A*%
%TO.N,Net-(D55-A)*%
X321410630Y-105779670D03*
%TO.P,D55,1,K*%
%TO.N,/L_column5*%
X324650000Y-105150000D03*
%TD*%
%TO.P,D56,2,A*%
%TO.N,Net-(D56-A)*%
X325385630Y-124579670D03*
%TO.P,D56,1,K*%
%TO.N,/L_column5*%
X328625000Y-123950000D03*
%TD*%
%TO.P,D53,2,A*%
%TO.N,Net-(D53-A)*%
X314435630Y-68579670D03*
%TO.P,D53,1,K*%
%TO.N,/L_column5*%
X317675000Y-67950000D03*
%TD*%
%TO.P,D57,2,A*%
%TO.N,Net-(D57-A)*%
X328485630Y-143229670D03*
%TO.P,D57,1,K*%
%TO.N,/L_column5*%
X331725000Y-142600000D03*
%TD*%
%TO.P,D58,2,A*%
%TO.N,Net-(D58-A)*%
X333110630Y-65104670D03*
%TO.P,D58,1,K*%
%TO.N,/L_column6*%
X336350000Y-64475000D03*
%TD*%
%TO.P,D59,2,A*%
%TO.N,Net-(D59-A)*%
X336085630Y-83754670D03*
%TO.P,D59,1,K*%
%TO.N,/L_column6*%
X339325000Y-83125000D03*
%TD*%
%TO.P,D60,2,A*%
%TO.N,Net-(D60-A)*%
X340060630Y-102179670D03*
%TO.P,D60,1,K*%
%TO.N,/L_column6*%
X343300000Y-101550000D03*
%TD*%
%TO.P,D62,2,A*%
%TO.N,Net-(D62-A)*%
X347410630Y-139504670D03*
%TO.P,D62,1,K*%
%TO.N,/L_column6*%
X350650000Y-138875000D03*
%TD*%
%TO.P,D63,2,A*%
%TO.N,Net-(D63-A)*%
X230030315Y-136339835D03*
%TO.P,D63,1,K*%
%TO.N,/L_column7*%
X233269685Y-135710165D03*
%TD*%
%TO.P,D64,2,A*%
%TO.N,Net-(D64-A)*%
X233385630Y-154654670D03*
%TO.P,D64,1,K*%
%TO.N,/L_column7*%
X236625000Y-154025000D03*
%TD*%
%TO.P,D61,2,A*%
%TO.N,Net-(D61-A)*%
X343560630Y-120729670D03*
%TO.P,D61,1,K*%
%TO.N,/L_column6*%
X346800000Y-120100000D03*
%TD*%
D10*
%TO.P,SW2,2,B*%
%TO.N,Net-(D33-A)*%
X240765745Y-86435853D03*
%TO.P,SW2,1,A*%
%TO.N,/L_Row6*%
X246074580Y-87543225D03*
X236356471Y-89432234D03*
D11*
%TO.P,SW2,*%
%TO.N,*%
X247772780Y-96279707D03*
X237966048Y-98236878D03*
%TD*%
D10*
%TO.P,SW35,2,B*%
%TO.N,Net-(D34-A)*%
X244415657Y-105081999D03*
%TO.P,SW35,1,A*%
%TO.N,/L_Row7*%
X249724492Y-106189371D03*
X240006383Y-108078380D03*
D11*
%TO.P,SW35,*%
%TO.N,*%
X251422692Y-114925853D03*
X241615960Y-116883024D03*
%TD*%
D10*
%TO.P,SW36,2,B*%
%TO.N,Net-(D35-A)*%
X247967405Y-123747227D03*
%TO.P,SW36,1,A*%
%TO.N,/L_Row8*%
X253276240Y-124854599D03*
X243558131Y-126743608D03*
D11*
%TO.P,SW36,*%
%TO.N,*%
X254974440Y-133591081D03*
X245167708Y-135548252D03*
%TD*%
D10*
%TO.P,SW37,2,B*%
%TO.N,Net-(D36-A)*%
X251548465Y-142432224D03*
%TO.P,SW37,1,A*%
%TO.N,/L_Row9*%
X256857300Y-143539596D03*
X247139191Y-145428605D03*
D11*
%TO.P,SW37,*%
%TO.N,*%
X258555500Y-152276078D03*
X248748768Y-154233249D03*
%TD*%
%TO.P,SW39,*%
%TO.N,*%
X255707231Y-89669290D03*
X265513963Y-87712119D03*
D10*
%TO.P,SW39,1,A*%
%TO.N,/L_Row6*%
X254097654Y-80864646D03*
X263815763Y-78975637D03*
%TO.P,SW39,2,B*%
%TO.N,Net-(D38-A)*%
X258506928Y-77868265D03*
%TD*%
D11*
%TO.P,SW40,*%
%TO.N,*%
X259367372Y-108237044D03*
X269174104Y-106279873D03*
D10*
%TO.P,SW40,1,A*%
%TO.N,/L_Row7*%
X257757795Y-99432400D03*
X267475904Y-97543391D03*
%TO.P,SW40,2,B*%
%TO.N,Net-(D39-A)*%
X262167069Y-96436019D03*
%TD*%
D11*
%TO.P,SW41,*%
%TO.N,*%
X262923891Y-126926812D03*
X272730623Y-124969641D03*
D10*
%TO.P,SW41,1,A*%
%TO.N,/L_Row8*%
X261314314Y-118122168D03*
X271032423Y-116233159D03*
%TO.P,SW41,2,B*%
%TO.N,Net-(D40-A)*%
X265723588Y-115125787D03*
%TD*%
%TO.P,SW38,2,B*%
%TO.N,Net-(D37-A)*%
X255129525Y-161117222D03*
%TO.P,SW38,1,A*%
%TO.N,/L_Row10*%
X260438360Y-162224594D03*
X250720251Y-164113603D03*
D11*
%TO.P,SW38,*%
%TO.N,*%
X262136560Y-170961076D03*
X252329828Y-172918247D03*
%TD*%
%TO.P,SW42,*%
%TO.N,*%
X266573113Y-145700432D03*
X276379845Y-143743261D03*
D10*
%TO.P,SW42,1,A*%
%TO.N,/L_Row9*%
X264963536Y-136895788D03*
X274681645Y-135006779D03*
%TO.P,SW42,2,B*%
%TO.N,Net-(D41-A)*%
X269372810Y-133899407D03*
%TD*%
D11*
%TO.P,SW43,*%
%TO.N,*%
X270228485Y-164243645D03*
X280035217Y-162286474D03*
D10*
%TO.P,SW43,1,A*%
%TO.N,/L_Row10*%
X268618908Y-155439001D03*
X278337017Y-153549992D03*
%TO.P,SW43,2,B*%
%TO.N,Net-(D42-A)*%
X273028182Y-152442620D03*
%TD*%
%TO.P,SW44,2,B*%
%TO.N,Net-(D43-A)*%
X276267191Y-69398840D03*
%TO.P,SW44,1,A*%
%TO.N,/L_Row6*%
X281576026Y-70506212D03*
X271857917Y-72395221D03*
D11*
%TO.P,SW44,*%
%TO.N,*%
X283274226Y-79242694D03*
X273467494Y-81199865D03*
%TD*%
D10*
%TO.P,SW45,2,B*%
%TO.N,Net-(D44-A)*%
X279955954Y-88113838D03*
%TO.P,SW45,1,A*%
%TO.N,/L_Row7*%
X285264789Y-89221210D03*
X275546680Y-91110219D03*
D11*
%TO.P,SW45,*%
%TO.N,*%
X286962989Y-97957692D03*
X277156257Y-99914863D03*
%TD*%
D10*
%TO.P,SW47,2,B*%
%TO.N,Net-(D46-A)*%
X287208708Y-125950106D03*
%TO.P,SW47,1,A*%
%TO.N,/L_Row9*%
X292517543Y-127057478D03*
X282799434Y-128946487D03*
D11*
%TO.P,SW47,*%
%TO.N,*%
X294215743Y-135793960D03*
X284409011Y-137751131D03*
%TD*%
%TO.P,SW48,*%
%TO.N,*%
X288182259Y-157162809D03*
X297988991Y-155205638D03*
D10*
%TO.P,SW48,1,A*%
%TO.N,/L_Row10*%
X286572682Y-148358165D03*
X296290791Y-146469156D03*
%TO.P,SW48,2,B*%
%TO.N,Net-(D47-A)*%
X290981956Y-145361784D03*
%TD*%
%TO.P,SW49,2,B*%
%TO.N,Net-(D48-A)*%
X295798531Y-70695916D03*
%TO.P,SW49,1,A*%
%TO.N,/L_Row6*%
X301107366Y-71803288D03*
X291389257Y-73692297D03*
D11*
%TO.P,SW49,*%
%TO.N,*%
X302805566Y-80539770D03*
X292998834Y-82496941D03*
%TD*%
D10*
%TO.P,SW46,2,B*%
%TO.N,Net-(D45-A)*%
X283468162Y-106837687D03*
%TO.P,SW46,1,A*%
%TO.N,/L_Row8*%
X288776997Y-107945059D03*
X279058888Y-109834068D03*
D11*
%TO.P,SW46,*%
%TO.N,*%
X290475197Y-116681541D03*
X280668465Y-118638712D03*
%TD*%
D10*
%TO.P,SW50,2,B*%
%TO.N,Net-(D49-A)*%
X299624308Y-89460685D03*
%TO.P,SW50,1,A*%
%TO.N,/L_Row7*%
X304933143Y-90568057D03*
X295215034Y-92457066D03*
D11*
%TO.P,SW50,*%
%TO.N,*%
X306631343Y-99304539D03*
X296824611Y-101261710D03*
%TD*%
D10*
%TO.P,SW51,2,B*%
%TO.N,Net-(D50-A)*%
X303139907Y-108464022D03*
%TO.P,SW51,1,A*%
%TO.N,/L_Row8*%
X308448742Y-109571394D03*
X298730633Y-111460403D03*
D11*
%TO.P,SW51,*%
%TO.N,*%
X310146942Y-118307876D03*
X300340210Y-120265047D03*
%TD*%
D10*
%TO.P,SW52,2,B*%
%TO.N,Net-(D51-A)*%
X306551250Y-126799990D03*
%TO.P,SW52,1,A*%
%TO.N,/L_Row9*%
X311860085Y-127907362D03*
X302141976Y-129796371D03*
D11*
%TO.P,SW52,*%
%TO.N,*%
X313558285Y-136643844D03*
X303751553Y-138601015D03*
%TD*%
D10*
%TO.P,SW53,2,B*%
%TO.N,Net-(D52-A)*%
X310642894Y-145360272D03*
%TO.P,SW53,1,A*%
%TO.N,/L_Row10*%
X315951729Y-146467644D03*
X306233620Y-148356653D03*
D11*
%TO.P,SW53,*%
%TO.N,*%
X317649929Y-155204126D03*
X307843197Y-157161297D03*
%TD*%
D10*
%TO.P,SW55,2,B*%
%TO.N,Net-(D54-A)*%
X319121566Y-90713449D03*
%TO.P,SW55,1,A*%
%TO.N,/L_Row7*%
X324430401Y-91820821D03*
X314712292Y-93709830D03*
D11*
%TO.P,SW55,*%
%TO.N,*%
X326128601Y-100557303D03*
X316321869Y-102514474D03*
%TD*%
D10*
%TO.P,SW56,2,B*%
%TO.N,Net-(D55-A)*%
X322834870Y-109423677D03*
%TO.P,SW56,1,A*%
%TO.N,/L_Row8*%
X328143705Y-110531049D03*
X318425596Y-112420058D03*
D11*
%TO.P,SW56,*%
%TO.N,*%
X329841905Y-119267531D03*
X320035173Y-121224702D03*
%TD*%
D10*
%TO.P,SW57,2,B*%
%TO.N,Net-(D56-A)*%
X326533862Y-128060283D03*
%TO.P,SW57,1,A*%
%TO.N,/L_Row9*%
X331842697Y-129167655D03*
X322124588Y-131056664D03*
D11*
%TO.P,SW57,*%
%TO.N,*%
X333540897Y-137904137D03*
X323734165Y-139861308D03*
%TD*%
D10*
%TO.P,SW58,2,B*%
%TO.N,Net-(D57-A)*%
X330085611Y-146725510D03*
%TO.P,SW58,1,A*%
%TO.N,/L_Row10*%
X335394446Y-147832882D03*
X325676337Y-149721891D03*
D11*
%TO.P,SW58,*%
%TO.N,*%
X337092646Y-156569364D03*
X327285914Y-158526535D03*
%TD*%
D10*
%TO.P,SW59,2,B*%
%TO.N,Net-(D58-A)*%
X334269815Y-68413311D03*
%TO.P,SW59,1,A*%
%TO.N,/L_Row6*%
X339578650Y-69520683D03*
X329860541Y-71409692D03*
D11*
%TO.P,SW59,*%
%TO.N,*%
X341276850Y-78257165D03*
X331470118Y-80214336D03*
%TD*%
D10*
%TO.P,SW60,2,B*%
%TO.N,Net-(D59-A)*%
X337880186Y-87118079D03*
%TO.P,SW60,1,A*%
%TO.N,/L_Row7*%
X343189021Y-88225451D03*
X333470912Y-90114460D03*
D11*
%TO.P,SW60,*%
%TO.N,*%
X344887221Y-96961933D03*
X335080489Y-98919104D03*
%TD*%
D10*
%TO.P,SW61,2,B*%
%TO.N,Net-(D60-A)*%
X341487855Y-105415885D03*
%TO.P,SW61,1,A*%
%TO.N,/L_Row8*%
X346796690Y-106523257D03*
X337078581Y-108412266D03*
D11*
%TO.P,SW61,*%
%TO.N,*%
X348494890Y-115259739D03*
X338688158Y-117216910D03*
%TD*%
D10*
%TO.P,SW63,2,B*%
%TO.N,Net-(D62-A)*%
X348795839Y-143012206D03*
%TO.P,SW63,1,A*%
%TO.N,/L_Row10*%
X354104674Y-144119578D03*
X344386565Y-146008587D03*
D11*
%TO.P,SW63,*%
%TO.N,*%
X355802874Y-152856060D03*
X345996142Y-154813231D03*
%TD*%
D10*
%TO.P,SW64,2,B*%
%TO.N,Net-(D63-A)*%
X230927219Y-139589719D03*
%TO.P,SW64,1,A*%
%TO.N,/L_Row7*%
X236236054Y-140697091D03*
X226517945Y-142586100D03*
D11*
%TO.P,SW64,*%
%TO.N,*%
X237934254Y-149433573D03*
X228127522Y-151390744D03*
%TD*%
D10*
%TO.P,SW65,2,B*%
%TO.N,Net-(D64-A)*%
X234538279Y-158167013D03*
%TO.P,SW65,1,A*%
%TO.N,/L_Row8*%
X239847114Y-159274385D03*
X230129005Y-161163394D03*
D11*
%TO.P,SW65,*%
%TO.N,*%
X241545314Y-168010867D03*
X231738582Y-169968038D03*
%TD*%
D10*
%TO.P,SW62,2,B*%
%TO.N,Net-(D61-A)*%
X345203860Y-124533075D03*
%TO.P,SW62,1,A*%
%TO.N,/L_Row9*%
X350512695Y-125640447D03*
X340794586Y-127529456D03*
D11*
%TO.P,SW62,*%
%TO.N,*%
X352210895Y-134376929D03*
X342404163Y-136334100D03*
%TD*%
D13*
%TO.P,D1,1,K*%
%TO.N,/L_column1*%
X97165234Y-64279470D03*
%TO.P,D1,2,A*%
%TO.N,Net-(D1-A)*%
X93925864Y-63649800D03*
%TD*%
%TO.P,D2,1,K*%
%TO.N,/L_column1*%
X93100889Y-83354417D03*
%TO.P,D2,2,A*%
%TO.N,Net-(D2-A)*%
X89861519Y-82724747D03*
%TD*%
%TO.P,D3,1,K*%
%TO.N,/L_column1*%
X89475518Y-102005333D03*
%TO.P,D3,2,A*%
%TO.N,Net-(D3-A)*%
X86236148Y-101375663D03*
%TD*%
%TO.P,D4,1,K*%
%TO.N,/L_column1*%
X85945551Y-120165436D03*
%TO.P,D4,2,A*%
%TO.N,Net-(D4-A)*%
X82706181Y-119535766D03*
%TD*%
%TO.P,D5,1,K*%
%TO.N,/L_column1*%
X81829367Y-138720948D03*
%TO.P,D5,2,A*%
%TO.N,Net-(D5-A)*%
X78589997Y-138091278D03*
%TD*%
%TO.P,D6,1,K*%
%TO.N,/L_column2*%
X115377176Y-68328871D03*
%TO.P,D6,2,A*%
%TO.N,Net-(D6-A)*%
X112137806Y-67699201D03*
%TD*%
%TO.P,D7,1,K*%
%TO.N,/L_column2*%
X111280072Y-86786220D03*
%TO.P,D7,2,A*%
%TO.N,Net-(D7-A)*%
X108040702Y-86156550D03*
%TD*%
%TO.P,D8,1,K*%
%TO.N,/L_column2*%
X107635621Y-105535300D03*
%TO.P,D8,2,A*%
%TO.N,Net-(D8-A)*%
X104396251Y-104905630D03*
%TD*%
%TO.P,D9,1,K*%
%TO.N,/L_column2*%
X104010250Y-124186216D03*
%TO.P,D9,2,A*%
%TO.N,Net-(D9-A)*%
X100770880Y-123556546D03*
%TD*%
%TO.P,D10,1,K*%
%TO.N,/L_column2*%
X100971097Y-142441724D03*
%TO.P,D10,2,A*%
%TO.N,Net-(D10-A)*%
X97731727Y-141812054D03*
%TD*%
%TO.P,D11,1,K*%
%TO.N,/L_column3*%
X134491324Y-66950702D03*
%TO.P,D11,2,A*%
%TO.N,Net-(D11-A)*%
X131251954Y-66321032D03*
%TD*%
%TO.P,D12,1,K*%
%TO.N,/L_column3*%
X131452171Y-85206209D03*
%TO.P,D12,2,A*%
%TO.N,Net-(D12-A)*%
X128212801Y-84576539D03*
%TD*%
%TO.P,D13,1,K*%
%TO.N,/L_column3*%
X127335987Y-103761721D03*
%TO.P,D13,2,A*%
%TO.N,Net-(D13-A)*%
X124096617Y-103132051D03*
%TD*%
%TO.P,D14,1,K*%
%TO.N,/L_column3*%
X123615211Y-122903451D03*
%TO.P,D14,2,A*%
%TO.N,Net-(D14-A)*%
X120375841Y-122273781D03*
%TD*%
%TO.P,D15,1,K*%
%TO.N,/L_column3*%
X119499027Y-141458963D03*
%TO.P,D15,2,A*%
%TO.N,Net-(D15-A)*%
X116259657Y-140829293D03*
%TD*%
%TO.P,D16,1,K*%
%TO.N,/L_column4*%
X154096285Y-65667937D03*
%TO.P,D16,2,A*%
%TO.N,Net-(D16-A)*%
X150856915Y-65038267D03*
%TD*%
%TO.P,D17,1,K*%
%TO.N,/L_column4*%
X150470914Y-84318853D03*
%TO.P,D17,2,A*%
%TO.N,Net-(D17-A)*%
X147231544Y-83689183D03*
%TD*%
%TO.P,D18,1,K*%
%TO.N,/L_column4*%
X146845544Y-102969770D03*
%TO.P,D18,2,A*%
%TO.N,Net-(D18-A)*%
X143606174Y-102340100D03*
%TD*%
%TO.P,D19,1,K*%
%TO.N,/L_column4*%
X143858230Y-121744712D03*
%TO.P,D19,2,A*%
%TO.N,Net-(D19-A)*%
X140618860Y-121115042D03*
%TD*%
%TO.P,D20,1,K*%
%TO.N,/L_column4*%
X139594802Y-140271603D03*
%TO.P,D20,2,A*%
%TO.N,Net-(D20-A)*%
X136355432Y-139641933D03*
%TD*%
%TO.P,D21,1,K*%
%TO.N,/L_column5*%
X171793157Y-74201443D03*
%TO.P,D21,2,A*%
%TO.N,Net-(D21-A)*%
X168553787Y-73571773D03*
%TD*%
%TO.P,D22,1,K*%
%TO.N,/L_column5*%
X168315030Y-92880981D03*
%TO.P,D22,2,A*%
%TO.N,Net-(D22-A)*%
X165075660Y-92251311D03*
%TD*%
%TO.P,D23,1,K*%
%TO.N,/L_column5*%
X164542415Y-111503276D03*
%TO.P,D23,2,A*%
%TO.N,Net-(D23-A)*%
X161303045Y-110873606D03*
%TD*%
%TO.P,D24,1,K*%
%TO.N,/L_column5*%
X160955206Y-129957868D03*
%TO.P,D24,2,A*%
%TO.N,Net-(D24-A)*%
X157715836Y-129328198D03*
%TD*%
%TO.P,D25,1,K*%
%TO.N,/L_column5*%
X157291673Y-148805109D03*
%TO.P,D25,2,A*%
%TO.N,Net-(D25-A)*%
X154052303Y-148175439D03*
%TD*%
%TO.P,D26,1,K*%
%TO.N,/L_column6*%
X189490028Y-82734950D03*
%TO.P,D26,2,A*%
%TO.N,Net-(D26-A)*%
X186250658Y-82105280D03*
%TD*%
%TO.P,D27,1,K*%
%TO.N,/L_column6*%
X185469248Y-100799649D03*
%TO.P,D27,2,A*%
%TO.N,Net-(D27-A)*%
X182229878Y-100169979D03*
%TD*%
%TO.P,D28,1,K*%
%TO.N,/L_column6*%
X182334691Y-119545970D03*
%TO.P,D28,2,A*%
%TO.N,Net-(D28-A)*%
X179095321Y-118916300D03*
%TD*%
%TO.P,D29,1,K*%
%TO.N,/L_column6*%
X178613916Y-138687700D03*
%TO.P,D29,2,A*%
%TO.N,Net-(D29-A)*%
X175374546Y-138058030D03*
%TD*%
%TO.P,D30,1,K*%
%TO.N,/L_column6*%
X174507272Y-157194130D03*
%TO.P,D30,2,A*%
%TO.N,Net-(D30-A)*%
X171267902Y-156564460D03*
%TD*%
%TO.P,D31,1,K*%
%TO.N,/L_column7*%
X199450625Y-136702049D03*
%TO.P,D31,2,A*%
%TO.N,Net-(D31-A)*%
X196211255Y-136072379D03*
%TD*%
%TO.P,D32,1,K*%
%TO.N,/L_column7*%
X194667761Y-155280780D03*
%TO.P,D32,2,A*%
%TO.N,Net-(D32-A)*%
X191428391Y-154651110D03*
%TD*%
D14*
%TO.P,SW1,1,A*%
%TO.N,unconnected-(SW1-A-Pad1)*%
X236915000Y-65602500D03*
%TO.P,SW1,2,B*%
%TO.N,/VBAT*%
X234375000Y-65602500D03*
%TO.P,SW1,3,C*%
%TO.N,Net-(J1-Pin_2)*%
X231835000Y-65602500D03*
%TD*%
D11*
%TO.P,SW3,*%
%TO.N,*%
X86516864Y-77133836D03*
X96342676Y-78992845D03*
D10*
%TO.P,SW3,1,A*%
%TO.N,/L_Row1*%
X88322767Y-68367354D03*
X98040876Y-70256363D03*
%TO.P,SW3,2,B*%
%TO.N,Net-(D1-A)*%
X93533439Y-67240901D03*
%TD*%
D11*
%TO.P,SW4,*%
%TO.N,*%
X82891493Y-95784752D03*
X92717305Y-97643761D03*
D10*
%TO.P,SW4,1,A*%
%TO.N,/L_Row2*%
X84697396Y-87018270D03*
X94415505Y-88907279D03*
%TO.P,SW4,2,B*%
%TO.N,Net-(D2-A)*%
X89908068Y-85891817D03*
%TD*%
D11*
%TO.P,SW5,*%
%TO.N,*%
X79266123Y-114435669D03*
X89091935Y-116294678D03*
D10*
%TO.P,SW5,1,A*%
%TO.N,/L_Row3*%
X81072026Y-105669187D03*
X90790135Y-107558196D03*
%TO.P,SW5,2,B*%
%TO.N,Net-(D3-A)*%
X86282698Y-104542734D03*
%TD*%
D11*
%TO.P,SW6,*%
%TO.N,*%
X75640752Y-133086585D03*
X85466564Y-134945594D03*
D10*
%TO.P,SW6,1,A*%
%TO.N,/L_Row4*%
X77446655Y-124320103D03*
X87164764Y-126209112D03*
%TO.P,SW6,2,B*%
%TO.N,Net-(D4-A)*%
X82657327Y-123193650D03*
%TD*%
D11*
%TO.P,SW7,*%
%TO.N,*%
X72015381Y-151737502D03*
X81841193Y-153596511D03*
D10*
%TO.P,SW7,1,A*%
%TO.N,/L_Row5*%
X73821284Y-142971020D03*
X83539393Y-144860029D03*
%TO.P,SW7,2,B*%
%TO.N,Net-(D5-A)*%
X79031956Y-141844567D03*
%TD*%
D11*
%TO.P,SW8,*%
%TO.N,*%
X105167781Y-80759207D03*
X114993593Y-82618216D03*
D10*
%TO.P,SW8,1,A*%
%TO.N,/L_Row1*%
X106973684Y-71992725D03*
X116691793Y-73881734D03*
%TO.P,SW8,2,B*%
%TO.N,Net-(D6-A)*%
X112184356Y-70866272D03*
%TD*%
D11*
%TO.P,SW9,*%
%TO.N,*%
X101542410Y-99410123D03*
X111368222Y-101269132D03*
D10*
%TO.P,SW9,1,A*%
%TO.N,/L_Row2*%
X103348313Y-90643641D03*
X113066422Y-92532650D03*
%TO.P,SW9,2,B*%
%TO.N,Net-(D7-A)*%
X108558985Y-89517188D03*
%TD*%
D11*
%TO.P,SW10,*%
%TO.N,*%
X97917039Y-118061040D03*
X107742851Y-119920049D03*
D10*
%TO.P,SW10,1,A*%
%TO.N,/L_Row3*%
X99722942Y-109294558D03*
X109441051Y-111183567D03*
%TO.P,SW10,2,B*%
%TO.N,Net-(D8-A)*%
X104933614Y-108168105D03*
%TD*%
D11*
%TO.P,SW11,*%
%TO.N,*%
X94291668Y-136711956D03*
X104117480Y-138570965D03*
D10*
%TO.P,SW11,1,A*%
%TO.N,/L_Row4*%
X96097571Y-127945474D03*
X105815680Y-129834483D03*
%TO.P,SW11,2,B*%
%TO.N,Net-(D9-A)*%
X101308243Y-126819021D03*
%TD*%
D11*
%TO.P,SW12,*%
%TO.N,*%
X90666297Y-155362873D03*
X100492109Y-157221882D03*
D10*
%TO.P,SW12,1,A*%
%TO.N,/L_Row5*%
X92472200Y-146596391D03*
X102190309Y-148485400D03*
%TO.P,SW12,2,B*%
%TO.N,Net-(D10-A)*%
X97682872Y-145469938D03*
%TD*%
D11*
%TO.P,SW13,*%
%TO.N,*%
X124772742Y-79476442D03*
X134598554Y-81335451D03*
D10*
%TO.P,SW13,1,A*%
%TO.N,/L_Row1*%
X126578645Y-70709960D03*
X136296754Y-72598969D03*
%TO.P,SW13,2,B*%
%TO.N,Net-(D11-A)*%
X131789317Y-69583507D03*
%TD*%
D11*
%TO.P,SW14,*%
%TO.N,*%
X121147371Y-98127358D03*
X130973183Y-99986367D03*
D10*
%TO.P,SW14,1,A*%
%TO.N,/L_Row2*%
X122953274Y-89360876D03*
X132671383Y-91249885D03*
%TO.P,SW14,2,B*%
%TO.N,Net-(D12-A)*%
X128163946Y-88234423D03*
%TD*%
D11*
%TO.P,SW15,*%
%TO.N,*%
X117522001Y-116778275D03*
X127347813Y-118637284D03*
D10*
%TO.P,SW15,1,A*%
%TO.N,/L_Row3*%
X119327904Y-108011793D03*
X129046013Y-109900802D03*
%TO.P,SW15,2,B*%
%TO.N,Net-(D13-A)*%
X124538576Y-106885340D03*
%TD*%
D11*
%TO.P,SW16,*%
%TO.N,*%
X113896630Y-135429191D03*
X123722442Y-137288200D03*
D10*
%TO.P,SW16,1,A*%
%TO.N,/L_Row4*%
X115702533Y-126662709D03*
X125420642Y-128551718D03*
%TO.P,SW16,2,B*%
%TO.N,Net-(D14-A)*%
X120913205Y-125536256D03*
%TD*%
D11*
%TO.P,SW17,*%
%TO.N,*%
X110271259Y-154080108D03*
X120097071Y-155939117D03*
D10*
%TO.P,SW17,1,A*%
%TO.N,/L_Row5*%
X112077162Y-145313626D03*
X121795271Y-147202635D03*
%TO.P,SW17,2,B*%
%TO.N,Net-(D15-A)*%
X117287834Y-144187173D03*
%TD*%
D11*
%TO.P,SW18,*%
%TO.N,*%
X144377704Y-78193677D03*
X154203516Y-80052686D03*
D10*
%TO.P,SW18,1,A*%
%TO.N,/L_Row1*%
X146183607Y-69427195D03*
X155901716Y-71316204D03*
%TO.P,SW18,2,B*%
%TO.N,Net-(D16-A)*%
X151394279Y-68300742D03*
%TD*%
D11*
%TO.P,SW19,*%
%TO.N,*%
X140752333Y-96844593D03*
X150578145Y-98703602D03*
D10*
%TO.P,SW19,1,A*%
%TO.N,/L_Row2*%
X142558236Y-88078111D03*
X152276345Y-89967120D03*
%TO.P,SW19,2,B*%
%TO.N,Net-(D17-A)*%
X147768908Y-86951658D03*
%TD*%
D11*
%TO.P,SW20,*%
%TO.N,*%
X137126962Y-115495510D03*
X146952774Y-117354519D03*
D10*
%TO.P,SW20,1,A*%
%TO.N,/L_Row3*%
X138932865Y-106729028D03*
X148650974Y-108618037D03*
%TO.P,SW20,2,B*%
%TO.N,Net-(D18-A)*%
X144143537Y-105602575D03*
%TD*%
D11*
%TO.P,SW21,*%
%TO.N,*%
X133501591Y-134146426D03*
X143327403Y-136005435D03*
D10*
%TO.P,SW21,1,A*%
%TO.N,/L_Row4*%
X135307494Y-125379944D03*
X145025603Y-127268953D03*
%TO.P,SW21,2,B*%
%TO.N,Net-(D19-A)*%
X140518166Y-124253491D03*
%TD*%
D11*
%TO.P,SW22,*%
%TO.N,*%
X129876220Y-152797343D03*
X139702032Y-154656352D03*
D10*
%TO.P,SW22,1,A*%
%TO.N,/L_Row5*%
X131682123Y-144030861D03*
X141400232Y-145919870D03*
%TO.P,SW22,2,B*%
%TO.N,Net-(D20-A)*%
X136892795Y-142904408D03*
%TD*%
D11*
%TO.P,SW23,*%
%TO.N,*%
X162074575Y-86727184D03*
X171900387Y-88586193D03*
D10*
%TO.P,SW23,1,A*%
%TO.N,/L_Row1*%
X163880478Y-77960702D03*
X173598587Y-79849711D03*
%TO.P,SW23,2,B*%
%TO.N,Net-(D21-A)*%
X169091150Y-76834249D03*
%TD*%
D11*
%TO.P,SW24,*%
%TO.N,*%
X158449204Y-105378100D03*
X168275016Y-107237109D03*
D10*
%TO.P,SW24,1,A*%
%TO.N,/L_Row2*%
X160255107Y-96611618D03*
X169973216Y-98500627D03*
%TO.P,SW24,2,B*%
%TO.N,Net-(D22-A)*%
X165465779Y-95485165D03*
%TD*%
D11*
%TO.P,SW25,*%
%TO.N,*%
X154823833Y-124029017D03*
X164649645Y-125888026D03*
D10*
%TO.P,SW25,1,A*%
%TO.N,/L_Row3*%
X156629736Y-115262535D03*
X166347845Y-117151544D03*
%TO.P,SW25,2,B*%
%TO.N,Net-(D23-A)*%
X161840408Y-114136082D03*
%TD*%
D11*
%TO.P,SW26,*%
%TO.N,*%
X151198463Y-142679933D03*
X161024275Y-144538942D03*
D10*
%TO.P,SW26,1,A*%
%TO.N,/L_Row4*%
X153004366Y-133913451D03*
X162722475Y-135802460D03*
%TO.P,SW26,2,B*%
%TO.N,Net-(D24-A)*%
X158215038Y-132786998D03*
%TD*%
D11*
%TO.P,SW27,*%
%TO.N,*%
X147573092Y-161330850D03*
X157398904Y-163189859D03*
D10*
%TO.P,SW27,1,A*%
%TO.N,/L_Row5*%
X149378995Y-152564368D03*
X159097104Y-154453377D03*
%TO.P,SW27,2,B*%
%TO.N,Net-(D25-A)*%
X154589667Y-151437915D03*
%TD*%
D11*
%TO.P,SW28,*%
%TO.N,*%
X179771447Y-95260690D03*
X189597259Y-97119699D03*
D10*
%TO.P,SW28,1,A*%
%TO.N,/L_Row1*%
X181577350Y-86494208D03*
X191295459Y-88383217D03*
%TO.P,SW28,2,B*%
%TO.N,Net-(D26-A)*%
X186788022Y-85367755D03*
%TD*%
D11*
%TO.P,SW29,*%
%TO.N,*%
X176146076Y-113911607D03*
X185971888Y-115770616D03*
D10*
%TO.P,SW29,1,A*%
%TO.N,/L_Row2*%
X177951979Y-105145125D03*
X187670088Y-107034134D03*
%TO.P,SW29,2,B*%
%TO.N,Net-(D27-A)*%
X183162651Y-104018672D03*
%TD*%
D11*
%TO.P,SW30,*%
%TO.N,*%
X172520705Y-132562523D03*
X182346517Y-134421532D03*
D10*
%TO.P,SW30,1,A*%
%TO.N,/L_Row3*%
X174326608Y-123796041D03*
X184044717Y-125685050D03*
%TO.P,SW30,2,B*%
%TO.N,Net-(D28-A)*%
X179537280Y-122669588D03*
%TD*%
D11*
%TO.P,SW31,*%
%TO.N,*%
X168895334Y-151213440D03*
X178721146Y-153072449D03*
D10*
%TO.P,SW31,1,A*%
%TO.N,/L_Row4*%
X170701237Y-142446958D03*
X180419346Y-144335967D03*
%TO.P,SW31,2,B*%
%TO.N,Net-(D29-A)*%
X175911909Y-141320505D03*
%TD*%
D11*
%TO.P,SW32,*%
%TO.N,*%
X165231802Y-170060682D03*
X175057614Y-171919691D03*
D10*
%TO.P,SW32,1,A*%
%TO.N,/L_Row5*%
X167037705Y-161294200D03*
X176755814Y-163183209D03*
%TO.P,SW32,2,B*%
%TO.N,Net-(D30-A)*%
X172248377Y-160167747D03*
%TD*%
D11*
%TO.P,SW33,*%
%TO.N,*%
X188629781Y-149395550D03*
X198455593Y-151254559D03*
D10*
%TO.P,SW33,1,A*%
%TO.N,/L_Row4*%
X190435684Y-140629068D03*
X200153793Y-142518077D03*
%TO.P,SW33,2,B*%
%TO.N,Net-(D31-A)*%
X195646356Y-139502615D03*
%TD*%
D11*
%TO.P,SW34,*%
%TO.N,*%
X184999640Y-168071007D03*
X194825452Y-169930016D03*
D10*
%TO.P,SW34,1,A*%
%TO.N,/L_Row5*%
X186805543Y-159304525D03*
X196523652Y-161193534D03*
%TO.P,SW34,2,B*%
%TO.N,Net-(D32-A)*%
X192016215Y-158178072D03*
%TD*%
D15*
%TO.P,U1,24,VBAT*%
%TO.N,/VBAT*%
X221575000Y-61920000D03*
%TO.P,U1,23,Gnd*%
%TO.N,unconnected-(U1-Gnd-Pad23)*%
X221575000Y-64460000D03*
%TO.P,U1,22,Reset*%
%TO.N,unconnected-(U1-Reset-Pad22)*%
X221575000Y-67000000D03*
%TO.P,U1,21,_3v3_(out)*%
%TO.N,unconnected-(U1-_3v3_(out)-Pad21)*%
X221575000Y-69540000D03*
%TO.P,U1,20,D21/P0.29*%
%TO.N,/L_column1*%
X221575000Y-72080000D03*
%TO.P,U1,19,D20/P0.29*%
%TO.N,/L_column2*%
X221575000Y-74620000D03*
%TO.P,U1,18,D19/P0.02*%
%TO.N,/L_column3*%
X221575000Y-77160000D03*
%TO.P,U1,17,D18/P1.15*%
%TO.N,/L_column4*%
X221575000Y-79700000D03*
%TO.P,U1,16,D15/P1.13*%
%TO.N,/L_column5*%
X221575000Y-82240000D03*
%TO.P,U1,15,D14/P1.11*%
%TO.N,/L_column6*%
X221575000Y-84780000D03*
%TO.P,U1,14,D16/P0.10*%
%TO.N,/L_column7*%
X221575000Y-87320000D03*
%TO.P,U1,13,D10/P0.09*%
%TO.N,unconnected-(U1-D10{slash}P0.09-Pad13)*%
X221575000Y-89860000D03*
%TO.P,U1,12,D9/P1.06*%
%TO.N,/L_Row10*%
X206075000Y-89860000D03*
%TO.P,U1,11,D8/P1.04*%
%TO.N,/L_Row9*%
X206075000Y-87320000D03*
%TO.P,U1,10,D7/P0.11*%
%TO.N,/L_Row8*%
X206075000Y-84780000D03*
%TO.P,U1,9,D6/P1.00*%
%TO.N,/L_Row7*%
X206075000Y-82240000D03*
%TO.P,U1,8,D5/P0.24*%
%TO.N,/L_Row6*%
X206075000Y-79700000D03*
%TO.P,U1,7,D4/P0.22*%
%TO.N,/L_Row5*%
X206075000Y-77160000D03*
%TO.P,U1,6,D3/P0.20*%
%TO.N,/L_Row4*%
X206075000Y-74620000D03*
%TO.P,U1,5,D2/P0.12*%
%TO.N,/L_Row3*%
X206075000Y-72080000D03*
%TO.P,U1,4,GND*%
%TO.N,unconnected-(U1-GND-Pad4)*%
X206075000Y-69540000D03*
%TO.P,U1,3,GND*%
%TO.N,GND*%
X206075000Y-67000000D03*
%TO.P,U1,2,D0/P0.08*%
%TO.N,/L_Row2*%
X206075000Y-64460000D03*
%TO.P,U1,1,D1/P0.06*%
%TO.N,/L_Row1*%
X206075000Y-61920000D03*
%TD*%
D16*
%TO.P,J1,1,Pin_1*%
%TO.N,GND*%
X213175000Y-97975000D03*
%TO.P,J1,2,Pin_2*%
%TO.N,Net-(J1-Pin_2)*%
X215175000Y-97975000D03*
D17*
%TO.P,J1,MP*%
%TO.N,N/C*%
X210825000Y-103725000D03*
X217525000Y-103725000D03*
%TD*%
D18*
%TO.N,GND*%
X212775000Y-89500000D03*
X212275000Y-70725000D03*
%TO.N,Net-(J1-Pin_2)*%
X227275000Y-79800000D03*
X225900000Y-86825000D03*
%TO.N,/L_column1*%
X222350000Y-96825000D03*
%TO.N,/L_column5*%
X308375000Y-65025000D03*
X315900000Y-65250000D03*
%TO.N,/L_column4*%
X287500000Y-67500000D03*
%TO.N,/L_column3*%
X267050000Y-71875000D03*
%TO.N,/L_column2*%
X254850000Y-78500000D03*
%TO.N,/L_Row9*%
X234475000Y-133175000D03*
%TO.N,/L_Row8*%
X233500000Y-127700000D03*
X231887500Y-126862500D03*
%TO.N,/L_Row6*%
X215000500Y-85568804D03*
X211012500Y-84637500D03*
%TD*%
D19*
%TO.N,GND*%
X212775000Y-89500000D02*
X212775000Y-97575000D01*
X212775000Y-97575000D02*
X213175000Y-97975000D01*
X206075000Y-67000000D02*
X208550000Y-67000000D01*
X208550000Y-67000000D02*
X212275000Y-70725000D01*
%TO.N,Net-(J1-Pin_2)*%
X231835000Y-75240000D02*
X227275000Y-79800000D01*
X231835000Y-65602500D02*
X231835000Y-75240000D01*
X225900000Y-86825000D02*
X225900000Y-87482056D01*
X225900000Y-87482056D02*
X215407056Y-97975000D01*
X215407056Y-97975000D02*
X215175000Y-97975000D01*
D20*
%TO.N,/L_column1*%
X241303107Y-88750000D02*
X243150000Y-88750000D01*
X228138411Y-91036589D02*
X239016518Y-91036589D01*
X243150000Y-88750000D02*
X243150000Y-82525000D01*
X243150000Y-82525000D02*
X243025000Y-82400000D01*
X239016518Y-91036589D02*
X241303107Y-88750000D01*
X222350000Y-96825000D02*
X228138411Y-91036589D01*
%TO.N,/L_column6*%
X251460241Y-64276501D02*
X306740496Y-64276501D01*
%TO.N,/L_column5*%
X306750000Y-63400000D02*
X308375000Y-65025000D01*
%TO.N,/L_column6*%
X310149225Y-64136780D02*
X336011780Y-64136780D01*
X336011780Y-64136780D02*
X336350000Y-64475000D01*
X306740496Y-64276501D02*
X308115495Y-65651500D01*
X308115495Y-65651500D02*
X308634505Y-65651500D01*
X308634505Y-65651500D02*
X310149225Y-64136780D01*
%TO.N,/L_column5*%
X251875000Y-63400000D02*
X306750000Y-63400000D01*
%TO.N,/L_column6*%
X221575000Y-84780000D02*
X230956742Y-84780000D01*
%TO.N,/L_column5*%
X221575000Y-82240000D02*
X233035000Y-82240000D01*
X233035000Y-82240000D02*
X251875000Y-63400000D01*
%TO.N,/L_column6*%
X230956742Y-84780000D02*
X251460241Y-64276501D01*
%TO.N,/L_column5*%
X317675000Y-67025000D02*
X317675000Y-67950000D01*
X315900000Y-65250000D02*
X317675000Y-67025000D01*
%TO.N,/L_column4*%
X287500000Y-67500000D02*
X289750000Y-65250000D01*
X289750000Y-65250000D02*
X296800000Y-65250000D01*
X296800000Y-65250000D02*
X297900000Y-66350000D01*
%TO.N,/L_column3*%
X277807665Y-70995221D02*
X278906222Y-72093778D01*
X278906222Y-72093778D02*
X281674226Y-74861781D01*
X278725000Y-71912555D02*
X278906222Y-72093778D01*
X267050000Y-71875000D02*
X267929779Y-70995221D01*
X267929779Y-70995221D02*
X277807665Y-70995221D01*
%TO.N,/L_column2*%
X254850000Y-78500000D02*
X257134865Y-80784865D01*
X260825000Y-80650000D02*
X260825000Y-80786300D01*
D19*
%TO.N,/L_Row6*%
X214069196Y-84637500D02*
X215000500Y-85568804D01*
D20*
%TO.N,/L_column2*%
X260825000Y-80783430D02*
X260825000Y-80650000D01*
D19*
%TO.N,/L_Row6*%
X211012500Y-84637500D02*
X214069196Y-84637500D01*
D20*
%TO.N,/L_column2*%
X260825000Y-73425000D02*
X260825000Y-80650000D01*
X257134865Y-80784865D02*
X260823565Y-80784865D01*
X260823565Y-80784865D02*
X260825000Y-80783430D01*
D19*
%TO.N,/L_Row9*%
X234475000Y-133175000D02*
X234885586Y-133175000D01*
X234885586Y-133175000D02*
X247139191Y-145428605D01*
%TO.N,/L_Row8*%
X233500000Y-127700000D02*
X234456392Y-126743608D01*
X234456392Y-126743608D02*
X243558131Y-126743608D01*
D20*
%TO.N,/L_column7*%
X199450625Y-136702049D02*
X199450625Y-99599375D01*
X199450625Y-99599375D02*
X211730000Y-87320000D01*
X211730000Y-87320000D02*
X221575000Y-87320000D01*
%TO.N,/L_column6*%
X189490028Y-82734950D02*
X190045078Y-83290000D01*
X190045078Y-83290000D02*
X220085000Y-83290000D01*
X220085000Y-83290000D02*
X221575000Y-84780000D01*
%TO.N,/L_column5*%
X171793157Y-74201443D02*
X198841519Y-74201443D01*
X198841519Y-74201443D02*
X205830076Y-81190000D01*
X205830076Y-81190000D02*
X220525000Y-81190000D01*
X220525000Y-81190000D02*
X221575000Y-82240000D01*
%TO.N,/L_column4*%
X154096285Y-65667937D02*
X192951250Y-65667937D01*
X192951250Y-65667937D02*
X205933313Y-78650000D01*
X205933313Y-78650000D02*
X220525000Y-78650000D01*
X220525000Y-78650000D02*
X221575000Y-79700000D01*
%TO.N,/L_column3*%
X134491324Y-66950702D02*
X138292026Y-63150000D01*
X212855992Y-75115097D02*
X219530097Y-75115097D01*
X192973313Y-63150000D02*
X205873313Y-76050000D01*
X138292026Y-63150000D02*
X192973313Y-63150000D01*
X205873313Y-76050000D02*
X211921089Y-76050000D01*
X211921089Y-76050000D02*
X212855992Y-75115097D01*
X219530097Y-75115097D02*
X221575000Y-77160000D01*
%TO.N,/L_column2*%
X115377176Y-68328871D02*
X121031047Y-62675000D01*
X195038313Y-62675000D02*
X205863313Y-73500000D01*
X220455000Y-73500000D02*
X221575000Y-74620000D01*
X121031047Y-62675000D02*
X195038313Y-62675000D01*
X205863313Y-73500000D02*
X220455000Y-73500000D01*
%TO.N,/L_column1*%
X97165234Y-64279470D02*
X99294704Y-62150000D01*
X204673313Y-62150000D02*
X205420313Y-62897000D01*
X99294704Y-62150000D02*
X204673313Y-62150000D01*
X205420313Y-62897000D02*
X212392000Y-62897000D01*
X212392000Y-62897000D02*
X221575000Y-72080000D01*
D19*
%TO.N,Net-(D62-A)*%
X347410630Y-139504670D02*
X347410630Y-141626997D01*
X347410630Y-141626997D02*
X348795839Y-143012206D01*
D20*
%TO.N,/L_column6*%
X346800000Y-120100000D02*
X346800000Y-126729178D01*
X350610895Y-138835895D02*
X350650000Y-138875000D01*
X346800000Y-126729178D02*
X350610895Y-130540073D01*
X350610895Y-130540073D02*
X350610895Y-138835895D01*
D19*
%TO.N,Net-(D61-A)*%
X343560630Y-120729670D02*
X343560630Y-122889845D01*
X343560630Y-122889845D02*
X345203860Y-124533075D01*
D20*
%TO.N,/L_column6*%
X343300000Y-101550000D02*
X343300000Y-105006466D01*
X346225000Y-107931466D02*
X346225000Y-119525000D01*
X346225000Y-119525000D02*
X346800000Y-120100000D01*
X343300000Y-105006466D02*
X346225000Y-107931466D01*
D19*
%TO.N,Net-(D60-A)*%
X340060630Y-102179670D02*
X340060630Y-103988660D01*
X340060630Y-103988660D02*
X341487855Y-105415885D01*
D20*
%TO.N,/L_column6*%
X339325000Y-83125000D02*
X339325000Y-89162856D01*
X343287221Y-101537221D02*
X343300000Y-101550000D01*
X339325000Y-89162856D02*
X343287221Y-93125077D01*
X343287221Y-93125077D02*
X343287221Y-101537221D01*
D19*
%TO.N,Net-(D59-A)*%
X336085630Y-83754670D02*
X336085630Y-85323523D01*
X336085630Y-85323523D02*
X337880186Y-87118079D01*
D20*
%TO.N,/L_column6*%
X336350000Y-64475000D02*
X336350000Y-71093459D01*
X336350000Y-71093459D02*
X339325000Y-74068459D01*
X339325000Y-74068459D02*
X339325000Y-83125000D01*
D19*
%TO.N,Net-(D58-A)*%
X333110630Y-65104670D02*
X333110630Y-67254126D01*
X333110630Y-67254126D02*
X334269815Y-68413311D01*
%TO.N,Net-(D53-A)*%
X314435630Y-68579670D02*
X314435630Y-71001968D01*
X314435630Y-71001968D02*
X315496195Y-72062533D01*
D20*
%TO.N,/L_column5*%
X317675000Y-67950000D02*
X317675000Y-74841301D01*
X317675000Y-74841301D02*
X320675000Y-77841301D01*
X320675000Y-77841301D02*
X320675000Y-86625000D01*
D19*
%TO.N,Net-(D54-A)*%
X317435630Y-87254670D02*
X317435630Y-89027513D01*
X317435630Y-89027513D02*
X319121566Y-90713449D01*
D20*
%TO.N,/L_column5*%
X324650000Y-105150000D02*
X323850502Y-104350502D01*
X323850502Y-104350502D02*
X323850502Y-93220821D01*
X323850502Y-93220821D02*
X320675000Y-90045319D01*
X320675000Y-90045319D02*
X320675000Y-86625000D01*
D19*
%TO.N,Net-(D55-A)*%
X321410630Y-105779670D02*
X321410630Y-107999437D01*
X321410630Y-107999437D02*
X322834870Y-109423677D01*
D20*
%TO.N,/L_column5*%
X328625000Y-123950000D02*
X327563806Y-122888806D01*
X327563806Y-122888806D02*
X327563806Y-111931049D01*
X327563806Y-111931049D02*
X324650000Y-109017243D01*
X324650000Y-109017243D02*
X324650000Y-105150000D01*
D19*
%TO.N,Net-(D56-A)*%
X325385630Y-124579670D02*
X325385630Y-126912051D01*
X325385630Y-126912051D02*
X326533862Y-128060283D01*
D20*
%TO.N,/L_column5*%
X331725000Y-142600000D02*
X331725000Y-131029857D01*
X328625000Y-127929857D02*
X328625000Y-123950000D01*
X331725000Y-131029857D02*
X328625000Y-127929857D01*
D19*
%TO.N,Net-(D57-A)*%
X328485630Y-143229670D02*
X328485630Y-145125529D01*
X328485630Y-145125529D02*
X330085611Y-146725510D01*
%TO.N,Net-(D52-A)*%
X308960630Y-142004670D02*
X308960630Y-143678008D01*
X308960630Y-143678008D02*
X310642894Y-145360272D01*
D20*
%TO.N,/L_column4*%
X308600000Y-122825000D02*
X308600000Y-129448703D01*
X311958285Y-141133285D02*
X312200000Y-141375000D01*
X308600000Y-129448703D02*
X311958285Y-132806988D01*
X311958285Y-132806988D02*
X311958285Y-141133285D01*
D19*
%TO.N,Net-(D51-A)*%
X305360630Y-123454670D02*
X305360630Y-125609370D01*
X305360630Y-125609370D02*
X306551250Y-126799990D01*
D20*
%TO.N,/L_column4*%
X304850000Y-104400000D02*
X304850000Y-110774078D01*
X308546942Y-114471020D02*
X308546942Y-122771942D01*
X304850000Y-110774078D02*
X308546942Y-114471020D01*
X308546942Y-122771942D02*
X308600000Y-122825000D01*
X304850000Y-104400000D02*
X304850000Y-95286340D01*
X304850000Y-95286340D02*
X301024308Y-91460648D01*
X301024308Y-91460648D02*
X301024308Y-85649308D01*
X301024308Y-85649308D02*
X301000000Y-85625000D01*
D19*
%TO.N,Net-(D50-A)*%
X301610630Y-105029670D02*
X301610630Y-106934745D01*
X301610630Y-106934745D02*
X303139907Y-108464022D01*
%TO.N,Net-(D49-A)*%
X297760630Y-86254670D02*
X297760630Y-87597007D01*
X297760630Y-87597007D02*
X299624308Y-89460685D01*
D20*
%TO.N,/L_column4*%
X297900000Y-66350000D02*
X297900000Y-73397348D01*
X297900000Y-73397348D02*
X301000000Y-76497348D01*
X301000000Y-76497348D02*
X301000000Y-85625000D01*
D19*
%TO.N,Net-(D48-A)*%
X294660630Y-66979670D02*
X294660630Y-69558015D01*
X294660630Y-69558015D02*
X295798531Y-70695916D01*
D20*
%TO.N,/L_column3*%
X289300000Y-121825000D02*
X288692885Y-121217885D01*
X288692885Y-121217885D02*
X288692885Y-110042885D01*
X288692885Y-110042885D02*
X285700000Y-107050000D01*
X285700000Y-107050000D02*
X285700000Y-102675000D01*
X292800000Y-141125000D02*
X291937644Y-140262644D01*
X291937644Y-128457478D02*
X289300000Y-125819834D01*
X291937644Y-140262644D02*
X291937644Y-128457478D01*
X289300000Y-125819834D02*
X289300000Y-121825000D01*
D19*
%TO.N,Net-(D47-A)*%
X289560630Y-141754670D02*
X289560630Y-143940458D01*
X289560630Y-143940458D02*
X290981956Y-145361784D01*
%TO.N,Net-(D46-A)*%
X286060630Y-122454670D02*
X286060630Y-124802028D01*
X286060630Y-124802028D02*
X287208708Y-125950106D01*
%TO.N,Net-(D45-A)*%
X282460630Y-103304670D02*
X282460630Y-105830155D01*
X282460630Y-105830155D02*
X283468162Y-106837687D01*
D20*
%TO.N,/L_column3*%
X282350000Y-83750000D02*
X282350000Y-91107847D01*
X282350000Y-91107847D02*
X285362989Y-94120836D01*
X285362989Y-94120836D02*
X285362989Y-102337989D01*
X285362989Y-102337989D02*
X285700000Y-102675000D01*
D19*
%TO.N,Net-(D44-A)*%
X279110630Y-84379670D02*
X279110630Y-87268514D01*
X279110630Y-87268514D02*
X279955954Y-88113838D01*
D20*
%TO.N,/L_column3*%
X278725000Y-65225000D02*
X278725000Y-71912555D01*
X281674226Y-74861781D02*
X281674226Y-83074226D01*
X281674226Y-83074226D02*
X282350000Y-83750000D01*
D19*
%TO.N,Net-(D43-A)*%
X275485630Y-65854670D02*
X275485630Y-68617279D01*
X275485630Y-68617279D02*
X276267191Y-69398840D01*
%TO.N,Net-(D42-A)*%
X271760630Y-148579670D02*
X271760630Y-151175068D01*
X271760630Y-151175068D02*
X273028182Y-152442620D01*
D20*
%TO.N,/L_column2*%
X271400000Y-129925000D02*
X271400000Y-136526560D01*
X271400000Y-136526560D02*
X274779845Y-139906405D01*
X274779845Y-139906405D02*
X274779845Y-147729845D01*
X274779845Y-147729845D02*
X275000000Y-147950000D01*
D19*
%TO.N,Net-(D41-A)*%
X268160630Y-130554670D02*
X268160630Y-132687227D01*
X268160630Y-132687227D02*
X269372810Y-133899407D01*
D20*
%TO.N,/L_column2*%
X267900000Y-110875000D02*
X267900000Y-117902162D01*
X271050000Y-129575000D02*
X271400000Y-129925000D01*
X267900000Y-117902162D02*
X271050000Y-121052162D01*
X271050000Y-121052162D02*
X271050000Y-129575000D01*
D19*
%TO.N,Net-(D40-A)*%
X264660630Y-111504670D02*
X264660630Y-114062829D01*
X264660630Y-114062829D02*
X265723588Y-115125787D01*
D20*
%TO.N,/L_column2*%
X264175000Y-92475000D02*
X264175000Y-99043913D01*
X264175000Y-99043913D02*
X267475000Y-102343913D01*
X267475000Y-102343913D02*
X267475000Y-110450000D01*
X267475000Y-110450000D02*
X267900000Y-110875000D01*
D19*
%TO.N,Net-(D39-A)*%
X260935630Y-93104670D02*
X260935630Y-95204580D01*
X260935630Y-95204580D02*
X262167069Y-96436019D01*
D20*
%TO.N,/L_column2*%
X263913963Y-92213963D02*
X264175000Y-92475000D01*
X260825000Y-80786300D02*
X263913963Y-83875263D01*
X263913963Y-83875263D02*
X263913963Y-92213963D01*
D19*
%TO.N,Net-(D38-A)*%
X257585630Y-74054670D02*
X257585630Y-76946967D01*
X257585630Y-76946967D02*
X258506928Y-77868265D01*
D20*
%TO.N,/L_column1*%
X243025000Y-82400000D02*
X243025000Y-88751014D01*
X243025000Y-88751014D02*
X246075000Y-91801014D01*
X246075000Y-91801014D02*
X246075000Y-100375000D01*
X246075000Y-100375000D02*
X246625000Y-100925000D01*
D19*
%TO.N,Net-(D33-A)*%
X239785630Y-83029670D02*
X239785630Y-85455738D01*
X239785630Y-85455738D02*
X240765745Y-86435853D01*
%TO.N,Net-(D34-A)*%
X243385630Y-101554670D02*
X243385630Y-104051972D01*
X243385630Y-104051972D02*
X244415657Y-105081999D01*
D20*
%TO.N,/L_column1*%
X246625000Y-100925000D02*
X246625000Y-107891305D01*
X246625000Y-107891305D02*
X249822692Y-111088997D01*
X249822692Y-111088997D02*
X249822692Y-119172692D01*
X249822692Y-119172692D02*
X250250000Y-119600000D01*
D19*
%TO.N,Net-(D35-A)*%
X247010630Y-120229670D02*
X247010630Y-122790452D01*
X247010630Y-122790452D02*
X247967405Y-123747227D01*
D20*
%TO.N,/L_column1*%
X250250000Y-119600000D02*
X250250000Y-126629785D01*
X250250000Y-126629785D02*
X253374440Y-129754225D01*
X253374440Y-129754225D02*
X253374440Y-138005400D01*
X253374440Y-138005400D02*
X253614370Y-138245330D01*
D19*
%TO.N,Net-(D36-A)*%
X250375000Y-138875000D02*
X250375000Y-141258759D01*
X250375000Y-141258759D02*
X251548465Y-142432224D01*
D20*
%TO.N,/L_column1*%
X257325000Y-156800000D02*
X256773188Y-156248188D01*
X256773188Y-156248188D02*
X256773188Y-146123188D01*
X256773188Y-146123188D02*
X253614370Y-142964370D01*
X253614370Y-142964370D02*
X253614370Y-138245330D01*
D19*
%TO.N,Net-(D37-A)*%
X254085630Y-157429670D02*
X254085630Y-160073327D01*
X254085630Y-160073327D02*
X255129525Y-161117222D01*
%TO.N,Net-(D64-A)*%
X233385630Y-154654670D02*
X233385630Y-157014364D01*
X233385630Y-157014364D02*
X234538279Y-158167013D01*
D20*
%TO.N,/L_column7*%
X199450625Y-136702049D02*
X216072951Y-136702049D01*
X216072951Y-136702049D02*
X220875000Y-131900000D01*
X229459520Y-131900000D02*
X233269685Y-135710165D01*
X220875000Y-131900000D02*
X229459520Y-131900000D01*
X233269685Y-135710165D02*
X233269685Y-142532148D01*
X233269685Y-142532148D02*
X236300000Y-145562463D01*
X236300000Y-145562463D02*
X236300000Y-153700000D01*
X236300000Y-153700000D02*
X236625000Y-154025000D01*
D19*
%TO.N,Net-(D63-A)*%
X230030315Y-136339835D02*
X230030315Y-138692815D01*
X230030315Y-138692815D02*
X230927219Y-139589719D01*
%TO.N,Net-(D31-A)*%
X196211255Y-136072379D02*
X196211255Y-138937716D01*
X196211255Y-138937716D02*
X195646356Y-139502615D01*
D20*
%TO.N,/L_column7*%
X194667761Y-155280780D02*
X194667761Y-149236424D01*
X194667761Y-149236424D02*
X198826793Y-145077392D01*
X198826793Y-145077392D02*
X198826793Y-137325881D01*
X198826793Y-137325881D02*
X199450625Y-136702049D01*
%TO.N,Net-(D32-A)*%
X191428391Y-154651110D02*
X192016215Y-155238934D01*
X192016215Y-155238934D02*
X192016215Y-158178072D01*
%TO.N,/L_column6*%
X174507272Y-157194130D02*
X174507272Y-152001858D01*
X174507272Y-152001858D02*
X178613916Y-147895214D01*
X178613916Y-147895214D02*
X178613916Y-138687700D01*
D19*
%TO.N,Net-(D30-A)*%
X171267902Y-156564460D02*
X171267902Y-159187272D01*
X171267902Y-159187272D02*
X172248377Y-160167747D01*
D20*
%TO.N,/L_column6*%
X178613916Y-138687700D02*
X178613916Y-132324643D01*
X178613916Y-132324643D02*
X182334691Y-128603868D01*
X182334691Y-128603868D02*
X182334691Y-119545970D01*
D19*
%TO.N,Net-(D29-A)*%
X175374546Y-138058030D02*
X175374546Y-140783142D01*
X175374546Y-140783142D02*
X175911909Y-141320505D01*
D20*
%TO.N,/L_column6*%
X182334691Y-119545970D02*
X182334691Y-113578323D01*
X182334691Y-113578323D02*
X185469248Y-110443766D01*
X185469248Y-110443766D02*
X185469248Y-100799649D01*
D19*
%TO.N,Net-(D28-A)*%
X179095321Y-118916300D02*
X179095321Y-122227629D01*
X179095321Y-122227629D02*
X179537280Y-122669588D01*
%TO.N,Net-(D27-A)*%
X182229878Y-100169979D02*
X182229878Y-103085899D01*
X182229878Y-103085899D02*
X183162651Y-104018672D01*
D20*
%TO.N,/L_column6*%
X189490028Y-82734950D02*
X189490028Y-94964188D01*
X189490028Y-94964188D02*
X185469248Y-98984968D01*
X185469248Y-98984968D02*
X185469248Y-100799649D01*
D19*
%TO.N,Net-(D26-A)*%
X186250658Y-82105280D02*
X186250658Y-84830391D01*
X186250658Y-84830391D02*
X186788022Y-85367755D01*
D20*
%TO.N,/L_column5*%
X171793157Y-74201443D02*
X171793157Y-86430681D01*
X171793157Y-86430681D02*
X168315030Y-89908808D01*
X168315030Y-89908808D02*
X168315030Y-92880981D01*
D19*
%TO.N,Net-(D21-A)*%
X168553787Y-73571773D02*
X168553787Y-76296886D01*
X168553787Y-76296886D02*
X169091150Y-76834249D01*
D20*
%TO.N,/L_column5*%
X168315030Y-92880981D02*
X168315030Y-104934353D01*
X168315030Y-104934353D02*
X164542415Y-108706968D01*
X164542415Y-108706968D02*
X164542415Y-111503276D01*
D19*
%TO.N,Net-(D22-A)*%
X165075660Y-92251311D02*
X165075660Y-95095046D01*
X165075660Y-95095046D02*
X165465779Y-95485165D01*
D20*
%TO.N,/L_column5*%
X164542415Y-111503276D02*
X164542415Y-123732514D01*
X160955206Y-127319723D02*
X160955206Y-129957868D01*
X164542415Y-123732514D02*
X160955206Y-127319723D01*
D19*
%TO.N,Net-(D23-A)*%
X161303045Y-110873606D02*
X161303045Y-113598719D01*
X161303045Y-113598719D02*
X161840408Y-114136082D01*
%TO.N,Net-(D24-A)*%
X157715836Y-129328198D02*
X157715836Y-132287796D01*
X157715836Y-132287796D02*
X158215038Y-132786998D01*
D20*
%TO.N,/L_column5*%
X157291673Y-148805109D02*
X157291673Y-142650293D01*
X157291673Y-142650293D02*
X160955206Y-138986760D01*
X160955206Y-138986760D02*
X160955206Y-129957868D01*
D19*
%TO.N,Net-(D25-A)*%
X154052303Y-148175439D02*
X154052303Y-150900551D01*
X154052303Y-150900551D02*
X154589667Y-151437915D01*
%TO.N,Net-(D20-A)*%
X136355432Y-139641933D02*
X136355432Y-142367045D01*
X136355432Y-142367045D02*
X136892795Y-142904408D01*
D20*
%TO.N,/L_column4*%
X143858230Y-121744712D02*
X143698603Y-121904339D01*
X143698603Y-121904339D02*
X143698603Y-130176397D01*
X143698603Y-130176397D02*
X139594802Y-134280198D01*
X139594802Y-134280198D02*
X139594802Y-140271603D01*
D19*
%TO.N,Net-(D19-A)*%
X140618860Y-121115042D02*
X140618860Y-124152797D01*
X140618860Y-124152797D02*
X140518166Y-124253491D01*
D20*
%TO.N,/L_column4*%
X146845544Y-102969770D02*
X146845544Y-115199007D01*
X146845544Y-115199007D02*
X143858230Y-118186321D01*
X143858230Y-118186321D02*
X143858230Y-121744712D01*
D19*
%TO.N,Net-(D18-A)*%
X143606174Y-102340100D02*
X143606174Y-105065212D01*
X143606174Y-105065212D02*
X144143537Y-105602575D01*
D20*
%TO.N,/L_column4*%
X150470914Y-84318853D02*
X150470914Y-96548091D01*
X150470914Y-96548091D02*
X146845544Y-100173461D01*
X146845544Y-100173461D02*
X146845544Y-102969770D01*
D19*
%TO.N,Net-(D17-A)*%
X147231544Y-83689183D02*
X147231544Y-86414294D01*
X147231544Y-86414294D02*
X147768908Y-86951658D01*
D20*
%TO.N,/L_column4*%
X154096285Y-65667937D02*
X154096285Y-74330427D01*
X154096285Y-74330427D02*
X150470914Y-77955798D01*
X150470914Y-77955798D02*
X150470914Y-84318853D01*
D19*
%TO.N,Net-(D16-A)*%
X150856915Y-65038267D02*
X150856915Y-67763378D01*
X150856915Y-67763378D02*
X151394279Y-68300742D01*
%TO.N,Net-(D11-A)*%
X131251954Y-66321032D02*
X131251954Y-69046144D01*
X131251954Y-69046144D02*
X131789317Y-69583507D01*
D20*
%TO.N,/L_column3*%
X134491324Y-66950702D02*
X134491324Y-79179939D01*
X134491324Y-79179939D02*
X131452171Y-82219092D01*
X131452171Y-82219092D02*
X131452171Y-85206209D01*
X131452171Y-85206209D02*
X129913173Y-86745207D01*
X129913173Y-98661827D02*
X127335987Y-101239013D01*
X129913173Y-86745207D02*
X129913173Y-98661827D01*
X127335987Y-101239013D02*
X127335987Y-103761721D01*
D19*
%TO.N,Net-(D12-A)*%
X128212801Y-84576539D02*
X128212801Y-88185568D01*
X128212801Y-88185568D02*
X128163946Y-88234423D01*
%TO.N,Net-(D13-A)*%
X124096617Y-103132051D02*
X124096617Y-106443381D01*
X124096617Y-106443381D02*
X124538576Y-106885340D01*
D20*
%TO.N,/L_column3*%
X127335987Y-103761721D02*
X127335987Y-112819620D01*
X127335987Y-112819620D02*
X123615211Y-116540396D01*
X123615211Y-116540396D02*
X123615211Y-122903451D01*
D19*
%TO.N,Net-(D14-A)*%
X120375841Y-122273781D02*
X120375841Y-124998892D01*
X120375841Y-124998892D02*
X120913205Y-125536256D01*
D20*
%TO.N,/L_column3*%
X119499027Y-141458963D02*
X119499027Y-136285773D01*
X119499027Y-136285773D02*
X123615211Y-132169589D01*
X123615211Y-132169589D02*
X123615211Y-122903451D01*
D19*
%TO.N,Net-(D15-A)*%
X116259657Y-140829293D02*
X116259657Y-143158996D01*
X116259657Y-143158996D02*
X117287834Y-144187173D01*
D20*
%TO.N,/L_column2*%
X100971097Y-142441724D02*
X100971097Y-135887858D01*
X100971097Y-135887858D02*
X104010250Y-132848705D01*
X104010250Y-132848705D02*
X104010250Y-124186216D01*
D19*
%TO.N,Net-(D10-A)*%
X97731727Y-141812054D02*
X97731727Y-145421083D01*
X97731727Y-145421083D02*
X97682872Y-145469938D01*
%TO.N,Net-(D9-A)*%
X100770880Y-123556546D02*
X100770880Y-126281658D01*
X100770880Y-126281658D02*
X101308243Y-126819021D01*
D20*
%TO.N,/L_column2*%
X107635621Y-105535300D02*
X107635621Y-117550077D01*
X107635621Y-117550077D02*
X104010250Y-121175448D01*
X104010250Y-121175448D02*
X104010250Y-124186216D01*
D19*
%TO.N,Net-(D8-A)*%
X104396251Y-104905630D02*
X104396251Y-107630742D01*
X104396251Y-107630742D02*
X104933614Y-108168105D01*
%TO.N,Net-(D7-A)*%
X108040702Y-86156550D02*
X108040702Y-88998905D01*
X108040702Y-88998905D02*
X108558985Y-89517188D01*
D20*
%TO.N,/L_column2*%
X111280072Y-86786220D02*
X111280072Y-99094540D01*
X111280072Y-99094540D02*
X107635621Y-102738991D01*
X107635621Y-102738991D02*
X107635621Y-105535300D01*
X115377176Y-68328871D02*
X113933583Y-69772464D01*
X113933583Y-69772464D02*
X113933583Y-81291417D01*
X113933583Y-81291417D02*
X111280072Y-83944928D01*
X111280072Y-83944928D02*
X111280072Y-86786220D01*
D19*
%TO.N,Net-(D6-A)*%
X112137806Y-67699201D02*
X112137806Y-70819722D01*
X112137806Y-70819722D02*
X112184356Y-70866272D01*
%TO.N,Net-(D5-A)*%
X78589997Y-138091278D02*
X78589997Y-141402608D01*
X78589997Y-141402608D02*
X79031956Y-141844567D01*
D20*
%TO.N,/L_column1*%
X85945551Y-120165436D02*
X84406554Y-121704433D01*
X84406554Y-121704433D02*
X84406554Y-133618446D01*
X84406554Y-133618446D02*
X81829367Y-136195633D01*
X81829367Y-136195633D02*
X81829367Y-138720948D01*
D19*
%TO.N,Net-(D4-A)*%
X82706181Y-119535766D02*
X82706181Y-123144796D01*
X82706181Y-123144796D02*
X82657327Y-123193650D01*
D20*
%TO.N,/L_column1*%
X89475518Y-102005333D02*
X89463135Y-102017716D01*
X89463135Y-102017716D02*
X89463135Y-110311865D01*
X89463135Y-110311865D02*
X85945551Y-113829449D01*
X85945551Y-113829449D02*
X85945551Y-120165436D01*
D19*
%TO.N,Net-(D3-A)*%
X86236148Y-101375663D02*
X86236148Y-104496184D01*
X86236148Y-104496184D02*
X86282698Y-104542734D01*
D20*
%TO.N,/L_column1*%
X93100889Y-83354417D02*
X91657295Y-84798011D01*
X91657295Y-96317705D02*
X89475518Y-98499482D01*
X91657295Y-84798011D02*
X91657295Y-96317705D01*
X89475518Y-98499482D02*
X89475518Y-102005333D01*
D19*
%TO.N,Net-(D2-A)*%
X89861519Y-82724747D02*
X89861519Y-85845268D01*
X89861519Y-85845268D02*
X89908068Y-85891817D01*
D20*
%TO.N,/L_column1*%
X97165234Y-64279470D02*
X96713876Y-64730828D01*
X96713876Y-64730828D02*
X96713876Y-73336212D01*
X96713876Y-73336212D02*
X93100889Y-76949199D01*
X93100889Y-76949199D02*
X93100889Y-83354417D01*
D19*
%TO.N,Net-(D1-A)*%
X93533439Y-67240901D02*
X93533439Y-64042225D01*
X93533439Y-64042225D02*
X93925864Y-63649800D01*
%TD*%
M02*
