%TF.GenerationSoftware,KiCad,Pcbnew,(5.1.7-0-10_14)*%
%TF.CreationDate,2022-11-13T20:21:01-08:00*%
%TF.ProjectId,swing-atreus-r,7377696e-672d-4617-9472-6575732d722e,rev?*%
%TF.SameCoordinates,Original*%
%TF.FileFunction,Soldermask,Top*%
%TF.FilePolarity,Negative*%
%FSLAX46Y46*%
G04 Gerber Fmt 4.6, Leading zero omitted, Abs format (unit mm)*
G04 Created by KiCad (PCBNEW (5.1.7-0-10_14)) date 2022-11-13 20:21:01*
%MOMM*%
%LPD*%
G01*
G04 APERTURE LIST*
%ADD10C,2.500000*%
%ADD11O,2.000000X1.500000*%
%ADD12C,2.000000*%
%ADD13C,1.900000*%
%ADD14C,3.400000*%
%ADD15R,0.900000X1.200000*%
%ADD16C,1.524000*%
G04 APERTURE END LIST*
D10*
%TO.C,REF\u002A\u002A*%
X110550000Y-64000000D03*
%TD*%
%TO.C,REF\u002A\u002A*%
X56800000Y-73250000D03*
%TD*%
%TO.C,REF\u002A\u002A*%
X93150000Y-82900000D03*
%TD*%
%TO.C,REF\u002A\u002A*%
X40700000Y-128250000D03*
%TD*%
%TO.C,REF\u002A\u002A*%
X108250000Y-124900000D03*
%TD*%
%TO.C,REF\u002A\u002A*%
X164650000Y-128050000D03*
%TD*%
%TO.C,REF\u002A\u002A*%
X149350000Y-89550000D03*
%TD*%
%TO.C,REF\u002A\u002A*%
X129650000Y-34750000D03*
%TD*%
%TO.C,REF\u002A\u002A*%
X83350000Y-25350000D03*
%TD*%
%TO.C,REF\u002A\u002A*%
X41550000Y-31100000D03*
%TD*%
%TO.C,REF\u002A\u002A*%
X47500000Y-25000000D03*
%TD*%
D11*
%TO.C,U1*%
X164650000Y-41030000D03*
X149150000Y-41030000D03*
X164650000Y-43570000D03*
X149150000Y-43570000D03*
X164650000Y-46110000D03*
X149150000Y-46110000D03*
X164650000Y-48650000D03*
X149150000Y-48650000D03*
X164650000Y-51190000D03*
X149150000Y-51190000D03*
X164650000Y-53730000D03*
X149150000Y-53730000D03*
X164650000Y-56270000D03*
X149150000Y-56270000D03*
X164650000Y-58810000D03*
X149150000Y-58810000D03*
X164650000Y-61350000D03*
X149150000Y-61350000D03*
X164650000Y-63890000D03*
X149150000Y-63890000D03*
X164650000Y-66430000D03*
X149150000Y-66430000D03*
X164650000Y-68970000D03*
X149150000Y-68970000D03*
%TD*%
D12*
%TO.C,SW4*%
X42850000Y-60100000D03*
X52750000Y-60100000D03*
X47800000Y-58000000D03*
D13*
X42300000Y-63900000D03*
X53300000Y-63900000D03*
D14*
X47800000Y-63900000D03*
%TD*%
D15*
%TO.C,D1*%
X50800000Y-35400000D03*
X47500000Y-35400000D03*
%TD*%
%TO.C,D2*%
X50450000Y-54900000D03*
X47150000Y-54900000D03*
%TD*%
%TO.C,D3*%
X50450000Y-73900000D03*
X47150000Y-73900000D03*
%TD*%
%TO.C,D4*%
X47150000Y-92400000D03*
X50450000Y-92400000D03*
%TD*%
%TO.C,D5*%
X46650000Y-111400000D03*
X49950000Y-111400000D03*
%TD*%
%TO.C,D6*%
X68450000Y-35900000D03*
X65150000Y-35900000D03*
%TD*%
%TO.C,D7*%
X67950000Y-54800000D03*
X64650000Y-54800000D03*
%TD*%
%TO.C,D8*%
X67950000Y-73900000D03*
X64650000Y-73900000D03*
%TD*%
%TO.C,D9*%
X64650000Y-92900000D03*
X67950000Y-92900000D03*
%TD*%
%TO.C,D10*%
X65150000Y-111400000D03*
X68450000Y-111400000D03*
%TD*%
%TO.C,D11*%
X85950000Y-30900000D03*
X82650000Y-30900000D03*
%TD*%
%TO.C,D12*%
X86450000Y-49400000D03*
X83150000Y-49400000D03*
%TD*%
%TO.C,D13*%
X85950000Y-68400000D03*
X82650000Y-68400000D03*
%TD*%
%TO.C,D14*%
X82650000Y-87900000D03*
X85950000Y-87900000D03*
%TD*%
%TO.C,D15*%
X82150000Y-106900000D03*
X85450000Y-106900000D03*
%TD*%
%TO.C,D16*%
X103950000Y-25900000D03*
X100650000Y-25900000D03*
%TD*%
%TO.C,D17*%
X103950000Y-44900000D03*
X100650000Y-44900000D03*
%TD*%
%TO.C,D18*%
X100650000Y-63900000D03*
X103950000Y-63900000D03*
%TD*%
%TO.C,D19*%
X101300000Y-82900000D03*
X104600000Y-82900000D03*
%TD*%
%TO.C,D20*%
X100650000Y-101900000D03*
X103950000Y-101900000D03*
%TD*%
%TO.C,D21*%
X121950000Y-30900000D03*
X118650000Y-30900000D03*
%TD*%
%TO.C,D22*%
X122100000Y-49900000D03*
X118800000Y-49900000D03*
%TD*%
%TO.C,D23*%
X121950000Y-68900000D03*
X118650000Y-68900000D03*
%TD*%
%TO.C,D24*%
X118650000Y-87700000D03*
X121950000Y-87700000D03*
%TD*%
%TO.C,D25*%
X118650000Y-106900000D03*
X121950000Y-106900000D03*
%TD*%
%TO.C,D26*%
X139950000Y-35900000D03*
X136650000Y-35900000D03*
%TD*%
%TO.C,D27*%
X139450000Y-54400000D03*
X136150000Y-54400000D03*
%TD*%
%TO.C,D28*%
X136650000Y-73400000D03*
X139950000Y-73400000D03*
%TD*%
%TO.C,D29*%
X136650000Y-92900000D03*
X139950000Y-92900000D03*
%TD*%
%TO.C,D30*%
X136150000Y-111650000D03*
X139450000Y-111650000D03*
%TD*%
%TO.C,D31*%
X155650000Y-92650000D03*
X158950000Y-92650000D03*
%TD*%
%TO.C,D32*%
X155900000Y-111650000D03*
X159200000Y-111650000D03*
%TD*%
D16*
%TO.C,SW1*%
X68786000Y-30456000D03*
X66246000Y-30456000D03*
X63706000Y-30456000D03*
%TD*%
D14*
%TO.C,SW3*%
X47800000Y-44900000D03*
D13*
X53300000Y-44900000D03*
X42300000Y-44900000D03*
D12*
X47800000Y-39000000D03*
X52750000Y-41100000D03*
X42850000Y-41100000D03*
%TD*%
%TO.C,SW5*%
X42850000Y-79100000D03*
X52750000Y-79100000D03*
X47800000Y-77000000D03*
D13*
X42300000Y-82900000D03*
X53300000Y-82900000D03*
D14*
X47800000Y-82900000D03*
%TD*%
%TO.C,SW6*%
X47800000Y-101900000D03*
D13*
X53300000Y-101900000D03*
X42300000Y-101900000D03*
D12*
X47800000Y-96000000D03*
X52750000Y-98100000D03*
X42850000Y-98100000D03*
%TD*%
D14*
%TO.C,SW7*%
X47800000Y-120900000D03*
D13*
X53300000Y-120900000D03*
X42300000Y-120900000D03*
D12*
X47800000Y-115000000D03*
X52750000Y-117100000D03*
X42850000Y-117100000D03*
%TD*%
%TO.C,SW8*%
X60850000Y-41100000D03*
X70750000Y-41100000D03*
X65800000Y-39000000D03*
D13*
X60300000Y-44900000D03*
X71300000Y-44900000D03*
D14*
X65800000Y-44900000D03*
%TD*%
D12*
%TO.C,SW9*%
X60850000Y-60100000D03*
X70750000Y-60100000D03*
X65800000Y-58000000D03*
D13*
X60300000Y-63900000D03*
X71300000Y-63900000D03*
D14*
X65800000Y-63900000D03*
%TD*%
D12*
%TO.C,SW10*%
X60850000Y-79100000D03*
X70750000Y-79100000D03*
X65800000Y-77000000D03*
D13*
X60300000Y-82900000D03*
X71300000Y-82900000D03*
D14*
X65800000Y-82900000D03*
%TD*%
%TO.C,SW11*%
X65800000Y-101900000D03*
D13*
X71300000Y-101900000D03*
X60300000Y-101900000D03*
D12*
X65800000Y-96000000D03*
X70750000Y-98100000D03*
X60850000Y-98100000D03*
%TD*%
D14*
%TO.C,SW12*%
X65800000Y-120900000D03*
D13*
X71300000Y-120900000D03*
X60300000Y-120900000D03*
D12*
X65800000Y-115000000D03*
X70750000Y-117100000D03*
X60850000Y-117100000D03*
%TD*%
%TO.C,SW13*%
X78850000Y-36100000D03*
X88750000Y-36100000D03*
X83800000Y-34000000D03*
D13*
X78300000Y-39900000D03*
X89300000Y-39900000D03*
D14*
X83800000Y-39900000D03*
%TD*%
D12*
%TO.C,SW14*%
X78850000Y-55100000D03*
X88750000Y-55100000D03*
X83800000Y-53000000D03*
D13*
X78300000Y-58900000D03*
X89300000Y-58900000D03*
D14*
X83800000Y-58900000D03*
%TD*%
D12*
%TO.C,SW15*%
X78850000Y-74100000D03*
X88750000Y-74100000D03*
X83800000Y-72000000D03*
D13*
X78300000Y-77900000D03*
X89300000Y-77900000D03*
D14*
X83800000Y-77900000D03*
%TD*%
%TO.C,SW16*%
X83800000Y-96900000D03*
D13*
X89300000Y-96900000D03*
X78300000Y-96900000D03*
D12*
X83800000Y-91000000D03*
X88750000Y-93100000D03*
X78850000Y-93100000D03*
%TD*%
D14*
%TO.C,SW17*%
X83800000Y-115900000D03*
D13*
X89300000Y-115900000D03*
X78300000Y-115900000D03*
D12*
X83800000Y-110000000D03*
X88750000Y-112100000D03*
X78850000Y-112100000D03*
%TD*%
%TO.C,SW18*%
X96850000Y-31100000D03*
X106750000Y-31100000D03*
X101800000Y-29000000D03*
D13*
X96300000Y-34900000D03*
X107300000Y-34900000D03*
D14*
X101800000Y-34900000D03*
%TD*%
D12*
%TO.C,SW19*%
X96850000Y-50100000D03*
X106750000Y-50100000D03*
X101800000Y-48000000D03*
D13*
X96300000Y-53900000D03*
X107300000Y-53900000D03*
D14*
X101800000Y-53900000D03*
%TD*%
D12*
%TO.C,SW20*%
X96850000Y-69100000D03*
X106750000Y-69100000D03*
X101800000Y-67000000D03*
D13*
X96300000Y-72900000D03*
X107300000Y-72900000D03*
D14*
X101800000Y-72900000D03*
%TD*%
%TO.C,SW21*%
X101800000Y-91900000D03*
D13*
X107300000Y-91900000D03*
X96300000Y-91900000D03*
D12*
X101800000Y-86000000D03*
X106750000Y-88100000D03*
X96850000Y-88100000D03*
%TD*%
D14*
%TO.C,SW22*%
X101800000Y-110900000D03*
D13*
X107300000Y-110900000D03*
X96300000Y-110900000D03*
D12*
X101800000Y-105000000D03*
X106750000Y-107100000D03*
X96850000Y-107100000D03*
%TD*%
%TO.C,SW23*%
X114850000Y-36100000D03*
X124750000Y-36100000D03*
X119800000Y-34000000D03*
D13*
X114300000Y-39900000D03*
X125300000Y-39900000D03*
D14*
X119800000Y-39900000D03*
%TD*%
D12*
%TO.C,SW24*%
X114850000Y-55100000D03*
X124750000Y-55100000D03*
X119800000Y-53000000D03*
D13*
X114300000Y-58900000D03*
X125300000Y-58900000D03*
D14*
X119800000Y-58900000D03*
%TD*%
D12*
%TO.C,SW25*%
X114850000Y-74100000D03*
X124750000Y-74100000D03*
X119800000Y-72000000D03*
D13*
X114300000Y-77900000D03*
X125300000Y-77900000D03*
D14*
X119800000Y-77900000D03*
%TD*%
%TO.C,SW26*%
X119800000Y-96900000D03*
D13*
X125300000Y-96900000D03*
X114300000Y-96900000D03*
D12*
X119800000Y-91000000D03*
X124750000Y-93100000D03*
X114850000Y-93100000D03*
%TD*%
D14*
%TO.C,SW27*%
X119800000Y-115900000D03*
D13*
X125300000Y-115900000D03*
X114300000Y-115900000D03*
D12*
X119800000Y-110000000D03*
X124750000Y-112100000D03*
X114850000Y-112100000D03*
%TD*%
%TO.C,SW28*%
X132850000Y-41100000D03*
X142750000Y-41100000D03*
X137800000Y-39000000D03*
D13*
X132300000Y-44900000D03*
X143300000Y-44900000D03*
D14*
X137800000Y-44900000D03*
%TD*%
D12*
%TO.C,SW29*%
X132850000Y-60100000D03*
X142750000Y-60100000D03*
X137800000Y-58000000D03*
D13*
X132300000Y-63900000D03*
X143300000Y-63900000D03*
D14*
X137800000Y-63900000D03*
%TD*%
%TO.C,SW30*%
X137800000Y-82900000D03*
D13*
X143300000Y-82900000D03*
X132300000Y-82900000D03*
D12*
X137800000Y-77000000D03*
X142750000Y-79100000D03*
X132850000Y-79100000D03*
%TD*%
D14*
%TO.C,SW31*%
X137800000Y-101900000D03*
D13*
X143300000Y-101900000D03*
X132300000Y-101900000D03*
D12*
X137800000Y-96000000D03*
X142750000Y-98100000D03*
X132850000Y-98100000D03*
%TD*%
D14*
%TO.C,SW32*%
X137800000Y-120900000D03*
D13*
X143300000Y-120900000D03*
X132300000Y-120900000D03*
D12*
X137800000Y-115000000D03*
X142750000Y-117100000D03*
X132850000Y-117100000D03*
%TD*%
D14*
%TO.C,SW33*%
X156800000Y-101900000D03*
D13*
X162300000Y-101900000D03*
X151300000Y-101900000D03*
D12*
X156800000Y-96000000D03*
X161750000Y-98100000D03*
X151850000Y-98100000D03*
%TD*%
D14*
%TO.C,SW34*%
X156800000Y-120900000D03*
D13*
X162300000Y-120900000D03*
X151300000Y-120900000D03*
D12*
X156800000Y-115000000D03*
X161750000Y-117100000D03*
X151850000Y-117100000D03*
%TD*%
%TO.C,J1*%
G36*
G01*
X159450000Y-75250000D02*
X156550000Y-75250000D01*
G75*
G02*
X156300000Y-75000000I0J250000D01*
G01*
X156300000Y-74000000D01*
G75*
G02*
X156550000Y-73750000I250000J0D01*
G01*
X159450000Y-73750000D01*
G75*
G02*
X159700000Y-74000000I0J-250000D01*
G01*
X159700000Y-75000000D01*
G75*
G02*
X159450000Y-75250000I-250000J0D01*
G01*
G37*
G36*
G01*
X159450000Y-81950000D02*
X156550000Y-81950000D01*
G75*
G02*
X156300000Y-81700000I0J250000D01*
G01*
X156300000Y-80700000D01*
G75*
G02*
X156550000Y-80450000I250000J0D01*
G01*
X159450000Y-80450000D01*
G75*
G02*
X159700000Y-80700000I0J-250000D01*
G01*
X159700000Y-81700000D01*
G75*
G02*
X159450000Y-81950000I-250000J0D01*
G01*
G37*
G36*
G01*
X153750000Y-77350000D02*
X150750000Y-77350000D01*
G75*
G02*
X150500000Y-77100000I0J250000D01*
G01*
X150500000Y-76600000D01*
G75*
G02*
X150750000Y-76350000I250000J0D01*
G01*
X153750000Y-76350000D01*
G75*
G02*
X154000000Y-76600000I0J-250000D01*
G01*
X154000000Y-77100000D01*
G75*
G02*
X153750000Y-77350000I-250000J0D01*
G01*
G37*
G36*
G01*
X153750000Y-79350000D02*
X150750000Y-79350000D01*
G75*
G02*
X150500000Y-79100000I0J250000D01*
G01*
X150500000Y-78600000D01*
G75*
G02*
X150750000Y-78350000I250000J0D01*
G01*
X153750000Y-78350000D01*
G75*
G02*
X154000000Y-78600000I0J-250000D01*
G01*
X154000000Y-79100000D01*
G75*
G02*
X153750000Y-79350000I-250000J0D01*
G01*
G37*
%TD*%
M02*
