%TF.GenerationSoftware,KiCad,Pcbnew,(5.1.7-0-10_14)*%
%TF.CreationDate,2022-11-13T20:21:01-08:00*%
%TF.ProjectId,swing-atreus-r,7377696e-672d-4617-9472-6575732d722e,rev?*%
%TF.SameCoordinates,Original*%
%TF.FileFunction,Legend,Bot*%
%TF.FilePolarity,Positive*%
%FSLAX46Y46*%
G04 Gerber Fmt 4.6, Leading zero omitted, Abs format (unit mm)*
G04 Created by KiCad (PCBNEW (5.1.7-0-10_14)) date 2022-11-13 20:21:01*
%MOMM*%
%LPD*%
G01*
G04 APERTURE LIST*
%ADD10C,0.120000*%
%ADD11C,0.150000*%
G04 APERTURE END LIST*
D10*
%TO.C,REF\u002A\u002A*%
X155280000Y-40750000D02*
X155580000Y-40450000D01*
X154980000Y-40450000D02*
X155580000Y-40450000D01*
X155280000Y-40750000D02*
X154980000Y-40450000D01*
X154530000Y-40950000D02*
X154530000Y-42950000D01*
X158630000Y-40950000D02*
X154530000Y-40950000D01*
X158630000Y-42950000D02*
X158630000Y-40950000D01*
X154530000Y-42950000D02*
X158630000Y-42950000D01*
X155200000Y-46170000D02*
X155500000Y-45870000D01*
X154900000Y-45870000D02*
X155500000Y-45870000D01*
X155200000Y-46170000D02*
X154900000Y-45870000D01*
X154450000Y-46370000D02*
X154450000Y-48370000D01*
X158550000Y-46370000D02*
X154450000Y-46370000D01*
X158550000Y-48370000D02*
X158550000Y-46370000D01*
X154450000Y-48370000D02*
X158550000Y-48370000D01*
D11*
X157913333Y-44202380D02*
X158246666Y-43726190D01*
X158484761Y-44202380D02*
X158484761Y-43202380D01*
X158103809Y-43202380D01*
X158008571Y-43250000D01*
X157960952Y-43297619D01*
X157913333Y-43392857D01*
X157913333Y-43535714D01*
X157960952Y-43630952D01*
X158008571Y-43678571D01*
X158103809Y-43726190D01*
X158484761Y-43726190D01*
X157484761Y-43678571D02*
X157151428Y-43678571D01*
X157008571Y-44202380D02*
X157484761Y-44202380D01*
X157484761Y-43202380D01*
X157008571Y-43202380D01*
X156246666Y-43678571D02*
X156580000Y-43678571D01*
X156580000Y-44202380D02*
X156580000Y-43202380D01*
X156103809Y-43202380D01*
X155580000Y-43202380D02*
X155580000Y-43440476D01*
X155818095Y-43345238D02*
X155580000Y-43440476D01*
X155341904Y-43345238D01*
X155722857Y-43630952D02*
X155580000Y-43440476D01*
X155437142Y-43630952D01*
X154818095Y-43202380D02*
X154818095Y-43440476D01*
X155056190Y-43345238D02*
X154818095Y-43440476D01*
X154580000Y-43345238D01*
X154960952Y-43630952D02*
X154818095Y-43440476D01*
X154675238Y-43630952D01*
X157833333Y-49622380D02*
X158166666Y-49146190D01*
X158404761Y-49622380D02*
X158404761Y-48622380D01*
X158023809Y-48622380D01*
X157928571Y-48670000D01*
X157880952Y-48717619D01*
X157833333Y-48812857D01*
X157833333Y-48955714D01*
X157880952Y-49050952D01*
X157928571Y-49098571D01*
X158023809Y-49146190D01*
X158404761Y-49146190D01*
X157404761Y-49098571D02*
X157071428Y-49098571D01*
X156928571Y-49622380D02*
X157404761Y-49622380D01*
X157404761Y-48622380D01*
X156928571Y-48622380D01*
X156166666Y-49098571D02*
X156500000Y-49098571D01*
X156500000Y-49622380D02*
X156500000Y-48622380D01*
X156023809Y-48622380D01*
X155500000Y-48622380D02*
X155500000Y-48860476D01*
X155738095Y-48765238D02*
X155500000Y-48860476D01*
X155261904Y-48765238D01*
X155642857Y-49050952D02*
X155500000Y-48860476D01*
X155357142Y-49050952D01*
X154738095Y-48622380D02*
X154738095Y-48860476D01*
X154976190Y-48765238D02*
X154738095Y-48860476D01*
X154500000Y-48765238D01*
X154880952Y-49050952D02*
X154738095Y-48860476D01*
X154595238Y-49050952D01*
%TD*%
M02*
