%TF.GenerationSoftware,KiCad,Pcbnew,7.0.1-0*%
%TF.CreationDate,2024-04-27T23:40:22-07:00*%
%TF.ProjectId,swing-atreus,7377696e-672d-4617-9472-6575732e6b69,rev?*%
%TF.SameCoordinates,Original*%
%TF.FileFunction,Soldermask,Bot*%
%TF.FilePolarity,Negative*%
%FSLAX46Y46*%
G04 Gerber Fmt 4.6, Leading zero omitted, Abs format (unit mm)*
G04 Created by KiCad (PCBNEW 7.0.1-0) date 2024-04-27 23:40:22*
%MOMM*%
%LPD*%
G01*
G04 APERTURE LIST*
%ADD10C,2.200000*%
%ADD11C,1.900000*%
%ADD12C,2.600000*%
%ADD13C,5.050000*%
%ADD14C,1.524000*%
%ADD15O,2.000000X1.500000*%
G04 APERTURE END LIST*
D10*
%TO.C,SW54*%
X315496195Y-72062533D03*
X320805030Y-73169905D03*
X311086921Y-75058914D03*
D11*
X322020918Y-76804684D03*
D12*
X322503230Y-81906387D03*
D13*
X316621968Y-77854133D03*
D12*
X312696498Y-83863558D03*
D11*
X311223018Y-78903582D03*
%TD*%
D10*
%TO.C,SW2*%
X240765745Y-86435853D03*
X246074580Y-87543225D03*
X236356471Y-89432234D03*
D11*
X247290468Y-91178004D03*
D12*
X247772780Y-96279707D03*
D13*
X241891518Y-92227453D03*
D12*
X237966048Y-98236878D03*
D11*
X236492568Y-93276902D03*
%TD*%
D10*
%TO.C,SW35*%
X244415657Y-105081999D03*
X249724492Y-106189371D03*
X240006383Y-108078380D03*
D11*
X250940380Y-109824150D03*
D12*
X251422692Y-114925853D03*
D13*
X245541430Y-110873599D03*
D12*
X241615960Y-116883024D03*
D11*
X240142480Y-111923048D03*
%TD*%
D10*
%TO.C,SW36*%
X247967405Y-123747227D03*
X253276240Y-124854599D03*
X243558131Y-126743608D03*
D11*
X254492128Y-128489378D03*
D12*
X254974440Y-133591081D03*
D13*
X249093178Y-129538827D03*
D12*
X245167708Y-135548252D03*
D11*
X243694228Y-130588276D03*
%TD*%
D10*
%TO.C,SW37*%
X251548465Y-142432224D03*
X256857300Y-143539596D03*
X247139191Y-145428605D03*
D11*
X258073188Y-147174375D03*
D12*
X258555500Y-152276078D03*
D13*
X252674238Y-148223824D03*
D12*
X248748768Y-154233249D03*
D11*
X247275288Y-149273273D03*
%TD*%
%TO.C,SW39*%
X254233751Y-84709314D03*
D12*
X255707231Y-89669290D03*
D13*
X259632701Y-83659865D03*
D12*
X265513963Y-87712119D03*
D11*
X265031651Y-82610416D03*
D10*
X254097654Y-80864646D03*
X263815763Y-78975637D03*
X258506928Y-77868265D03*
%TD*%
D11*
%TO.C,SW40*%
X257893892Y-103277068D03*
D12*
X259367372Y-108237044D03*
D13*
X263292842Y-102227619D03*
D12*
X269174104Y-106279873D03*
D11*
X268691792Y-101178170D03*
D10*
X257757795Y-99432400D03*
X267475904Y-97543391D03*
X262167069Y-96436019D03*
%TD*%
D11*
%TO.C,SW41*%
X261450411Y-121966836D03*
D12*
X262923891Y-126926812D03*
D13*
X266849361Y-120917387D03*
D12*
X272730623Y-124969641D03*
D11*
X272248311Y-119867938D03*
D10*
X261314314Y-118122168D03*
X271032423Y-116233159D03*
X265723588Y-115125787D03*
%TD*%
%TO.C,SW38*%
X255129525Y-161117222D03*
X260438360Y-162224594D03*
X250720251Y-164113603D03*
D11*
X261654248Y-165859373D03*
D12*
X262136560Y-170961076D03*
D13*
X256255298Y-166908822D03*
D12*
X252329828Y-172918247D03*
D11*
X250856348Y-167958271D03*
%TD*%
%TO.C,SW42*%
X265099633Y-140740456D03*
D12*
X266573113Y-145700432D03*
D13*
X270498583Y-139691007D03*
D12*
X276379845Y-143743261D03*
D11*
X275897533Y-138641558D03*
D10*
X264963536Y-136895788D03*
X274681645Y-135006779D03*
X269372810Y-133899407D03*
%TD*%
D11*
%TO.C,SW43*%
X268755005Y-159283669D03*
D12*
X270228485Y-164243645D03*
D13*
X274153955Y-158234220D03*
D12*
X280035217Y-162286474D03*
D11*
X279552905Y-157184771D03*
D10*
X268618908Y-155439001D03*
X278337017Y-153549992D03*
X273028182Y-152442620D03*
%TD*%
%TO.C,SW44*%
X276267191Y-69398840D03*
X281576026Y-70506212D03*
X271857917Y-72395221D03*
D11*
X282791914Y-74140991D03*
D12*
X283274226Y-79242694D03*
D13*
X277392964Y-75190440D03*
D12*
X273467494Y-81199865D03*
D11*
X271994014Y-76239889D03*
%TD*%
D10*
%TO.C,SW45*%
X279955954Y-88113838D03*
X285264789Y-89221210D03*
X275546680Y-91110219D03*
D11*
X286480677Y-92855989D03*
D12*
X286962989Y-97957692D03*
D13*
X281081727Y-93905438D03*
D12*
X277156257Y-99914863D03*
D11*
X275682777Y-94954887D03*
%TD*%
D10*
%TO.C,SW47*%
X287208708Y-125950106D03*
X292517543Y-127057478D03*
X282799434Y-128946487D03*
D11*
X293733431Y-130692257D03*
D12*
X294215743Y-135793960D03*
D13*
X288334481Y-131741706D03*
D12*
X284409011Y-137751131D03*
D11*
X282935531Y-132791155D03*
%TD*%
%TO.C,SW48*%
X286708779Y-152202833D03*
D12*
X288182259Y-157162809D03*
D13*
X292107729Y-151153384D03*
D12*
X297988991Y-155205638D03*
D11*
X297506679Y-150103935D03*
D10*
X286572682Y-148358165D03*
X296290791Y-146469156D03*
X290981956Y-145361784D03*
%TD*%
%TO.C,SW49*%
X295798531Y-70695916D03*
X301107366Y-71803288D03*
X291389257Y-73692297D03*
D11*
X302323254Y-75438067D03*
D12*
X302805566Y-80539770D03*
D13*
X296924304Y-76487516D03*
D12*
X292998834Y-82496941D03*
D11*
X291525354Y-77536965D03*
%TD*%
D10*
%TO.C,SW46*%
X283468162Y-106837687D03*
X288776997Y-107945059D03*
X279058888Y-109834068D03*
D11*
X289992885Y-111579838D03*
D12*
X290475197Y-116681541D03*
D13*
X284593935Y-112629287D03*
D12*
X280668465Y-118638712D03*
D11*
X279194985Y-113678736D03*
%TD*%
D10*
%TO.C,SW50*%
X299624308Y-89460685D03*
X304933143Y-90568057D03*
X295215034Y-92457066D03*
D11*
X306149031Y-94202836D03*
D12*
X306631343Y-99304539D03*
D13*
X300750081Y-95252285D03*
D12*
X296824611Y-101261710D03*
D11*
X295351131Y-96301734D03*
%TD*%
D10*
%TO.C,SW51*%
X303139907Y-108464022D03*
X308448742Y-109571394D03*
X298730633Y-111460403D03*
D11*
X309664630Y-113206173D03*
D12*
X310146942Y-118307876D03*
D13*
X304265680Y-114255622D03*
D12*
X300340210Y-120265047D03*
D11*
X298866730Y-115305071D03*
%TD*%
D10*
%TO.C,SW52*%
X306551250Y-126799990D03*
X311860085Y-127907362D03*
X302141976Y-129796371D03*
D11*
X313075973Y-131542141D03*
D12*
X313558285Y-136643844D03*
D13*
X307677023Y-132591590D03*
D12*
X303751553Y-138601015D03*
D11*
X302278073Y-133641039D03*
%TD*%
D10*
%TO.C,SW53*%
X310642894Y-145360272D03*
X315951729Y-146467644D03*
X306233620Y-148356653D03*
D11*
X317167617Y-150102423D03*
D12*
X317649929Y-155204126D03*
D13*
X311768667Y-151151872D03*
D12*
X307843197Y-157161297D03*
D11*
X306369717Y-152201321D03*
%TD*%
D10*
%TO.C,SW55*%
X319121566Y-90713449D03*
X324430401Y-91820821D03*
X314712292Y-93709830D03*
D11*
X325646289Y-95455600D03*
D12*
X326128601Y-100557303D03*
D13*
X320247339Y-96505049D03*
D12*
X316321869Y-102514474D03*
D11*
X314848389Y-97554498D03*
%TD*%
D10*
%TO.C,SW56*%
X322834870Y-109423677D03*
X328143705Y-110531049D03*
X318425596Y-112420058D03*
D11*
X329359593Y-114165828D03*
D12*
X329841905Y-119267531D03*
D13*
X323960643Y-115215277D03*
D12*
X320035173Y-121224702D03*
D11*
X318561693Y-116264726D03*
%TD*%
D10*
%TO.C,SW57*%
X326533862Y-128060283D03*
X331842697Y-129167655D03*
X322124588Y-131056664D03*
D11*
X333058585Y-132802434D03*
D12*
X333540897Y-137904137D03*
D13*
X327659635Y-133851883D03*
D12*
X323734165Y-139861308D03*
D11*
X322260685Y-134901332D03*
%TD*%
D10*
%TO.C,SW58*%
X330085611Y-146725510D03*
X335394446Y-147832882D03*
X325676337Y-149721891D03*
D11*
X336610334Y-151467661D03*
D12*
X337092646Y-156569364D03*
D13*
X331211384Y-152517110D03*
D12*
X327285914Y-158526535D03*
D11*
X325812434Y-153566559D03*
%TD*%
D10*
%TO.C,SW59*%
X334269815Y-68413311D03*
X339578650Y-69520683D03*
X329860541Y-71409692D03*
D11*
X340794538Y-73155462D03*
D12*
X341276850Y-78257165D03*
D13*
X335395588Y-74204911D03*
D12*
X331470118Y-80214336D03*
D11*
X329996638Y-75254360D03*
%TD*%
D10*
%TO.C,SW60*%
X337880186Y-87118079D03*
X343189021Y-88225451D03*
X333470912Y-90114460D03*
D11*
X344404909Y-91860230D03*
D12*
X344887221Y-96961933D03*
D13*
X339005959Y-92909679D03*
D12*
X335080489Y-98919104D03*
D11*
X333607009Y-93959128D03*
%TD*%
D10*
%TO.C,SW61*%
X341487855Y-105415885D03*
X346796690Y-106523257D03*
X337078581Y-108412266D03*
D11*
X348012578Y-110158036D03*
D12*
X348494890Y-115259739D03*
D13*
X342613628Y-111207485D03*
D12*
X338688158Y-117216910D03*
D11*
X337214678Y-112256934D03*
%TD*%
D10*
%TO.C,SW63*%
X348795839Y-143012206D03*
X354104674Y-144119578D03*
X344386565Y-146008587D03*
D11*
X355320562Y-147754357D03*
D12*
X355802874Y-152856060D03*
D13*
X349921612Y-148803806D03*
D12*
X345996142Y-154813231D03*
D11*
X344522662Y-149853255D03*
%TD*%
D10*
%TO.C,SW64*%
X230927219Y-139589719D03*
X236236054Y-140697091D03*
X226517945Y-142586100D03*
D11*
X237451942Y-144331870D03*
D12*
X237934254Y-149433573D03*
D13*
X232052992Y-145381319D03*
D12*
X228127522Y-151390744D03*
D11*
X226654042Y-146430768D03*
%TD*%
D10*
%TO.C,SW65*%
X234538279Y-158167013D03*
X239847114Y-159274385D03*
X230129005Y-161163394D03*
D11*
X241063002Y-162909164D03*
D12*
X241545314Y-168010867D03*
D13*
X235664052Y-163958613D03*
D12*
X231738582Y-169968038D03*
D11*
X230265102Y-165008062D03*
%TD*%
D10*
%TO.C,SW62*%
X345203860Y-124533075D03*
X350512695Y-125640447D03*
X340794586Y-127529456D03*
D11*
X351728583Y-129275226D03*
D12*
X352210895Y-134376929D03*
D13*
X346329633Y-130324675D03*
D12*
X342404163Y-136334100D03*
D11*
X340930683Y-131374124D03*
%TD*%
D14*
%TO.C,SW1*%
X236915000Y-65602500D03*
X234375000Y-65602500D03*
X231835000Y-65602500D03*
%TD*%
D11*
%TO.C,SW3*%
X87008716Y-71983052D03*
D12*
X86516864Y-77133836D03*
D13*
X92407666Y-73032501D03*
D12*
X96342676Y-78992845D03*
D11*
X97806616Y-74081950D03*
D10*
X88322767Y-68367354D03*
X98040876Y-70256363D03*
X93533439Y-67240901D03*
%TD*%
D11*
%TO.C,SW4*%
X83383345Y-90633968D03*
D12*
X82891493Y-95784752D03*
D13*
X88782295Y-91683417D03*
D12*
X92717305Y-97643761D03*
D11*
X94181245Y-92732866D03*
D10*
X84697396Y-87018270D03*
X94415505Y-88907279D03*
X89908068Y-85891817D03*
%TD*%
D11*
%TO.C,SW5*%
X79757975Y-109284885D03*
D12*
X79266123Y-114435669D03*
D13*
X85156925Y-110334334D03*
D12*
X89091935Y-116294678D03*
D11*
X90555875Y-111383783D03*
D10*
X81072026Y-105669187D03*
X90790135Y-107558196D03*
X86282698Y-104542734D03*
%TD*%
D11*
%TO.C,SW6*%
X76132604Y-127935801D03*
D12*
X75640752Y-133086585D03*
D13*
X81531554Y-128985250D03*
D12*
X85466564Y-134945594D03*
D11*
X86930504Y-130034699D03*
D10*
X77446655Y-124320103D03*
X87164764Y-126209112D03*
X82657327Y-123193650D03*
%TD*%
D11*
%TO.C,SW7*%
X72507233Y-146586718D03*
D12*
X72015381Y-151737502D03*
D13*
X77906183Y-147636167D03*
D12*
X81841193Y-153596511D03*
D11*
X83305133Y-148685616D03*
D10*
X73821284Y-142971020D03*
X83539393Y-144860029D03*
X79031956Y-141844567D03*
%TD*%
D11*
%TO.C,SW8*%
X105659633Y-75608423D03*
D12*
X105167781Y-80759207D03*
D13*
X111058583Y-76657872D03*
D12*
X114993593Y-82618216D03*
D11*
X116457533Y-77707321D03*
D10*
X106973684Y-71992725D03*
X116691793Y-73881734D03*
X112184356Y-70866272D03*
%TD*%
D11*
%TO.C,SW9*%
X102034262Y-94259339D03*
D12*
X101542410Y-99410123D03*
D13*
X107433212Y-95308788D03*
D12*
X111368222Y-101269132D03*
D11*
X112832162Y-96358237D03*
D10*
X103348313Y-90643641D03*
X113066422Y-92532650D03*
X108558985Y-89517188D03*
%TD*%
D11*
%TO.C,SW10*%
X98408891Y-112910256D03*
D12*
X97917039Y-118061040D03*
D13*
X103807841Y-113959705D03*
D12*
X107742851Y-119920049D03*
D11*
X109206791Y-115009154D03*
D10*
X99722942Y-109294558D03*
X109441051Y-111183567D03*
X104933614Y-108168105D03*
%TD*%
D11*
%TO.C,SW11*%
X94783520Y-131561172D03*
D12*
X94291668Y-136711956D03*
D13*
X100182470Y-132610621D03*
D12*
X104117480Y-138570965D03*
D11*
X105581420Y-133660070D03*
D10*
X96097571Y-127945474D03*
X105815680Y-129834483D03*
X101308243Y-126819021D03*
%TD*%
D11*
%TO.C,SW12*%
X91158149Y-150212089D03*
D12*
X90666297Y-155362873D03*
D13*
X96557099Y-151261538D03*
D12*
X100492109Y-157221882D03*
D11*
X101956049Y-152310987D03*
D10*
X92472200Y-146596391D03*
X102190309Y-148485400D03*
X97682872Y-145469938D03*
%TD*%
D11*
%TO.C,SW13*%
X125264594Y-74325658D03*
D12*
X124772742Y-79476442D03*
D13*
X130663544Y-75375107D03*
D12*
X134598554Y-81335451D03*
D11*
X136062494Y-76424556D03*
D10*
X126578645Y-70709960D03*
X136296754Y-72598969D03*
X131789317Y-69583507D03*
%TD*%
D11*
%TO.C,SW14*%
X121639223Y-92976574D03*
D12*
X121147371Y-98127358D03*
D13*
X127038173Y-94026023D03*
D12*
X130973183Y-99986367D03*
D11*
X132437123Y-95075472D03*
D10*
X122953274Y-89360876D03*
X132671383Y-91249885D03*
X128163946Y-88234423D03*
%TD*%
D11*
%TO.C,SW15*%
X118013853Y-111627491D03*
D12*
X117522001Y-116778275D03*
D13*
X123412803Y-112676940D03*
D12*
X127347813Y-118637284D03*
D11*
X128811753Y-113726389D03*
D10*
X119327904Y-108011793D03*
X129046013Y-109900802D03*
X124538576Y-106885340D03*
%TD*%
D11*
%TO.C,SW16*%
X114388482Y-130278407D03*
D12*
X113896630Y-135429191D03*
D13*
X119787432Y-131327856D03*
D12*
X123722442Y-137288200D03*
D11*
X125186382Y-132377305D03*
D10*
X115702533Y-126662709D03*
X125420642Y-128551718D03*
X120913205Y-125536256D03*
%TD*%
D11*
%TO.C,SW17*%
X110763111Y-148929324D03*
D12*
X110271259Y-154080108D03*
D13*
X116162061Y-149978773D03*
D12*
X120097071Y-155939117D03*
D11*
X121561011Y-151028222D03*
D10*
X112077162Y-145313626D03*
X121795271Y-147202635D03*
X117287834Y-144187173D03*
%TD*%
D11*
%TO.C,SW18*%
X144869556Y-73042893D03*
D12*
X144377704Y-78193677D03*
D13*
X150268506Y-74092342D03*
D12*
X154203516Y-80052686D03*
D11*
X155667456Y-75141791D03*
D10*
X146183607Y-69427195D03*
X155901716Y-71316204D03*
X151394279Y-68300742D03*
%TD*%
D11*
%TO.C,SW19*%
X141244185Y-91693809D03*
D12*
X140752333Y-96844593D03*
D13*
X146643135Y-92743258D03*
D12*
X150578145Y-98703602D03*
D11*
X152042085Y-93792707D03*
D10*
X142558236Y-88078111D03*
X152276345Y-89967120D03*
X147768908Y-86951658D03*
%TD*%
D11*
%TO.C,SW20*%
X137618814Y-110344726D03*
D12*
X137126962Y-115495510D03*
D13*
X143017764Y-111394175D03*
D12*
X146952774Y-117354519D03*
D11*
X148416714Y-112443624D03*
D10*
X138932865Y-106729028D03*
X148650974Y-108618037D03*
X144143537Y-105602575D03*
%TD*%
D11*
%TO.C,SW21*%
X133993443Y-128995642D03*
D12*
X133501591Y-134146426D03*
D13*
X139392393Y-130045091D03*
D12*
X143327403Y-136005435D03*
D11*
X144791343Y-131094540D03*
D10*
X135307494Y-125379944D03*
X145025603Y-127268953D03*
X140518166Y-124253491D03*
%TD*%
D11*
%TO.C,SW22*%
X130368072Y-147646559D03*
D12*
X129876220Y-152797343D03*
D13*
X135767022Y-148696008D03*
D12*
X139702032Y-154656352D03*
D11*
X141165972Y-149745457D03*
D10*
X131682123Y-144030861D03*
X141400232Y-145919870D03*
X136892795Y-142904408D03*
%TD*%
D11*
%TO.C,SW23*%
X162566427Y-81576400D03*
D12*
X162074575Y-86727184D03*
D13*
X167965377Y-82625849D03*
D12*
X171900387Y-88586193D03*
D11*
X173364327Y-83675298D03*
D10*
X163880478Y-77960702D03*
X173598587Y-79849711D03*
X169091150Y-76834249D03*
%TD*%
D11*
%TO.C,SW24*%
X158941056Y-100227316D03*
D12*
X158449204Y-105378100D03*
D13*
X164340006Y-101276765D03*
D12*
X168275016Y-107237109D03*
D11*
X169738956Y-102326214D03*
D10*
X160255107Y-96611618D03*
X169973216Y-98500627D03*
X165465779Y-95485165D03*
%TD*%
D11*
%TO.C,SW25*%
X155315685Y-118878233D03*
D12*
X154823833Y-124029017D03*
D13*
X160714635Y-119927682D03*
D12*
X164649645Y-125888026D03*
D11*
X166113585Y-120977131D03*
D10*
X156629736Y-115262535D03*
X166347845Y-117151544D03*
X161840408Y-114136082D03*
%TD*%
D11*
%TO.C,SW26*%
X151690315Y-137529149D03*
D12*
X151198463Y-142679933D03*
D13*
X157089265Y-138578598D03*
D12*
X161024275Y-144538942D03*
D11*
X162488215Y-139628047D03*
D10*
X153004366Y-133913451D03*
X162722475Y-135802460D03*
X158215038Y-132786998D03*
%TD*%
D11*
%TO.C,SW27*%
X148064944Y-156180066D03*
D12*
X147573092Y-161330850D03*
D13*
X153463894Y-157229515D03*
D12*
X157398904Y-163189859D03*
D11*
X158862844Y-158278964D03*
D10*
X149378995Y-152564368D03*
X159097104Y-154453377D03*
X154589667Y-151437915D03*
%TD*%
D11*
%TO.C,SW28*%
X180263299Y-90109906D03*
D12*
X179771447Y-95260690D03*
D13*
X185662249Y-91159355D03*
D12*
X189597259Y-97119699D03*
D11*
X191061199Y-92208804D03*
D10*
X181577350Y-86494208D03*
X191295459Y-88383217D03*
X186788022Y-85367755D03*
%TD*%
D11*
%TO.C,SW29*%
X176637928Y-108760823D03*
D12*
X176146076Y-113911607D03*
D13*
X182036878Y-109810272D03*
D12*
X185971888Y-115770616D03*
D11*
X187435828Y-110859721D03*
D10*
X177951979Y-105145125D03*
X187670088Y-107034134D03*
X183162651Y-104018672D03*
%TD*%
D11*
%TO.C,SW30*%
X173012557Y-127411739D03*
D12*
X172520705Y-132562523D03*
D13*
X178411507Y-128461188D03*
D12*
X182346517Y-134421532D03*
D11*
X183810457Y-129510637D03*
D10*
X174326608Y-123796041D03*
X184044717Y-125685050D03*
X179537280Y-122669588D03*
%TD*%
D11*
%TO.C,SW31*%
X169387186Y-146062656D03*
D12*
X168895334Y-151213440D03*
D13*
X174786136Y-147112105D03*
D12*
X178721146Y-153072449D03*
D11*
X180185086Y-148161554D03*
D10*
X170701237Y-142446958D03*
X180419346Y-144335967D03*
X175911909Y-141320505D03*
%TD*%
D11*
%TO.C,SW32*%
X165723654Y-164909898D03*
D12*
X165231802Y-170060682D03*
D13*
X171122604Y-165959347D03*
D12*
X175057614Y-171919691D03*
D11*
X176521554Y-167008796D03*
D10*
X167037705Y-161294200D03*
X176755814Y-163183209D03*
X172248377Y-160167747D03*
%TD*%
D11*
%TO.C,SW33*%
X189121633Y-144244766D03*
D12*
X188629781Y-149395550D03*
D13*
X194520583Y-145294215D03*
D12*
X198455593Y-151254559D03*
D11*
X199919533Y-146343664D03*
D10*
X190435684Y-140629068D03*
X200153793Y-142518077D03*
X195646356Y-139502615D03*
%TD*%
D11*
%TO.C,SW34*%
X185491492Y-162920223D03*
D12*
X184999640Y-168071007D03*
D13*
X190890442Y-163969672D03*
D12*
X194825452Y-169930016D03*
D11*
X196289392Y-165019121D03*
D10*
X186805543Y-159304525D03*
X196523652Y-161193534D03*
X192016215Y-158178072D03*
%TD*%
D15*
%TO.C,U1*%
X221575000Y-61920000D03*
X221575000Y-64460000D03*
X221575000Y-67000000D03*
X221575000Y-69540000D03*
X221575000Y-72080000D03*
X221575000Y-74620000D03*
X221575000Y-77160000D03*
X221575000Y-79700000D03*
X221575000Y-82240000D03*
X221575000Y-84780000D03*
X221575000Y-87320000D03*
X221575000Y-89860000D03*
X206075000Y-89860000D03*
X206075000Y-87320000D03*
X206075000Y-84780000D03*
X206075000Y-82240000D03*
X206075000Y-79700000D03*
X206075000Y-77160000D03*
X206075000Y-74620000D03*
X206075000Y-72080000D03*
X206075000Y-69540000D03*
X206075000Y-67000000D03*
X206075000Y-64460000D03*
X206075000Y-61920000D03*
%TD*%
M02*
