%TF.GenerationSoftware,KiCad,Pcbnew,(5.1.7-0-10_14)*%
%TF.CreationDate,2022-11-13T20:21:01-08:00*%
%TF.ProjectId,swing-atreus-r,7377696e-672d-4617-9472-6575732d722e,rev?*%
%TF.SameCoordinates,Original*%
%TF.FileFunction,Copper,L1,Top*%
%TF.FilePolarity,Positive*%
%FSLAX46Y46*%
G04 Gerber Fmt 4.6, Leading zero omitted, Abs format (unit mm)*
G04 Created by KiCad (PCBNEW (5.1.7-0-10_14)) date 2022-11-13 20:21:01*
%MOMM*%
%LPD*%
G01*
G04 APERTURE LIST*
%TA.AperFunction,ComponentPad*%
%ADD10O,2.000000X1.500000*%
%TD*%
%TA.AperFunction,ComponentPad*%
%ADD11C,2.000000*%
%TD*%
%TA.AperFunction,ComponentPad*%
%ADD12C,1.900000*%
%TD*%
%TA.AperFunction,ComponentPad*%
%ADD13C,3.400000*%
%TD*%
%TA.AperFunction,SMDPad,CuDef*%
%ADD14R,0.900000X1.200000*%
%TD*%
%TA.AperFunction,ComponentPad*%
%ADD15C,1.524000*%
%TD*%
%TA.AperFunction,ViaPad*%
%ADD16C,0.800000*%
%TD*%
%TA.AperFunction,Conductor*%
%ADD17C,0.200000*%
%TD*%
%TA.AperFunction,Conductor*%
%ADD18C,0.500000*%
%TD*%
G04 APERTURE END LIST*
D10*
%TO.P,U1,24*%
%TO.N,Net-(SW1-Pad2)*%
X164650000Y-41030000D03*
%TO.P,U1,1*%
%TO.N,Net-(U1-Pad1)*%
X149150000Y-41030000D03*
%TO.P,U1,23*%
%TO.N,Net-(U1-Pad23)*%
X164650000Y-43570000D03*
%TO.P,U1,2*%
%TO.N,Net-(U1-Pad2)*%
X149150000Y-43570000D03*
%TO.P,U1,22*%
%TO.N,Net-(SW2-Pad1)*%
X164650000Y-46110000D03*
%TO.P,U1,3*%
%TO.N,GND*%
X149150000Y-46110000D03*
%TO.P,U1,21*%
%TO.N,Net-(U1-Pad21)*%
X164650000Y-48650000D03*
%TO.P,U1,4*%
%TO.N,GND*%
X149150000Y-48650000D03*
%TO.P,U1,20*%
%TO.N,/L_column1*%
X164650000Y-51190000D03*
%TO.P,U1,5*%
%TO.N,/L_Row1*%
X149150000Y-51190000D03*
%TO.P,U1,19*%
%TO.N,/L_column2*%
X164650000Y-53730000D03*
%TO.P,U1,6*%
%TO.N,/L_Row2*%
X149150000Y-53730000D03*
%TO.P,U1,18*%
%TO.N,/L_column3*%
X164650000Y-56270000D03*
%TO.P,U1,7*%
%TO.N,/L_Row3*%
X149150000Y-56270000D03*
%TO.P,U1,17*%
%TO.N,/L_column4*%
X164650000Y-58810000D03*
%TO.P,U1,8*%
%TO.N,/L_Row4*%
X149150000Y-58810000D03*
%TO.P,U1,16*%
%TO.N,/L_column5*%
X164650000Y-61350000D03*
%TO.P,U1,9*%
%TO.N,/L_Row5*%
X149150000Y-61350000D03*
%TO.P,U1,15*%
%TO.N,/L_column6*%
X164650000Y-63890000D03*
%TO.P,U1,10*%
%TO.N,Net-(U1-Pad10)*%
X149150000Y-63890000D03*
%TO.P,U1,14*%
%TO.N,/L_column7*%
X164650000Y-66430000D03*
%TO.P,U1,11*%
%TO.N,Net-(U1-Pad11)*%
X149150000Y-66430000D03*
%TO.P,U1,13*%
%TO.N,Net-(U1-Pad13)*%
X164650000Y-68970000D03*
%TO.P,U1,12*%
%TO.N,Net-(U1-Pad12)*%
X149150000Y-68970000D03*
%TD*%
D11*
%TO.P,SW4,1*%
%TO.N,/L_Row2*%
X42850000Y-60100000D03*
X52750000Y-60100000D03*
%TO.P,SW4,2*%
%TO.N,Net-(D2-Pad2)*%
X47800000Y-58000000D03*
D12*
%TO.P,SW4,*%
%TO.N,*%
X42300000Y-63900000D03*
X53300000Y-63900000D03*
D13*
X47800000Y-63900000D03*
%TD*%
D14*
%TO.P,D1,1*%
%TO.N,/L_column1*%
X50800000Y-35400000D03*
%TO.P,D1,2*%
%TO.N,Net-(D1-Pad2)*%
X47500000Y-35400000D03*
%TD*%
%TO.P,D2,1*%
%TO.N,/L_column1*%
X50450000Y-54900000D03*
%TO.P,D2,2*%
%TO.N,Net-(D2-Pad2)*%
X47150000Y-54900000D03*
%TD*%
%TO.P,D3,1*%
%TO.N,/L_column1*%
X50450000Y-73900000D03*
%TO.P,D3,2*%
%TO.N,Net-(D3-Pad2)*%
X47150000Y-73900000D03*
%TD*%
%TO.P,D4,2*%
%TO.N,Net-(D4-Pad2)*%
X47150000Y-92400000D03*
%TO.P,D4,1*%
%TO.N,/L_column1*%
X50450000Y-92400000D03*
%TD*%
%TO.P,D5,2*%
%TO.N,Net-(D5-Pad2)*%
X46650000Y-111400000D03*
%TO.P,D5,1*%
%TO.N,/L_column1*%
X49950000Y-111400000D03*
%TD*%
%TO.P,D6,1*%
%TO.N,/L_column2*%
X68450000Y-35900000D03*
%TO.P,D6,2*%
%TO.N,Net-(D6-Pad2)*%
X65150000Y-35900000D03*
%TD*%
%TO.P,D7,1*%
%TO.N,/L_column2*%
X67950000Y-54800000D03*
%TO.P,D7,2*%
%TO.N,Net-(D7-Pad2)*%
X64650000Y-54800000D03*
%TD*%
%TO.P,D8,1*%
%TO.N,/L_column2*%
X67950000Y-73900000D03*
%TO.P,D8,2*%
%TO.N,Net-(D8-Pad2)*%
X64650000Y-73900000D03*
%TD*%
%TO.P,D9,2*%
%TO.N,Net-(D9-Pad2)*%
X64650000Y-92900000D03*
%TO.P,D9,1*%
%TO.N,/L_column2*%
X67950000Y-92900000D03*
%TD*%
%TO.P,D10,2*%
%TO.N,Net-(D10-Pad2)*%
X65150000Y-111400000D03*
%TO.P,D10,1*%
%TO.N,/L_column2*%
X68450000Y-111400000D03*
%TD*%
%TO.P,D11,1*%
%TO.N,/L_column3*%
X85950000Y-30900000D03*
%TO.P,D11,2*%
%TO.N,Net-(D11-Pad2)*%
X82650000Y-30900000D03*
%TD*%
%TO.P,D12,1*%
%TO.N,/L_column3*%
X86450000Y-49400000D03*
%TO.P,D12,2*%
%TO.N,Net-(D12-Pad2)*%
X83150000Y-49400000D03*
%TD*%
%TO.P,D13,1*%
%TO.N,/L_column3*%
X85950000Y-68400000D03*
%TO.P,D13,2*%
%TO.N,Net-(D13-Pad2)*%
X82650000Y-68400000D03*
%TD*%
%TO.P,D14,2*%
%TO.N,Net-(D14-Pad2)*%
X82650000Y-87900000D03*
%TO.P,D14,1*%
%TO.N,/L_column3*%
X85950000Y-87900000D03*
%TD*%
%TO.P,D15,2*%
%TO.N,Net-(D15-Pad2)*%
X82150000Y-106900000D03*
%TO.P,D15,1*%
%TO.N,/L_column3*%
X85450000Y-106900000D03*
%TD*%
%TO.P,D16,1*%
%TO.N,/L_column4*%
X103950000Y-25900000D03*
%TO.P,D16,2*%
%TO.N,Net-(D16-Pad2)*%
X100650000Y-25900000D03*
%TD*%
%TO.P,D17,1*%
%TO.N,/L_column4*%
X103950000Y-44900000D03*
%TO.P,D17,2*%
%TO.N,Net-(D17-Pad2)*%
X100650000Y-44900000D03*
%TD*%
%TO.P,D18,2*%
%TO.N,Net-(D18-Pad2)*%
X100650000Y-63900000D03*
%TO.P,D18,1*%
%TO.N,/L_column4*%
X103950000Y-63900000D03*
%TD*%
%TO.P,D19,2*%
%TO.N,Net-(D19-Pad2)*%
X101300000Y-82900000D03*
%TO.P,D19,1*%
%TO.N,/L_column4*%
X104600000Y-82900000D03*
%TD*%
%TO.P,D20,2*%
%TO.N,Net-(D20-Pad2)*%
X100650000Y-101900000D03*
%TO.P,D20,1*%
%TO.N,/L_column4*%
X103950000Y-101900000D03*
%TD*%
%TO.P,D21,1*%
%TO.N,/L_column5*%
X121950000Y-30900000D03*
%TO.P,D21,2*%
%TO.N,Net-(D21-Pad2)*%
X118650000Y-30900000D03*
%TD*%
%TO.P,D22,1*%
%TO.N,/L_column5*%
X122100000Y-49900000D03*
%TO.P,D22,2*%
%TO.N,Net-(D22-Pad2)*%
X118800000Y-49900000D03*
%TD*%
%TO.P,D23,1*%
%TO.N,/L_column5*%
X121950000Y-68900000D03*
%TO.P,D23,2*%
%TO.N,Net-(D23-Pad2)*%
X118650000Y-68900000D03*
%TD*%
%TO.P,D24,2*%
%TO.N,Net-(D24-Pad2)*%
X118650000Y-87700000D03*
%TO.P,D24,1*%
%TO.N,/L_column5*%
X121950000Y-87700000D03*
%TD*%
%TO.P,D25,2*%
%TO.N,Net-(D25-Pad2)*%
X118650000Y-106900000D03*
%TO.P,D25,1*%
%TO.N,/L_column5*%
X121950000Y-106900000D03*
%TD*%
%TO.P,D26,1*%
%TO.N,/L_column6*%
X139950000Y-35900000D03*
%TO.P,D26,2*%
%TO.N,Net-(D26-Pad2)*%
X136650000Y-35900000D03*
%TD*%
%TO.P,D27,1*%
%TO.N,/L_column6*%
X139450000Y-54400000D03*
%TO.P,D27,2*%
%TO.N,Net-(D27-Pad2)*%
X136150000Y-54400000D03*
%TD*%
%TO.P,D28,2*%
%TO.N,Net-(D28-Pad2)*%
X136650000Y-73400000D03*
%TO.P,D28,1*%
%TO.N,/L_column6*%
X139950000Y-73400000D03*
%TD*%
%TO.P,D29,2*%
%TO.N,Net-(D29-Pad2)*%
X136650000Y-92900000D03*
%TO.P,D29,1*%
%TO.N,/L_column6*%
X139950000Y-92900000D03*
%TD*%
%TO.P,D30,2*%
%TO.N,Net-(D30-Pad2)*%
X136150000Y-111650000D03*
%TO.P,D30,1*%
%TO.N,/L_column6*%
X139450000Y-111650000D03*
%TD*%
%TO.P,D31,2*%
%TO.N,Net-(D31-Pad2)*%
X155650000Y-92650000D03*
%TO.P,D31,1*%
%TO.N,/L_column7*%
X158950000Y-92650000D03*
%TD*%
%TO.P,D32,2*%
%TO.N,Net-(D32-Pad2)*%
X155900000Y-111650000D03*
%TO.P,D32,1*%
%TO.N,/L_column7*%
X159200000Y-111650000D03*
%TD*%
D15*
%TO.P,SW1,1*%
%TO.N,Net-(SW1-Pad1)*%
X68786000Y-30456000D03*
%TO.P,SW1,2*%
%TO.N,Net-(SW1-Pad2)*%
X66246000Y-30456000D03*
%TO.P,SW1,3*%
%TO.N,Net-(J1-Pad1)*%
X63706000Y-30456000D03*
%TD*%
D13*
%TO.P,SW3,*%
%TO.N,*%
X47800000Y-44900000D03*
D12*
X53300000Y-44900000D03*
X42300000Y-44900000D03*
D11*
%TO.P,SW3,2*%
%TO.N,Net-(D1-Pad2)*%
X47800000Y-39000000D03*
%TO.P,SW3,1*%
%TO.N,/L_Row1*%
X52750000Y-41100000D03*
X42850000Y-41100000D03*
%TD*%
%TO.P,SW5,1*%
%TO.N,/L_Row3*%
X42850000Y-79100000D03*
X52750000Y-79100000D03*
%TO.P,SW5,2*%
%TO.N,Net-(D3-Pad2)*%
X47800000Y-77000000D03*
D12*
%TO.P,SW5,*%
%TO.N,*%
X42300000Y-82900000D03*
X53300000Y-82900000D03*
D13*
X47800000Y-82900000D03*
%TD*%
%TO.P,SW6,*%
%TO.N,*%
X47800000Y-101900000D03*
D12*
X53300000Y-101900000D03*
X42300000Y-101900000D03*
D11*
%TO.P,SW6,2*%
%TO.N,Net-(D4-Pad2)*%
X47800000Y-96000000D03*
%TO.P,SW6,1*%
%TO.N,/L_Row4*%
X52750000Y-98100000D03*
X42850000Y-98100000D03*
%TD*%
D13*
%TO.P,SW7,*%
%TO.N,*%
X47800000Y-120900000D03*
D12*
X53300000Y-120900000D03*
X42300000Y-120900000D03*
D11*
%TO.P,SW7,2*%
%TO.N,Net-(D5-Pad2)*%
X47800000Y-115000000D03*
%TO.P,SW7,1*%
%TO.N,/L_Row5*%
X52750000Y-117100000D03*
X42850000Y-117100000D03*
%TD*%
%TO.P,SW8,1*%
%TO.N,/L_Row1*%
X60850000Y-41100000D03*
X70750000Y-41100000D03*
%TO.P,SW8,2*%
%TO.N,Net-(D6-Pad2)*%
X65800000Y-39000000D03*
D12*
%TO.P,SW8,*%
%TO.N,*%
X60300000Y-44900000D03*
X71300000Y-44900000D03*
D13*
X65800000Y-44900000D03*
%TD*%
D11*
%TO.P,SW9,1*%
%TO.N,/L_Row2*%
X60850000Y-60100000D03*
X70750000Y-60100000D03*
%TO.P,SW9,2*%
%TO.N,Net-(D7-Pad2)*%
X65800000Y-58000000D03*
D12*
%TO.P,SW9,*%
%TO.N,*%
X60300000Y-63900000D03*
X71300000Y-63900000D03*
D13*
X65800000Y-63900000D03*
%TD*%
D11*
%TO.P,SW10,1*%
%TO.N,/L_Row3*%
X60850000Y-79100000D03*
X70750000Y-79100000D03*
%TO.P,SW10,2*%
%TO.N,Net-(D8-Pad2)*%
X65800000Y-77000000D03*
D12*
%TO.P,SW10,*%
%TO.N,*%
X60300000Y-82900000D03*
X71300000Y-82900000D03*
D13*
X65800000Y-82900000D03*
%TD*%
%TO.P,SW11,*%
%TO.N,*%
X65800000Y-101900000D03*
D12*
X71300000Y-101900000D03*
X60300000Y-101900000D03*
D11*
%TO.P,SW11,2*%
%TO.N,Net-(D9-Pad2)*%
X65800000Y-96000000D03*
%TO.P,SW11,1*%
%TO.N,/L_Row4*%
X70750000Y-98100000D03*
X60850000Y-98100000D03*
%TD*%
D13*
%TO.P,SW12,*%
%TO.N,*%
X65800000Y-120900000D03*
D12*
X71300000Y-120900000D03*
X60300000Y-120900000D03*
D11*
%TO.P,SW12,2*%
%TO.N,Net-(D10-Pad2)*%
X65800000Y-115000000D03*
%TO.P,SW12,1*%
%TO.N,/L_Row5*%
X70750000Y-117100000D03*
X60850000Y-117100000D03*
%TD*%
%TO.P,SW13,1*%
%TO.N,/L_Row1*%
X78850000Y-36100000D03*
X88750000Y-36100000D03*
%TO.P,SW13,2*%
%TO.N,Net-(D11-Pad2)*%
X83800000Y-34000000D03*
D12*
%TO.P,SW13,*%
%TO.N,*%
X78300000Y-39900000D03*
X89300000Y-39900000D03*
D13*
X83800000Y-39900000D03*
%TD*%
D11*
%TO.P,SW14,1*%
%TO.N,/L_Row2*%
X78850000Y-55100000D03*
X88750000Y-55100000D03*
%TO.P,SW14,2*%
%TO.N,Net-(D12-Pad2)*%
X83800000Y-53000000D03*
D12*
%TO.P,SW14,*%
%TO.N,*%
X78300000Y-58900000D03*
X89300000Y-58900000D03*
D13*
X83800000Y-58900000D03*
%TD*%
D11*
%TO.P,SW15,1*%
%TO.N,/L_Row3*%
X78850000Y-74100000D03*
X88750000Y-74100000D03*
%TO.P,SW15,2*%
%TO.N,Net-(D13-Pad2)*%
X83800000Y-72000000D03*
D12*
%TO.P,SW15,*%
%TO.N,*%
X78300000Y-77900000D03*
X89300000Y-77900000D03*
D13*
X83800000Y-77900000D03*
%TD*%
%TO.P,SW16,*%
%TO.N,*%
X83800000Y-96900000D03*
D12*
X89300000Y-96900000D03*
X78300000Y-96900000D03*
D11*
%TO.P,SW16,2*%
%TO.N,Net-(D14-Pad2)*%
X83800000Y-91000000D03*
%TO.P,SW16,1*%
%TO.N,/L_Row4*%
X88750000Y-93100000D03*
X78850000Y-93100000D03*
%TD*%
D13*
%TO.P,SW17,*%
%TO.N,*%
X83800000Y-115900000D03*
D12*
X89300000Y-115900000D03*
X78300000Y-115900000D03*
D11*
%TO.P,SW17,2*%
%TO.N,Net-(D15-Pad2)*%
X83800000Y-110000000D03*
%TO.P,SW17,1*%
%TO.N,/L_Row5*%
X88750000Y-112100000D03*
X78850000Y-112100000D03*
%TD*%
%TO.P,SW18,1*%
%TO.N,/L_Row1*%
X96850000Y-31100000D03*
X106750000Y-31100000D03*
%TO.P,SW18,2*%
%TO.N,Net-(D16-Pad2)*%
X101800000Y-29000000D03*
D12*
%TO.P,SW18,*%
%TO.N,*%
X96300000Y-34900000D03*
X107300000Y-34900000D03*
D13*
X101800000Y-34900000D03*
%TD*%
D11*
%TO.P,SW19,1*%
%TO.N,/L_Row2*%
X96850000Y-50100000D03*
X106750000Y-50100000D03*
%TO.P,SW19,2*%
%TO.N,Net-(D17-Pad2)*%
X101800000Y-48000000D03*
D12*
%TO.P,SW19,*%
%TO.N,*%
X96300000Y-53900000D03*
X107300000Y-53900000D03*
D13*
X101800000Y-53900000D03*
%TD*%
D11*
%TO.P,SW20,1*%
%TO.N,/L_Row3*%
X96850000Y-69100000D03*
X106750000Y-69100000D03*
%TO.P,SW20,2*%
%TO.N,Net-(D18-Pad2)*%
X101800000Y-67000000D03*
D12*
%TO.P,SW20,*%
%TO.N,*%
X96300000Y-72900000D03*
X107300000Y-72900000D03*
D13*
X101800000Y-72900000D03*
%TD*%
%TO.P,SW21,*%
%TO.N,*%
X101800000Y-91900000D03*
D12*
X107300000Y-91900000D03*
X96300000Y-91900000D03*
D11*
%TO.P,SW21,2*%
%TO.N,Net-(D19-Pad2)*%
X101800000Y-86000000D03*
%TO.P,SW21,1*%
%TO.N,/L_Row4*%
X106750000Y-88100000D03*
X96850000Y-88100000D03*
%TD*%
D13*
%TO.P,SW22,*%
%TO.N,*%
X101800000Y-110900000D03*
D12*
X107300000Y-110900000D03*
X96300000Y-110900000D03*
D11*
%TO.P,SW22,2*%
%TO.N,Net-(D20-Pad2)*%
X101800000Y-105000000D03*
%TO.P,SW22,1*%
%TO.N,/L_Row5*%
X106750000Y-107100000D03*
X96850000Y-107100000D03*
%TD*%
%TO.P,SW23,1*%
%TO.N,/L_Row1*%
X114850000Y-36100000D03*
X124750000Y-36100000D03*
%TO.P,SW23,2*%
%TO.N,Net-(D21-Pad2)*%
X119800000Y-34000000D03*
D12*
%TO.P,SW23,*%
%TO.N,*%
X114300000Y-39900000D03*
X125300000Y-39900000D03*
D13*
X119800000Y-39900000D03*
%TD*%
D11*
%TO.P,SW24,1*%
%TO.N,/L_Row2*%
X114850000Y-55100000D03*
X124750000Y-55100000D03*
%TO.P,SW24,2*%
%TO.N,Net-(D22-Pad2)*%
X119800000Y-53000000D03*
D12*
%TO.P,SW24,*%
%TO.N,*%
X114300000Y-58900000D03*
X125300000Y-58900000D03*
D13*
X119800000Y-58900000D03*
%TD*%
D11*
%TO.P,SW25,1*%
%TO.N,/L_Row3*%
X114850000Y-74100000D03*
X124750000Y-74100000D03*
%TO.P,SW25,2*%
%TO.N,Net-(D23-Pad2)*%
X119800000Y-72000000D03*
D12*
%TO.P,SW25,*%
%TO.N,*%
X114300000Y-77900000D03*
X125300000Y-77900000D03*
D13*
X119800000Y-77900000D03*
%TD*%
%TO.P,SW26,*%
%TO.N,*%
X119800000Y-96900000D03*
D12*
X125300000Y-96900000D03*
X114300000Y-96900000D03*
D11*
%TO.P,SW26,2*%
%TO.N,Net-(D24-Pad2)*%
X119800000Y-91000000D03*
%TO.P,SW26,1*%
%TO.N,/L_Row4*%
X124750000Y-93100000D03*
X114850000Y-93100000D03*
%TD*%
D13*
%TO.P,SW27,*%
%TO.N,*%
X119800000Y-115900000D03*
D12*
X125300000Y-115900000D03*
X114300000Y-115900000D03*
D11*
%TO.P,SW27,2*%
%TO.N,Net-(D25-Pad2)*%
X119800000Y-110000000D03*
%TO.P,SW27,1*%
%TO.N,/L_Row5*%
X124750000Y-112100000D03*
X114850000Y-112100000D03*
%TD*%
%TO.P,SW28,1*%
%TO.N,/L_Row1*%
X132850000Y-41100000D03*
X142750000Y-41100000D03*
%TO.P,SW28,2*%
%TO.N,Net-(D26-Pad2)*%
X137800000Y-39000000D03*
D12*
%TO.P,SW28,*%
%TO.N,*%
X132300000Y-44900000D03*
X143300000Y-44900000D03*
D13*
X137800000Y-44900000D03*
%TD*%
D11*
%TO.P,SW29,1*%
%TO.N,/L_Row2*%
X132850000Y-60100000D03*
X142750000Y-60100000D03*
%TO.P,SW29,2*%
%TO.N,Net-(D27-Pad2)*%
X137800000Y-58000000D03*
D12*
%TO.P,SW29,*%
%TO.N,*%
X132300000Y-63900000D03*
X143300000Y-63900000D03*
D13*
X137800000Y-63900000D03*
%TD*%
%TO.P,SW30,*%
%TO.N,*%
X137800000Y-82900000D03*
D12*
X143300000Y-82900000D03*
X132300000Y-82900000D03*
D11*
%TO.P,SW30,2*%
%TO.N,Net-(D28-Pad2)*%
X137800000Y-77000000D03*
%TO.P,SW30,1*%
%TO.N,/L_Row3*%
X142750000Y-79100000D03*
X132850000Y-79100000D03*
%TD*%
D13*
%TO.P,SW31,*%
%TO.N,*%
X137800000Y-101900000D03*
D12*
X143300000Y-101900000D03*
X132300000Y-101900000D03*
D11*
%TO.P,SW31,2*%
%TO.N,Net-(D29-Pad2)*%
X137800000Y-96000000D03*
%TO.P,SW31,1*%
%TO.N,/L_Row4*%
X142750000Y-98100000D03*
X132850000Y-98100000D03*
%TD*%
D13*
%TO.P,SW32,*%
%TO.N,*%
X137800000Y-120900000D03*
D12*
X143300000Y-120900000D03*
X132300000Y-120900000D03*
D11*
%TO.P,SW32,2*%
%TO.N,Net-(D30-Pad2)*%
X137800000Y-115000000D03*
%TO.P,SW32,1*%
%TO.N,/L_Row5*%
X142750000Y-117100000D03*
X132850000Y-117100000D03*
%TD*%
D13*
%TO.P,SW33,*%
%TO.N,*%
X156800000Y-101900000D03*
D12*
X162300000Y-101900000D03*
X151300000Y-101900000D03*
D11*
%TO.P,SW33,2*%
%TO.N,Net-(D31-Pad2)*%
X156800000Y-96000000D03*
%TO.P,SW33,1*%
%TO.N,/L_Row4*%
X161750000Y-98100000D03*
X151850000Y-98100000D03*
%TD*%
D13*
%TO.P,SW34,*%
%TO.N,*%
X156800000Y-120900000D03*
D12*
X162300000Y-120900000D03*
X151300000Y-120900000D03*
D11*
%TO.P,SW34,2*%
%TO.N,Net-(D32-Pad2)*%
X156800000Y-115000000D03*
%TO.P,SW34,1*%
%TO.N,/L_Row5*%
X161750000Y-117100000D03*
X151850000Y-117100000D03*
%TD*%
%TO.P,J1,MP*%
%TO.N,N/C*%
%TA.AperFunction,SMDPad,CuDef*%
G36*
G01*
X159450000Y-75250000D02*
X156550000Y-75250000D01*
G75*
G02*
X156300000Y-75000000I0J250000D01*
G01*
X156300000Y-74000000D01*
G75*
G02*
X156550000Y-73750000I250000J0D01*
G01*
X159450000Y-73750000D01*
G75*
G02*
X159700000Y-74000000I0J-250000D01*
G01*
X159700000Y-75000000D01*
G75*
G02*
X159450000Y-75250000I-250000J0D01*
G01*
G37*
%TD.AperFunction*%
%TA.AperFunction,SMDPad,CuDef*%
G36*
G01*
X159450000Y-81950000D02*
X156550000Y-81950000D01*
G75*
G02*
X156300000Y-81700000I0J250000D01*
G01*
X156300000Y-80700000D01*
G75*
G02*
X156550000Y-80450000I250000J0D01*
G01*
X159450000Y-80450000D01*
G75*
G02*
X159700000Y-80700000I0J-250000D01*
G01*
X159700000Y-81700000D01*
G75*
G02*
X159450000Y-81950000I-250000J0D01*
G01*
G37*
%TD.AperFunction*%
%TO.P,J1,2*%
%TO.N,GND*%
%TA.AperFunction,SMDPad,CuDef*%
G36*
G01*
X153750000Y-77350000D02*
X150750000Y-77350000D01*
G75*
G02*
X150500000Y-77100000I0J250000D01*
G01*
X150500000Y-76600000D01*
G75*
G02*
X150750000Y-76350000I250000J0D01*
G01*
X153750000Y-76350000D01*
G75*
G02*
X154000000Y-76600000I0J-250000D01*
G01*
X154000000Y-77100000D01*
G75*
G02*
X153750000Y-77350000I-250000J0D01*
G01*
G37*
%TD.AperFunction*%
%TO.P,J1,1*%
%TO.N,Net-(J1-Pad1)*%
%TA.AperFunction,SMDPad,CuDef*%
G36*
G01*
X153750000Y-79350000D02*
X150750000Y-79350000D01*
G75*
G02*
X150500000Y-79100000I0J250000D01*
G01*
X150500000Y-78600000D01*
G75*
G02*
X150750000Y-78350000I250000J0D01*
G01*
X153750000Y-78350000D01*
G75*
G02*
X154000000Y-78600000I0J-250000D01*
G01*
X154000000Y-79100000D01*
G75*
G02*
X153750000Y-79350000I-250000J0D01*
G01*
G37*
%TD.AperFunction*%
%TD*%
D16*
%TO.N,Net-(J1-Pad1)*%
X145300000Y-80700000D03*
X66149999Y-86199999D03*
%TO.N,GND*%
X153920000Y-71630000D03*
%TO.N,Net-(SW1-Pad2)*%
X78750000Y-42700000D03*
X141450000Y-46950000D03*
X156470002Y-44630000D03*
%TO.N,Net-(U1-Pad1)*%
X160760000Y-41250000D03*
%TO.N,/L_column1*%
X54700000Y-53500000D03*
X143700000Y-49700000D03*
%TO.N,/L_column2*%
X83600000Y-55900000D03*
X142203983Y-62803983D03*
%TO.N,/L_column3*%
X90600000Y-66900000D03*
X141900000Y-66500000D03*
%TO.N,/L_column4*%
X104400000Y-28200000D03*
X104000000Y-31200000D03*
X114200000Y-70300000D03*
X143000000Y-69100000D03*
%TO.N,/L_column5*%
X134700000Y-86000000D03*
X144000000Y-85100000D03*
%TO.N,/L_Row5*%
X146200000Y-100200000D03*
X146900000Y-94500000D03*
%TD*%
D17*
%TO.N,Net-(D1-Pad2)*%
X47800000Y-35700000D02*
X47500000Y-35400000D01*
X47800000Y-39000000D02*
X47800000Y-35700000D01*
%TO.N,Net-(D2-Pad2)*%
X47150000Y-57350000D02*
X47800000Y-58000000D01*
X47150000Y-54900000D02*
X47150000Y-57350000D01*
%TO.N,Net-(D3-Pad2)*%
X47150000Y-76350000D02*
X47800000Y-77000000D01*
X47150000Y-73900000D02*
X47150000Y-76350000D01*
%TO.N,Net-(D4-Pad2)*%
X47150000Y-95350000D02*
X47800000Y-96000000D01*
X47150000Y-92400000D02*
X47150000Y-95350000D01*
%TO.N,Net-(D5-Pad2)*%
X46650000Y-113850000D02*
X47800000Y-115000000D01*
X46650000Y-111400000D02*
X46650000Y-113850000D01*
%TO.N,Net-(D6-Pad2)*%
X65150000Y-38350000D02*
X65800000Y-39000000D01*
X65150000Y-35900000D02*
X65150000Y-38350000D01*
%TO.N,Net-(D7-Pad2)*%
X64650000Y-56850000D02*
X65800000Y-58000000D01*
X64650000Y-54800000D02*
X64650000Y-56850000D01*
%TO.N,Net-(D8-Pad2)*%
X64650000Y-75850000D02*
X65800000Y-77000000D01*
X64650000Y-73900000D02*
X64650000Y-75850000D01*
%TO.N,Net-(D9-Pad2)*%
X64650000Y-94850000D02*
X65800000Y-96000000D01*
X64650000Y-92900000D02*
X64650000Y-94850000D01*
%TO.N,Net-(D10-Pad2)*%
X65150000Y-114350000D02*
X65800000Y-115000000D01*
X65150000Y-111400000D02*
X65150000Y-114350000D01*
%TO.N,Net-(D11-Pad2)*%
X82650000Y-32850000D02*
X83800000Y-34000000D01*
X82650000Y-30900000D02*
X82650000Y-32850000D01*
%TO.N,Net-(D12-Pad2)*%
X83150000Y-52350000D02*
X83800000Y-53000000D01*
X83150000Y-49400000D02*
X83150000Y-52350000D01*
%TO.N,Net-(D13-Pad2)*%
X82650000Y-70850000D02*
X83800000Y-72000000D01*
X82650000Y-68400000D02*
X82650000Y-70850000D01*
%TO.N,Net-(D14-Pad2)*%
X82650000Y-89850000D02*
X83800000Y-91000000D01*
X82650000Y-87900000D02*
X82650000Y-89850000D01*
%TO.N,Net-(D15-Pad2)*%
X82150000Y-108350000D02*
X83800000Y-110000000D01*
X82150000Y-106900000D02*
X82150000Y-108350000D01*
%TO.N,Net-(D16-Pad2)*%
X100650000Y-27850000D02*
X101800000Y-29000000D01*
X100650000Y-25900000D02*
X100650000Y-27850000D01*
%TO.N,Net-(D17-Pad2)*%
X100650000Y-46850000D02*
X101800000Y-48000000D01*
X100650000Y-44900000D02*
X100650000Y-46850000D01*
%TO.N,Net-(D18-Pad2)*%
X100650000Y-65850000D02*
X101800000Y-67000000D01*
X100650000Y-63900000D02*
X100650000Y-65850000D01*
%TO.N,Net-(D19-Pad2)*%
X101300000Y-85500000D02*
X101800000Y-86000000D01*
X101300000Y-82900000D02*
X101300000Y-85500000D01*
%TO.N,Net-(D20-Pad2)*%
X100650000Y-103850000D02*
X101800000Y-105000000D01*
X100650000Y-101900000D02*
X100650000Y-103850000D01*
%TO.N,Net-(D21-Pad2)*%
X119800000Y-32050000D02*
X118650000Y-30900000D01*
X119800000Y-34000000D02*
X119800000Y-32050000D01*
%TO.N,Net-(D22-Pad2)*%
X119800000Y-50900000D02*
X118800000Y-49900000D01*
X119800000Y-53000000D02*
X119800000Y-50900000D01*
%TO.N,Net-(D23-Pad2)*%
X118650000Y-70850000D02*
X119800000Y-72000000D01*
X118650000Y-68900000D02*
X118650000Y-70850000D01*
%TO.N,Net-(D24-Pad2)*%
X118650000Y-89850000D02*
X119800000Y-91000000D01*
X118650000Y-87700000D02*
X118650000Y-89850000D01*
%TO.N,Net-(D25-Pad2)*%
X118650000Y-106900000D02*
X118650000Y-109950000D01*
X118700000Y-110000000D02*
X119800000Y-110000000D01*
X118650000Y-109950000D02*
X118700000Y-110000000D01*
%TO.N,Net-(D26-Pad2)*%
X136650000Y-37850000D02*
X137800000Y-39000000D01*
X136650000Y-35900000D02*
X136650000Y-37850000D01*
%TO.N,Net-(D27-Pad2)*%
X136150000Y-56350000D02*
X137800000Y-58000000D01*
X136150000Y-54400000D02*
X136150000Y-56350000D01*
%TO.N,Net-(D28-Pad2)*%
X136650000Y-75850000D02*
X137800000Y-77000000D01*
X136650000Y-73400000D02*
X136650000Y-75850000D01*
%TO.N,Net-(D29-Pad2)*%
X136650000Y-94850000D02*
X137800000Y-96000000D01*
X136650000Y-92900000D02*
X136650000Y-94850000D01*
%TO.N,Net-(D30-Pad2)*%
X137800000Y-113300000D02*
X136150000Y-111650000D01*
X137800000Y-115000000D02*
X137800000Y-113300000D01*
%TO.N,Net-(D31-Pad2)*%
X155650000Y-94850000D02*
X156800000Y-96000000D01*
X155650000Y-92650000D02*
X155650000Y-94850000D01*
%TO.N,Net-(D32-Pad2)*%
X156800000Y-112550000D02*
X155900000Y-111650000D01*
X156800000Y-115000000D02*
X156800000Y-112550000D01*
%TO.N,Net-(J1-Pad1)*%
X145300000Y-80700000D02*
X150000000Y-80700000D01*
X151850000Y-78850000D02*
X152250000Y-78850000D01*
X150000000Y-80700000D02*
X151850000Y-78850000D01*
X65599999Y-86199999D02*
X66149999Y-86199999D01*
X63200000Y-83800000D02*
X65599999Y-86199999D01*
X63200000Y-30962000D02*
X63200000Y-83800000D01*
X63706000Y-30456000D02*
X63200000Y-30962000D01*
%TO.N,GND*%
X152250000Y-76850000D02*
X152250000Y-73300000D01*
X152250000Y-73300000D02*
X153920000Y-71630000D01*
%TO.N,Net-(SW1-Pad2)*%
X78490000Y-42700000D02*
X78750000Y-42700000D01*
X66246000Y-30456000D02*
X78490000Y-42700000D01*
D18*
X154455684Y-47349999D02*
X156470002Y-45335681D01*
X141450000Y-46950000D02*
X141849999Y-47349999D01*
X141849999Y-47349999D02*
X154455684Y-47349999D01*
X156470002Y-45335681D02*
X156470002Y-44630000D01*
%TO.N,Net-(U1-Pad1)*%
X149370000Y-41250000D02*
X149150000Y-41030000D01*
X160760000Y-41250000D02*
X149370000Y-41250000D01*
D17*
%TO.N,/L_column1*%
X50800000Y-35400000D02*
X50800000Y-55600000D01*
X50450000Y-55250000D02*
X50450000Y-54900000D01*
X50800000Y-55600000D02*
X50450000Y-55250000D01*
X50450000Y-54900000D02*
X50450000Y-73900000D01*
X50450000Y-73900000D02*
X50450000Y-92400000D01*
X50450000Y-110900000D02*
X49950000Y-111400000D01*
X50450000Y-92400000D02*
X50450000Y-110900000D01*
X53300000Y-54900000D02*
X54700000Y-53500000D01*
X50450000Y-54900000D02*
X53300000Y-54900000D01*
X163410000Y-49950000D02*
X164650000Y-51190000D01*
X143950000Y-49950000D02*
X163410000Y-49950000D01*
X143700000Y-49700000D02*
X143950000Y-49950000D01*
%TO.N,/L_column2*%
X68450000Y-54300000D02*
X67950000Y-54800000D01*
X68450000Y-35900000D02*
X68450000Y-54300000D01*
X67950000Y-54800000D02*
X67950000Y-73900000D01*
X67950000Y-110900000D02*
X68450000Y-111400000D01*
X67950000Y-92900000D02*
X67950000Y-110900000D01*
X81572999Y-53872999D02*
X83600000Y-55900000D01*
X68877001Y-53872999D02*
X81572999Y-53872999D01*
X67950000Y-54800000D02*
X68877001Y-53872999D01*
X68600000Y-75350000D02*
X68600000Y-91450000D01*
X67950000Y-74700000D02*
X68600000Y-75350000D01*
X68600000Y-91450000D02*
X67950000Y-92100000D01*
X67950000Y-73900000D02*
X67950000Y-74700000D01*
X67950000Y-92100000D02*
X67950000Y-92900000D01*
X144957966Y-60050000D02*
X158330000Y-60050000D01*
X158330000Y-60050000D02*
X164650000Y-53730000D01*
X142203983Y-62803983D02*
X144957966Y-60050000D01*
%TO.N,/L_column3*%
X86450000Y-67900000D02*
X85950000Y-68400000D01*
X86450000Y-49400000D02*
X86450000Y-67900000D01*
X85950000Y-68400000D02*
X85950000Y-87900000D01*
X85950000Y-106400000D02*
X85450000Y-106900000D01*
X85950000Y-87900000D02*
X85950000Y-106400000D01*
X89100000Y-68400000D02*
X90600000Y-66900000D01*
X85950000Y-68400000D02*
X89100000Y-68400000D01*
X157120000Y-62600000D02*
X163450000Y-56270000D01*
X147050000Y-62600000D02*
X157120000Y-62600000D01*
X143150000Y-66500000D02*
X147050000Y-62600000D01*
X163450000Y-56270000D02*
X164650000Y-56270000D01*
X141900000Y-66500000D02*
X143150000Y-66500000D01*
X85950000Y-30900000D02*
X85950000Y-48900000D01*
X85950000Y-48900000D02*
X86450000Y-49400000D01*
%TO.N,/L_column4*%
X103950000Y-83550000D02*
X104600000Y-82900000D01*
X103950000Y-101900000D02*
X103950000Y-83550000D01*
X103950000Y-82250000D02*
X104600000Y-82900000D01*
X103950000Y-63900000D02*
X103950000Y-82250000D01*
X103950000Y-63900000D02*
X103950000Y-44900000D01*
X103950000Y-27750000D02*
X104400000Y-28200000D01*
X103950000Y-25900000D02*
X103950000Y-27750000D01*
X104000000Y-44850000D02*
X103950000Y-44900000D01*
X104000000Y-31200000D02*
X104000000Y-44850000D01*
X114200000Y-71500000D02*
X114200000Y-70300000D01*
X112850000Y-74200000D02*
X112850000Y-72850000D01*
X112850000Y-72850000D02*
X114200000Y-71500000D01*
X104600000Y-82450000D02*
X112850000Y-74200000D01*
X104600000Y-82900000D02*
X104600000Y-82450000D01*
X158310000Y-65150000D02*
X164650000Y-58810000D01*
X146950000Y-65150000D02*
X158310000Y-65150000D01*
X143000000Y-69100000D02*
X146950000Y-65150000D01*
%TO.N,/L_column5*%
X121950000Y-49750000D02*
X122100000Y-49900000D01*
X121950000Y-30900000D02*
X121950000Y-49750000D01*
X122100000Y-68750000D02*
X121950000Y-68900000D01*
X122100000Y-49900000D02*
X122100000Y-68750000D01*
X121950000Y-68900000D02*
X121950000Y-87700000D01*
X121950000Y-87700000D02*
X121950000Y-106900000D01*
X133000000Y-87700000D02*
X134700000Y-86000000D01*
X121950000Y-87700000D02*
X133000000Y-87700000D01*
X148950000Y-85100000D02*
X154850000Y-79200000D01*
X154850000Y-79200000D02*
X154850000Y-74256004D01*
X154850000Y-74256004D02*
X154880002Y-74226002D01*
X154880002Y-71119998D02*
X164650000Y-61350000D01*
X154880002Y-74226002D02*
X154880002Y-71119998D01*
X144000000Y-85100000D02*
X148950000Y-85100000D01*
%TO.N,/L_column6*%
X139800001Y-93049999D02*
X139950000Y-92900000D01*
X139800001Y-111299999D02*
X139800001Y-93049999D01*
X139450000Y-111650000D02*
X139800001Y-111299999D01*
X139950000Y-92900000D02*
X139950000Y-73400000D01*
X139800001Y-73250001D02*
X139950000Y-73400000D01*
X139800001Y-54750001D02*
X139800001Y-73250001D01*
X139450000Y-54400000D02*
X139800001Y-54750001D01*
X155750000Y-72790000D02*
X164650000Y-63890000D01*
X155750000Y-79600000D02*
X155750000Y-72790000D01*
X142450000Y-92900000D02*
X155750000Y-79600000D01*
X139950000Y-92900000D02*
X142450000Y-92900000D01*
X140650000Y-53200000D02*
X139450000Y-54400000D01*
X140650000Y-36600000D02*
X140650000Y-53200000D01*
X139950000Y-35900000D02*
X140650000Y-36600000D01*
%TO.N,/L_column7*%
X159200000Y-92900000D02*
X158950000Y-92650000D01*
X159200000Y-111650000D02*
X159200000Y-92900000D01*
X162600000Y-68400000D02*
X164570000Y-66430000D01*
X162600000Y-89650000D02*
X162600000Y-68400000D01*
X164570000Y-66430000D02*
X164650000Y-66430000D01*
X159600000Y-92650000D02*
X162600000Y-89650000D01*
X158950000Y-92650000D02*
X159600000Y-92650000D01*
%TO.N,/L_Row5*%
X146200000Y-100200000D02*
X146200000Y-96800000D01*
X146900000Y-96100000D02*
X146900000Y-94500000D01*
X146200000Y-96800000D02*
X146900000Y-96100000D01*
%TD*%
M02*
