%TF.GenerationSoftware,KiCad,Pcbnew,7.0.1-0*%
%TF.CreationDate,2024-04-28T15:56:18-07:00*%
%TF.ProjectId,swing-atreus,7377696e-672d-4617-9472-6575732e6b69,rev?*%
%TF.SameCoordinates,Original*%
%TF.FileFunction,Drillmap*%
%TF.FilePolarity,Positive*%
%FSLAX45Y45*%
G04 Gerber Fmt 4.5, Leading zero omitted, Abs format (unit mm)*
G04 Created by KiCad (PCBNEW 7.0.1-0) date 2024-04-28 15:56:18*
%MOMM*%
%LPD*%
G01*
G04 APERTURE LIST*
%ADD10C,0.050000*%
%ADD11C,0.200000*%
%ADD12C,0.190000*%
%ADD13C,0.505000*%
G04 APERTURE END LIST*
D10*
X7821472Y-5968972D02*
G75*
G03*
X6621472Y-7168972I0J-1200000D01*
G01*
X36138972Y-7168972D02*
G75*
G03*
X34938972Y-5968972I-1200000J0D01*
G01*
X7821472Y-5968972D02*
X34938972Y-5968972D01*
X6621472Y-17031472D02*
G75*
G03*
X7821472Y-18231472I1200000J0D01*
G01*
X6621472Y-17031472D02*
X6621472Y-7168972D01*
X34938972Y-18231472D02*
G75*
G03*
X36138972Y-17031472I0J1200000D01*
G01*
X36138972Y-7168972D02*
X36138972Y-17031472D01*
X34938972Y-18231472D02*
X7821472Y-18231472D01*
D11*
D12*
X7155723Y-14563672D02*
X7345723Y-14753672D01*
X7345723Y-14563672D02*
X7155723Y-14753672D01*
X7518260Y-12698580D02*
X7708260Y-12888580D01*
X7708260Y-12698580D02*
X7518260Y-12888580D01*
X7880797Y-10833489D02*
X8070797Y-11023489D01*
X8070797Y-10833489D02*
X7880797Y-11023489D01*
X8235513Y-14773562D02*
X8425513Y-14963562D01*
X8425513Y-14773562D02*
X8235513Y-14963562D01*
X8243334Y-8968397D02*
X8433335Y-9158397D01*
X8433335Y-8968397D02*
X8243334Y-9158397D01*
X8598050Y-12908470D02*
X8788050Y-13098470D01*
X8788050Y-12908470D02*
X8598050Y-13098470D01*
X8605872Y-7103305D02*
X8795872Y-7293305D01*
X8795872Y-7103305D02*
X8605872Y-7293305D01*
X8960588Y-11043378D02*
X9150588Y-11233378D01*
X9150588Y-11043378D02*
X8960588Y-11233378D01*
X9020815Y-14926209D02*
X9210815Y-15116209D01*
X9210815Y-14926209D02*
X9020815Y-15116209D01*
X9323125Y-9178287D02*
X9513125Y-9368287D01*
X9513125Y-9178287D02*
X9323125Y-9368287D01*
X9383352Y-13061117D02*
X9573352Y-13251117D01*
X9573352Y-13061117D02*
X9383352Y-13251117D01*
X9685662Y-7313195D02*
X9875662Y-7503195D01*
X9875662Y-7313195D02*
X9685662Y-7503195D01*
X9745889Y-11196026D02*
X9935889Y-11386026D01*
X9935889Y-11196026D02*
X9745889Y-11386026D01*
X10100605Y-15136099D02*
X10290605Y-15326099D01*
X10290605Y-15136099D02*
X10100605Y-15326099D01*
X10108426Y-9330934D02*
X10298426Y-9520934D01*
X10298426Y-9330934D02*
X10108426Y-9520934D01*
X10463142Y-13271007D02*
X10653142Y-13461007D01*
X10653142Y-13271007D02*
X10463142Y-13461007D01*
X10470963Y-7465842D02*
X10660963Y-7655842D01*
X10660963Y-7465842D02*
X10470963Y-7655842D01*
X10825679Y-11405915D02*
X11015679Y-11595915D01*
X11015679Y-11405915D02*
X10825679Y-11595915D01*
X10981311Y-14797932D02*
X11171311Y-14987932D01*
X11171311Y-14797932D02*
X10981311Y-14987932D01*
X11188216Y-9540824D02*
X11378216Y-9730824D01*
X11378216Y-9540824D02*
X11188216Y-9730824D01*
X11343848Y-12932841D02*
X11533848Y-13122841D01*
X11533848Y-12932841D02*
X11343848Y-13122841D01*
X11550753Y-7675732D02*
X11740753Y-7865732D01*
X11740753Y-7675732D02*
X11550753Y-7865732D01*
X11706385Y-11067749D02*
X11896385Y-11257749D01*
X11896385Y-11067749D02*
X11706385Y-11257749D01*
X12061101Y-15007822D02*
X12251101Y-15197822D01*
X12251101Y-15007822D02*
X12061101Y-15197822D01*
X12068922Y-9202657D02*
X12258922Y-9392657D01*
X12258922Y-9202657D02*
X12068922Y-9392657D01*
X12423638Y-13142730D02*
X12613638Y-13332730D01*
X12613638Y-13142730D02*
X12423638Y-13332730D01*
X12431459Y-7337566D02*
X12621459Y-7527566D01*
X12621459Y-7337566D02*
X12431459Y-7527566D01*
X12786175Y-11277639D02*
X12976175Y-11467639D01*
X12976175Y-11277639D02*
X12786175Y-11467639D01*
X12941807Y-14669656D02*
X13131807Y-14859656D01*
X13131807Y-14669656D02*
X12941807Y-14859656D01*
X13148712Y-9412547D02*
X13338712Y-9602547D01*
X13338712Y-9412547D02*
X13148712Y-9602547D01*
X13304344Y-12804564D02*
X13494344Y-12994564D01*
X13494344Y-12804564D02*
X13304344Y-12994564D01*
X13511249Y-7547456D02*
X13701249Y-7737456D01*
X13701249Y-7547456D02*
X13511249Y-7737456D01*
X13666881Y-10939473D02*
X13856881Y-11129473D01*
X13856881Y-10939473D02*
X13666881Y-11129473D01*
X14021597Y-14879546D02*
X14211597Y-15069546D01*
X14211597Y-14879546D02*
X14021597Y-15069546D01*
X14029418Y-9074381D02*
X14219418Y-9264381D01*
X14219418Y-9074381D02*
X14029418Y-9264381D01*
X14384134Y-13014454D02*
X14574134Y-13204454D01*
X14574134Y-13014454D02*
X14384134Y-13204454D01*
X14391956Y-7209289D02*
X14581956Y-7399289D01*
X14581956Y-7209289D02*
X14391956Y-7399289D01*
X14711494Y-15523007D02*
X14901494Y-15713007D01*
X14901494Y-15523007D02*
X14711494Y-15713007D01*
X14746671Y-11149362D02*
X14936671Y-11339362D01*
X14936671Y-11149362D02*
X14746671Y-11339362D01*
X15074031Y-13657915D02*
X15264031Y-13847915D01*
X15264031Y-13657915D02*
X15074031Y-13847915D01*
X15109208Y-9284271D02*
X15299208Y-9474271D01*
X15299208Y-9284271D02*
X15109208Y-9474271D01*
X15436568Y-11792823D02*
X15626568Y-11982823D01*
X15626568Y-11792823D02*
X15436568Y-11982823D01*
X15471746Y-7419179D02*
X15661746Y-7609179D01*
X15661746Y-7419179D02*
X15471746Y-7609179D01*
X15791284Y-15732896D02*
X15981284Y-15922896D01*
X15981284Y-15732896D02*
X15791284Y-15922896D01*
X15799106Y-9927732D02*
X15989106Y-10117732D01*
X15989106Y-9927732D02*
X15799106Y-10117732D01*
X16153821Y-13867805D02*
X16343821Y-14057805D01*
X16343821Y-13867805D02*
X16153821Y-14057805D01*
X16161643Y-8062640D02*
X16351643Y-8252640D01*
X16351643Y-8062640D02*
X16161643Y-8252640D01*
X16477365Y-16395990D02*
X16667365Y-16585990D01*
X16667365Y-16395990D02*
X16477365Y-16585990D01*
X16516358Y-12002713D02*
X16706358Y-12192713D01*
X16706358Y-12002713D02*
X16516358Y-12192713D01*
X16843719Y-14511266D02*
X17033719Y-14701266D01*
X17033719Y-14511266D02*
X16843719Y-14701266D01*
X16878896Y-10137621D02*
X17068896Y-10327621D01*
X17068896Y-10137621D02*
X16878896Y-10327621D01*
X17206256Y-12646174D02*
X17396256Y-12836174D01*
X17396256Y-12646174D02*
X17206256Y-12836174D01*
X17241433Y-8272530D02*
X17431433Y-8462530D01*
X17431433Y-8272530D02*
X17241433Y-8462530D01*
X17557155Y-16605880D02*
X17747155Y-16795880D01*
X17747155Y-16605880D02*
X17557155Y-16795880D01*
X17568793Y-10781082D02*
X17758793Y-10971082D01*
X17758793Y-10781082D02*
X17568793Y-10971082D01*
X17923509Y-14721155D02*
X18113509Y-14911155D01*
X18113509Y-14721155D02*
X17923509Y-14911155D01*
X17931330Y-8915991D02*
X18121330Y-9105991D01*
X18121330Y-8915991D02*
X17931330Y-9105991D01*
X18286046Y-12856064D02*
X18476046Y-13046064D01*
X18476046Y-12856064D02*
X18286046Y-13046064D01*
X18454149Y-16197022D02*
X18644149Y-16387022D01*
X18644149Y-16197022D02*
X18454149Y-16387022D01*
X18648583Y-10990972D02*
X18838583Y-11180972D01*
X18838583Y-10990972D02*
X18648583Y-11180972D01*
X18817163Y-14329477D02*
X19007163Y-14519477D01*
X19007163Y-14329477D02*
X18817163Y-14519477D01*
X19011120Y-9125880D02*
X19201120Y-9315880D01*
X19201120Y-9125880D02*
X19011120Y-9315880D01*
X19533939Y-16406912D02*
X19723939Y-16596912D01*
X19723939Y-16406912D02*
X19533939Y-16596912D01*
X19896953Y-14539366D02*
X20086953Y-14729366D01*
X20086953Y-14539366D02*
X19896953Y-14729366D01*
X22570404Y-14548077D02*
X22760404Y-14738077D01*
X22760404Y-14548077D02*
X22570404Y-14738077D01*
X22931510Y-16405806D02*
X23121510Y-16595806D01*
X23121510Y-16405806D02*
X22931510Y-16595806D01*
X23554257Y-9232690D02*
X23744257Y-9422690D01*
X23744257Y-9232690D02*
X23554257Y-9422690D01*
X23650194Y-14338187D02*
X23840194Y-14528187D01*
X23840194Y-14338187D02*
X23650194Y-14528187D01*
X23919248Y-11097305D02*
X24109248Y-11287305D01*
X24109248Y-11097305D02*
X23919248Y-11287305D01*
X24011300Y-16195916D02*
X24201300Y-16385916D01*
X24201300Y-16195916D02*
X24011300Y-16385916D01*
X24274423Y-12963828D02*
X24464423Y-13153828D01*
X24464423Y-12963828D02*
X24274423Y-13153828D01*
X24632529Y-14832327D02*
X24822529Y-15022327D01*
X24822529Y-14832327D02*
X24632529Y-15022327D01*
X24634047Y-9022800D02*
X24824047Y-9212800D01*
X24824047Y-9022800D02*
X24634047Y-9212800D01*
X24990635Y-16700827D02*
X25180635Y-16890827D01*
X25180635Y-16700827D02*
X24990635Y-16890827D01*
X24999038Y-10887415D02*
X25189038Y-11077415D01*
X25189038Y-10887415D02*
X24999038Y-11077415D01*
X25328375Y-8375931D02*
X25518375Y-8565931D01*
X25518375Y-8375931D02*
X25328375Y-8565931D01*
X25354213Y-12753938D02*
X25544213Y-12943938D01*
X25544213Y-12753938D02*
X25354213Y-12943938D01*
X25694389Y-10232707D02*
X25884389Y-10422707D01*
X25884389Y-10232707D02*
X25694389Y-10422707D01*
X25712319Y-14622437D02*
X25902319Y-14812437D01*
X25902319Y-14622437D02*
X25712319Y-14812437D01*
X26050041Y-12101684D02*
X26240041Y-12291684D01*
X26240041Y-12101684D02*
X26050041Y-12291684D01*
X26070425Y-16490937D02*
X26260425Y-16680937D01*
X26260425Y-16490937D02*
X26070425Y-16680937D01*
X26408165Y-8166042D02*
X26598165Y-8356042D01*
X26598165Y-8166042D02*
X26408165Y-8356042D01*
X26414963Y-13979046D02*
X26604963Y-14169046D01*
X26604963Y-13979046D02*
X26414963Y-14169046D01*
X26774179Y-10022817D02*
X26964179Y-10212817D01*
X26964179Y-10022817D02*
X26774179Y-10212817D01*
X26780500Y-15833367D02*
X26970500Y-16023367D01*
X26970500Y-15833367D02*
X26780500Y-16023367D01*
X27104401Y-7528989D02*
X27294401Y-7718989D01*
X27294401Y-7528989D02*
X27104401Y-7718989D01*
X27129831Y-11891794D02*
X27319831Y-12081794D01*
X27319831Y-11891794D02*
X27129831Y-12081794D01*
X27473278Y-9400489D02*
X27663278Y-9590489D01*
X27663278Y-9400489D02*
X27473278Y-9590489D01*
X27494753Y-13769156D02*
X27684753Y-13959156D01*
X27684753Y-13769156D02*
X27494753Y-13959156D01*
X27824498Y-11272874D02*
X28014498Y-11462874D01*
X28014498Y-11272874D02*
X27824498Y-11462874D01*
X27860290Y-15623477D02*
X28050290Y-15813477D01*
X28050290Y-15623477D02*
X27860290Y-15813477D01*
X28184191Y-7319099D02*
X28374191Y-7509099D01*
X28374191Y-7319099D02*
X28184191Y-7509099D01*
X28198553Y-13184115D02*
X28388553Y-13374115D01*
X28388553Y-13184115D02*
X28198553Y-13374115D01*
X28553068Y-9190599D02*
X28743068Y-9380599D01*
X28743068Y-9190599D02*
X28553068Y-9380599D01*
X28575878Y-15125283D02*
X28765878Y-15315283D01*
X28765878Y-15125283D02*
X28575878Y-15315283D01*
X28904288Y-11062984D02*
X29094288Y-11252984D01*
X29094288Y-11062984D02*
X28904288Y-11252984D01*
X29057535Y-7658696D02*
X29247535Y-7848696D01*
X29247535Y-7658696D02*
X29057535Y-7848696D01*
X29278343Y-12974226D02*
X29468343Y-13164226D01*
X29468343Y-12974226D02*
X29278343Y-13164226D01*
X29440113Y-9535173D02*
X29630113Y-9725173D01*
X29630113Y-9535173D02*
X29440113Y-9725173D01*
X29655668Y-14915393D02*
X29845668Y-15105393D01*
X29845668Y-14915393D02*
X29655668Y-15105393D01*
X29791673Y-11435507D02*
X29981673Y-11625507D01*
X29981673Y-11435507D02*
X29791673Y-11625507D01*
X30132807Y-13269104D02*
X30322807Y-13459104D01*
X30322807Y-13269104D02*
X30132807Y-13459104D01*
X30137325Y-7448807D02*
X30327325Y-7638807D01*
X30327325Y-7448807D02*
X30137325Y-7638807D01*
X30519903Y-9325284D02*
X30709903Y-9515284D01*
X30709903Y-9325284D02*
X30519903Y-9515284D01*
X30541972Y-15125132D02*
X30731972Y-15315132D01*
X30731972Y-15125132D02*
X30541972Y-15315132D01*
X30871463Y-11225617D02*
X31061463Y-11415617D01*
X31061463Y-11225617D02*
X30871463Y-11415617D01*
X31027302Y-7795358D02*
X31217302Y-7985358D01*
X31217302Y-7795358D02*
X31027302Y-7985358D01*
X31212597Y-13059214D02*
X31402597Y-13249214D01*
X31402597Y-13059214D02*
X31212597Y-13249214D01*
X31389839Y-9660450D02*
X31579839Y-9850450D01*
X31579839Y-9660450D02*
X31389839Y-9850450D01*
X31621762Y-14915242D02*
X31811762Y-15105242D01*
X31811762Y-14915242D02*
X31621762Y-15105242D01*
X31761169Y-11531473D02*
X31951169Y-11721473D01*
X31951169Y-11531473D02*
X31761169Y-11721473D01*
X32107092Y-7585468D02*
X32297092Y-7775468D01*
X32297092Y-7585468D02*
X32107092Y-7775468D01*
X32131068Y-13395133D02*
X32321068Y-13585133D01*
X32321068Y-13395133D02*
X32131068Y-13585133D01*
X32469629Y-9450560D02*
X32659629Y-9640560D01*
X32659629Y-9450560D02*
X32469629Y-9640560D01*
X32486243Y-15261656D02*
X32676243Y-15451656D01*
X32676243Y-15261656D02*
X32486243Y-15451656D01*
X32840959Y-11321583D02*
X33030959Y-11511583D01*
X33030959Y-11321583D02*
X32840959Y-11511583D01*
X32904664Y-7430436D02*
X33094664Y-7620436D01*
X33094664Y-7430436D02*
X32904664Y-7620436D01*
X33210858Y-13185243D02*
X33400858Y-13375243D01*
X33400858Y-13185243D02*
X33210858Y-13375243D01*
X33265701Y-9300913D02*
X33455701Y-9490913D01*
X33455701Y-9300913D02*
X33265701Y-9490913D01*
X33566033Y-15051766D02*
X33756033Y-15241766D01*
X33756033Y-15051766D02*
X33566033Y-15241766D01*
X33626468Y-11130693D02*
X33816468Y-11320693D01*
X33816468Y-11130693D02*
X33626468Y-11320693D01*
X33984454Y-7220546D02*
X34174454Y-7410546D01*
X34174454Y-7220546D02*
X33984454Y-7410546D01*
X33998068Y-13042412D02*
X34188068Y-13232412D01*
X34188068Y-13042412D02*
X33998068Y-13232412D01*
X34345491Y-9091023D02*
X34535491Y-9281023D01*
X34535491Y-9091023D02*
X34345491Y-9281023D01*
X34357266Y-14890325D02*
X34547266Y-15080325D01*
X34547266Y-14890325D02*
X34357266Y-15080325D01*
X34706258Y-10920804D02*
X34896258Y-11110804D01*
X34896258Y-10920804D02*
X34706258Y-11110804D01*
X35077858Y-12832523D02*
X35267858Y-13022523D01*
X35267858Y-12832523D02*
X35077858Y-13022523D01*
X35437056Y-14680436D02*
X35627056Y-14870436D01*
X35627056Y-14680436D02*
X35437056Y-14870436D01*
D13*
X8043118Y-14763617D02*
G75*
G03*
X8043118Y-14763617I-252500J0D01*
G01*
X8405655Y-12898525D02*
G75*
G03*
X8405655Y-12898525I-252500J0D01*
G01*
X8768193Y-11033433D02*
G75*
G03*
X8768193Y-11033433I-252500J0D01*
G01*
X9130730Y-9168342D02*
G75*
G03*
X9130730Y-9168342I-252500J0D01*
G01*
X9493267Y-7303250D02*
G75*
G03*
X9493267Y-7303250I-252500J0D01*
G01*
X9908210Y-15126154D02*
G75*
G03*
X9908210Y-15126154I-252500J0D01*
G01*
X10270747Y-13261062D02*
G75*
G03*
X10270747Y-13261062I-252500J0D01*
G01*
X10633284Y-11395970D02*
G75*
G03*
X10633284Y-11395970I-252500J0D01*
G01*
X10995821Y-9530879D02*
G75*
G03*
X10995821Y-9530879I-252500J0D01*
G01*
X11358358Y-7665787D02*
G75*
G03*
X11358358Y-7665787I-252500J0D01*
G01*
X11868706Y-14997877D02*
G75*
G03*
X11868706Y-14997877I-252500J0D01*
G01*
X12231243Y-13132786D02*
G75*
G03*
X12231243Y-13132786I-252500J0D01*
G01*
X12593780Y-11267694D02*
G75*
G03*
X12593780Y-11267694I-252500J0D01*
G01*
X12956317Y-9402602D02*
G75*
G03*
X12956317Y-9402602I-252500J0D01*
G01*
X13318854Y-7537511D02*
G75*
G03*
X13318854Y-7537511I-252500J0D01*
G01*
X13829202Y-14869601D02*
G75*
G03*
X13829202Y-14869601I-252500J0D01*
G01*
X14191739Y-13004509D02*
G75*
G03*
X14191739Y-13004509I-252500J0D01*
G01*
X14554276Y-11139418D02*
G75*
G03*
X14554276Y-11139418I-252500J0D01*
G01*
X14916813Y-9274326D02*
G75*
G03*
X14916813Y-9274326I-252500J0D01*
G01*
X15279351Y-7409234D02*
G75*
G03*
X15279351Y-7409234I-252500J0D01*
G01*
X15598889Y-15722951D02*
G75*
G03*
X15598889Y-15722951I-252500J0D01*
G01*
X15961426Y-13857860D02*
G75*
G03*
X15961426Y-13857860I-252500J0D01*
G01*
X16323963Y-11992768D02*
G75*
G03*
X16323963Y-11992768I-252500J0D01*
G01*
X16686501Y-10127677D02*
G75*
G03*
X16686501Y-10127677I-252500J0D01*
G01*
X17049038Y-8262585D02*
G75*
G03*
X17049038Y-8262585I-252500J0D01*
G01*
X17364760Y-16595935D02*
G75*
G03*
X17364760Y-16595935I-252500J0D01*
G01*
X17731114Y-14711210D02*
G75*
G03*
X17731114Y-14711210I-252500J0D01*
G01*
X18093651Y-12846119D02*
G75*
G03*
X18093651Y-12846119I-252500J0D01*
G01*
X18456188Y-10981027D02*
G75*
G03*
X18456188Y-10981027I-252500J0D01*
G01*
X18818725Y-9115936D02*
G75*
G03*
X18818725Y-9115936I-252500J0D01*
G01*
X19341544Y-16396967D02*
G75*
G03*
X19341544Y-16396967I-252500J0D01*
G01*
X19704558Y-14529421D02*
G75*
G03*
X19704558Y-14529421I-252500J0D01*
G01*
X23457799Y-14538132D02*
G75*
G03*
X23457799Y-14538132I-252500J0D01*
G01*
X23818905Y-16395861D02*
G75*
G03*
X23818905Y-16395861I-252500J0D01*
G01*
X24441652Y-9222745D02*
G75*
G03*
X24441652Y-9222745I-252500J0D01*
G01*
X24806643Y-11087360D02*
G75*
G03*
X24806643Y-11087360I-252500J0D01*
G01*
X25161818Y-12953883D02*
G75*
G03*
X25161818Y-12953883I-252500J0D01*
G01*
X25519924Y-14822382D02*
G75*
G03*
X25519924Y-14822382I-252500J0D01*
G01*
X25878030Y-16690882D02*
G75*
G03*
X25878030Y-16690882I-252500J0D01*
G01*
X26215770Y-8365986D02*
G75*
G03*
X26215770Y-8365986I-252500J0D01*
G01*
X26581784Y-10222762D02*
G75*
G03*
X26581784Y-10222762I-252500J0D01*
G01*
X26937436Y-12091739D02*
G75*
G03*
X26937436Y-12091739I-252500J0D01*
G01*
X27302358Y-13969101D02*
G75*
G03*
X27302358Y-13969101I-252500J0D01*
G01*
X27667895Y-15823422D02*
G75*
G03*
X27667895Y-15823422I-252500J0D01*
G01*
X27991796Y-7519044D02*
G75*
G03*
X27991796Y-7519044I-252500J0D01*
G01*
X28360673Y-9390544D02*
G75*
G03*
X28360673Y-9390544I-252500J0D01*
G01*
X28711893Y-11262929D02*
G75*
G03*
X28711893Y-11262929I-252500J0D01*
G01*
X29085948Y-13174171D02*
G75*
G03*
X29085948Y-13174171I-252500J0D01*
G01*
X29463273Y-15115338D02*
G75*
G03*
X29463273Y-15115338I-252500J0D01*
G01*
X29944930Y-7648752D02*
G75*
G03*
X29944930Y-7648752I-252500J0D01*
G01*
X30327508Y-9525229D02*
G75*
G03*
X30327508Y-9525229I-252500J0D01*
G01*
X30679068Y-11425562D02*
G75*
G03*
X30679068Y-11425562I-252500J0D01*
G01*
X31020202Y-13259159D02*
G75*
G03*
X31020202Y-13259159I-252500J0D01*
G01*
X31429367Y-15115187D02*
G75*
G03*
X31429367Y-15115187I-252500J0D01*
G01*
X31914697Y-7785413D02*
G75*
G03*
X31914697Y-7785413I-252500J0D01*
G01*
X32277234Y-9650505D02*
G75*
G03*
X32277234Y-9650505I-252500J0D01*
G01*
X32648564Y-11521528D02*
G75*
G03*
X32648564Y-11521528I-252500J0D01*
G01*
X33018463Y-13385188D02*
G75*
G03*
X33018463Y-13385188I-252500J0D01*
G01*
X33373638Y-15251711D02*
G75*
G03*
X33373638Y-15251711I-252500J0D01*
G01*
X33792059Y-7420491D02*
G75*
G03*
X33792059Y-7420491I-252500J0D01*
G01*
X34153096Y-9290968D02*
G75*
G03*
X34153096Y-9290968I-252500J0D01*
G01*
X34513863Y-11120749D02*
G75*
G03*
X34513863Y-11120749I-252500J0D01*
G01*
X34885463Y-13032467D02*
G75*
G03*
X34885463Y-13032467I-252500J0D01*
G01*
X35244661Y-14880381D02*
G75*
G03*
X35244661Y-14880381I-252500J0D01*
G01*
D11*
X6866591Y-18546496D02*
X6866591Y-18346496D01*
X6866591Y-18346496D02*
X6914210Y-18346496D01*
X6914210Y-18346496D02*
X6942781Y-18356020D01*
X6942781Y-18356020D02*
X6961829Y-18375067D01*
X6961829Y-18375067D02*
X6971353Y-18394115D01*
X6971353Y-18394115D02*
X6980877Y-18432210D01*
X6980877Y-18432210D02*
X6980877Y-18460781D01*
X6980877Y-18460781D02*
X6971353Y-18498877D01*
X6971353Y-18498877D02*
X6961829Y-18517924D01*
X6961829Y-18517924D02*
X6942781Y-18536972D01*
X6942781Y-18536972D02*
X6914210Y-18546496D01*
X6914210Y-18546496D02*
X6866591Y-18546496D01*
X7066591Y-18546496D02*
X7066591Y-18413162D01*
X7066591Y-18451258D02*
X7076115Y-18432210D01*
X7076115Y-18432210D02*
X7085638Y-18422686D01*
X7085638Y-18422686D02*
X7104686Y-18413162D01*
X7104686Y-18413162D02*
X7123734Y-18413162D01*
X7190400Y-18546496D02*
X7190400Y-18413162D01*
X7190400Y-18346496D02*
X7180877Y-18356020D01*
X7180877Y-18356020D02*
X7190400Y-18365543D01*
X7190400Y-18365543D02*
X7199924Y-18356020D01*
X7199924Y-18356020D02*
X7190400Y-18346496D01*
X7190400Y-18346496D02*
X7190400Y-18365543D01*
X7314210Y-18546496D02*
X7295162Y-18536972D01*
X7295162Y-18536972D02*
X7285638Y-18517924D01*
X7285638Y-18517924D02*
X7285638Y-18346496D01*
X7418972Y-18546496D02*
X7399924Y-18536972D01*
X7399924Y-18536972D02*
X7390400Y-18517924D01*
X7390400Y-18517924D02*
X7390400Y-18346496D01*
X7647543Y-18546496D02*
X7647543Y-18346496D01*
X7647543Y-18346496D02*
X7714210Y-18489353D01*
X7714210Y-18489353D02*
X7780877Y-18346496D01*
X7780877Y-18346496D02*
X7780877Y-18546496D01*
X7961829Y-18546496D02*
X7961829Y-18441734D01*
X7961829Y-18441734D02*
X7952305Y-18422686D01*
X7952305Y-18422686D02*
X7933258Y-18413162D01*
X7933258Y-18413162D02*
X7895162Y-18413162D01*
X7895162Y-18413162D02*
X7876115Y-18422686D01*
X7961829Y-18536972D02*
X7942781Y-18546496D01*
X7942781Y-18546496D02*
X7895162Y-18546496D01*
X7895162Y-18546496D02*
X7876115Y-18536972D01*
X7876115Y-18536972D02*
X7866591Y-18517924D01*
X7866591Y-18517924D02*
X7866591Y-18498877D01*
X7866591Y-18498877D02*
X7876115Y-18479829D01*
X7876115Y-18479829D02*
X7895162Y-18470305D01*
X7895162Y-18470305D02*
X7942781Y-18470305D01*
X7942781Y-18470305D02*
X7961829Y-18460781D01*
X8057067Y-18413162D02*
X8057067Y-18613162D01*
X8057067Y-18422686D02*
X8076115Y-18413162D01*
X8076115Y-18413162D02*
X8114210Y-18413162D01*
X8114210Y-18413162D02*
X8133258Y-18422686D01*
X8133258Y-18422686D02*
X8142781Y-18432210D01*
X8142781Y-18432210D02*
X8152305Y-18451258D01*
X8152305Y-18451258D02*
X8152305Y-18508400D01*
X8152305Y-18508400D02*
X8142781Y-18527448D01*
X8142781Y-18527448D02*
X8133258Y-18536972D01*
X8133258Y-18536972D02*
X8114210Y-18546496D01*
X8114210Y-18546496D02*
X8076115Y-18546496D01*
X8076115Y-18546496D02*
X8057067Y-18536972D01*
X8238019Y-18527448D02*
X8247543Y-18536972D01*
X8247543Y-18536972D02*
X8238019Y-18546496D01*
X8238019Y-18546496D02*
X8228496Y-18536972D01*
X8228496Y-18536972D02*
X8238019Y-18527448D01*
X8238019Y-18527448D02*
X8238019Y-18546496D01*
X8238019Y-18422686D02*
X8247543Y-18432210D01*
X8247543Y-18432210D02*
X8238019Y-18441734D01*
X8238019Y-18441734D02*
X8228496Y-18432210D01*
X8228496Y-18432210D02*
X8238019Y-18422686D01*
X8238019Y-18422686D02*
X8238019Y-18441734D01*
D12*
X6428972Y-18778972D02*
X6618972Y-18968972D01*
X6618972Y-18778972D02*
X6428972Y-18968972D01*
D11*
X6971353Y-18966496D02*
X6857067Y-18966496D01*
X6914210Y-18966496D02*
X6914210Y-18766496D01*
X6914210Y-18766496D02*
X6895162Y-18795067D01*
X6895162Y-18795067D02*
X6876115Y-18814115D01*
X6876115Y-18814115D02*
X6857067Y-18823639D01*
X7057067Y-18947448D02*
X7066591Y-18956972D01*
X7066591Y-18956972D02*
X7057067Y-18966496D01*
X7057067Y-18966496D02*
X7047543Y-18956972D01*
X7047543Y-18956972D02*
X7057067Y-18947448D01*
X7057067Y-18947448D02*
X7057067Y-18966496D01*
X7161829Y-18966496D02*
X7199924Y-18966496D01*
X7199924Y-18966496D02*
X7218972Y-18956972D01*
X7218972Y-18956972D02*
X7228496Y-18947448D01*
X7228496Y-18947448D02*
X7247543Y-18918877D01*
X7247543Y-18918877D02*
X7257067Y-18880781D01*
X7257067Y-18880781D02*
X7257067Y-18804591D01*
X7257067Y-18804591D02*
X7247543Y-18785543D01*
X7247543Y-18785543D02*
X7238019Y-18776020D01*
X7238019Y-18776020D02*
X7218972Y-18766496D01*
X7218972Y-18766496D02*
X7180877Y-18766496D01*
X7180877Y-18766496D02*
X7161829Y-18776020D01*
X7161829Y-18776020D02*
X7152305Y-18785543D01*
X7152305Y-18785543D02*
X7142781Y-18804591D01*
X7142781Y-18804591D02*
X7142781Y-18852210D01*
X7142781Y-18852210D02*
X7152305Y-18871258D01*
X7152305Y-18871258D02*
X7161829Y-18880781D01*
X7161829Y-18880781D02*
X7180877Y-18890305D01*
X7180877Y-18890305D02*
X7218972Y-18890305D01*
X7218972Y-18890305D02*
X7238019Y-18880781D01*
X7238019Y-18880781D02*
X7247543Y-18871258D01*
X7247543Y-18871258D02*
X7257067Y-18852210D01*
X7380877Y-18766496D02*
X7399924Y-18766496D01*
X7399924Y-18766496D02*
X7418972Y-18776020D01*
X7418972Y-18776020D02*
X7428496Y-18785543D01*
X7428496Y-18785543D02*
X7438019Y-18804591D01*
X7438019Y-18804591D02*
X7447543Y-18842686D01*
X7447543Y-18842686D02*
X7447543Y-18890305D01*
X7447543Y-18890305D02*
X7438019Y-18928400D01*
X7438019Y-18928400D02*
X7428496Y-18947448D01*
X7428496Y-18947448D02*
X7418972Y-18956972D01*
X7418972Y-18956972D02*
X7399924Y-18966496D01*
X7399924Y-18966496D02*
X7380877Y-18966496D01*
X7380877Y-18966496D02*
X7361829Y-18956972D01*
X7361829Y-18956972D02*
X7352305Y-18947448D01*
X7352305Y-18947448D02*
X7342781Y-18928400D01*
X7342781Y-18928400D02*
X7333258Y-18890305D01*
X7333258Y-18890305D02*
X7333258Y-18842686D01*
X7333258Y-18842686D02*
X7342781Y-18804591D01*
X7342781Y-18804591D02*
X7352305Y-18785543D01*
X7352305Y-18785543D02*
X7361829Y-18776020D01*
X7361829Y-18776020D02*
X7380877Y-18766496D01*
X7571353Y-18766496D02*
X7590400Y-18766496D01*
X7590400Y-18766496D02*
X7609448Y-18776020D01*
X7609448Y-18776020D02*
X7618972Y-18785543D01*
X7618972Y-18785543D02*
X7628496Y-18804591D01*
X7628496Y-18804591D02*
X7638019Y-18842686D01*
X7638019Y-18842686D02*
X7638019Y-18890305D01*
X7638019Y-18890305D02*
X7628496Y-18928400D01*
X7628496Y-18928400D02*
X7618972Y-18947448D01*
X7618972Y-18947448D02*
X7609448Y-18956972D01*
X7609448Y-18956972D02*
X7590400Y-18966496D01*
X7590400Y-18966496D02*
X7571353Y-18966496D01*
X7571353Y-18966496D02*
X7552305Y-18956972D01*
X7552305Y-18956972D02*
X7542781Y-18947448D01*
X7542781Y-18947448D02*
X7533258Y-18928400D01*
X7533258Y-18928400D02*
X7523734Y-18890305D01*
X7523734Y-18890305D02*
X7523734Y-18842686D01*
X7523734Y-18842686D02*
X7533258Y-18804591D01*
X7533258Y-18804591D02*
X7542781Y-18785543D01*
X7542781Y-18785543D02*
X7552305Y-18776020D01*
X7552305Y-18776020D02*
X7571353Y-18766496D01*
X7723734Y-18966496D02*
X7723734Y-18833162D01*
X7723734Y-18852210D02*
X7733258Y-18842686D01*
X7733258Y-18842686D02*
X7752305Y-18833162D01*
X7752305Y-18833162D02*
X7780877Y-18833162D01*
X7780877Y-18833162D02*
X7799924Y-18842686D01*
X7799924Y-18842686D02*
X7809448Y-18861734D01*
X7809448Y-18861734D02*
X7809448Y-18966496D01*
X7809448Y-18861734D02*
X7818972Y-18842686D01*
X7818972Y-18842686D02*
X7838019Y-18833162D01*
X7838019Y-18833162D02*
X7866591Y-18833162D01*
X7866591Y-18833162D02*
X7885639Y-18842686D01*
X7885639Y-18842686D02*
X7895162Y-18861734D01*
X7895162Y-18861734D02*
X7895162Y-18966496D01*
X7990400Y-18966496D02*
X7990400Y-18833162D01*
X7990400Y-18852210D02*
X7999924Y-18842686D01*
X7999924Y-18842686D02*
X8018972Y-18833162D01*
X8018972Y-18833162D02*
X8047543Y-18833162D01*
X8047543Y-18833162D02*
X8066591Y-18842686D01*
X8066591Y-18842686D02*
X8076115Y-18861734D01*
X8076115Y-18861734D02*
X8076115Y-18966496D01*
X8076115Y-18861734D02*
X8085639Y-18842686D01*
X8085639Y-18842686D02*
X8104686Y-18833162D01*
X8104686Y-18833162D02*
X8133258Y-18833162D01*
X8133258Y-18833162D02*
X8152305Y-18842686D01*
X8152305Y-18842686D02*
X8161829Y-18861734D01*
X8161829Y-18861734D02*
X8161829Y-18966496D01*
X8552305Y-18756972D02*
X8380877Y-19014115D01*
X8809448Y-18766496D02*
X8828496Y-18766496D01*
X8828496Y-18766496D02*
X8847544Y-18776020D01*
X8847544Y-18776020D02*
X8857067Y-18785543D01*
X8857067Y-18785543D02*
X8866591Y-18804591D01*
X8866591Y-18804591D02*
X8876115Y-18842686D01*
X8876115Y-18842686D02*
X8876115Y-18890305D01*
X8876115Y-18890305D02*
X8866591Y-18928400D01*
X8866591Y-18928400D02*
X8857067Y-18947448D01*
X8857067Y-18947448D02*
X8847544Y-18956972D01*
X8847544Y-18956972D02*
X8828496Y-18966496D01*
X8828496Y-18966496D02*
X8809448Y-18966496D01*
X8809448Y-18966496D02*
X8790401Y-18956972D01*
X8790401Y-18956972D02*
X8780877Y-18947448D01*
X8780877Y-18947448D02*
X8771353Y-18928400D01*
X8771353Y-18928400D02*
X8761829Y-18890305D01*
X8761829Y-18890305D02*
X8761829Y-18842686D01*
X8761829Y-18842686D02*
X8771353Y-18804591D01*
X8771353Y-18804591D02*
X8780877Y-18785543D01*
X8780877Y-18785543D02*
X8790401Y-18776020D01*
X8790401Y-18776020D02*
X8809448Y-18766496D01*
X8961829Y-18947448D02*
X8971353Y-18956972D01*
X8971353Y-18956972D02*
X8961829Y-18966496D01*
X8961829Y-18966496D02*
X8952305Y-18956972D01*
X8952305Y-18956972D02*
X8961829Y-18947448D01*
X8961829Y-18947448D02*
X8961829Y-18966496D01*
X9095163Y-18766496D02*
X9114210Y-18766496D01*
X9114210Y-18766496D02*
X9133258Y-18776020D01*
X9133258Y-18776020D02*
X9142782Y-18785543D01*
X9142782Y-18785543D02*
X9152305Y-18804591D01*
X9152305Y-18804591D02*
X9161829Y-18842686D01*
X9161829Y-18842686D02*
X9161829Y-18890305D01*
X9161829Y-18890305D02*
X9152305Y-18928400D01*
X9152305Y-18928400D02*
X9142782Y-18947448D01*
X9142782Y-18947448D02*
X9133258Y-18956972D01*
X9133258Y-18956972D02*
X9114210Y-18966496D01*
X9114210Y-18966496D02*
X9095163Y-18966496D01*
X9095163Y-18966496D02*
X9076115Y-18956972D01*
X9076115Y-18956972D02*
X9066591Y-18947448D01*
X9066591Y-18947448D02*
X9057067Y-18928400D01*
X9057067Y-18928400D02*
X9047544Y-18890305D01*
X9047544Y-18890305D02*
X9047544Y-18842686D01*
X9047544Y-18842686D02*
X9057067Y-18804591D01*
X9057067Y-18804591D02*
X9066591Y-18785543D01*
X9066591Y-18785543D02*
X9076115Y-18776020D01*
X9076115Y-18776020D02*
X9095163Y-18766496D01*
X9228496Y-18766496D02*
X9361829Y-18766496D01*
X9361829Y-18766496D02*
X9276115Y-18966496D01*
X9523734Y-18833162D02*
X9523734Y-18966496D01*
X9476115Y-18756972D02*
X9428496Y-18899829D01*
X9428496Y-18899829D02*
X9552305Y-18899829D01*
X9657067Y-18852210D02*
X9638020Y-18842686D01*
X9638020Y-18842686D02*
X9628496Y-18833162D01*
X9628496Y-18833162D02*
X9618972Y-18814115D01*
X9618972Y-18814115D02*
X9618972Y-18804591D01*
X9618972Y-18804591D02*
X9628496Y-18785543D01*
X9628496Y-18785543D02*
X9638020Y-18776020D01*
X9638020Y-18776020D02*
X9657067Y-18766496D01*
X9657067Y-18766496D02*
X9695163Y-18766496D01*
X9695163Y-18766496D02*
X9714210Y-18776020D01*
X9714210Y-18776020D02*
X9723734Y-18785543D01*
X9723734Y-18785543D02*
X9733258Y-18804591D01*
X9733258Y-18804591D02*
X9733258Y-18814115D01*
X9733258Y-18814115D02*
X9723734Y-18833162D01*
X9723734Y-18833162D02*
X9714210Y-18842686D01*
X9714210Y-18842686D02*
X9695163Y-18852210D01*
X9695163Y-18852210D02*
X9657067Y-18852210D01*
X9657067Y-18852210D02*
X9638020Y-18861734D01*
X9638020Y-18861734D02*
X9628496Y-18871258D01*
X9628496Y-18871258D02*
X9618972Y-18890305D01*
X9618972Y-18890305D02*
X9618972Y-18928400D01*
X9618972Y-18928400D02*
X9628496Y-18947448D01*
X9628496Y-18947448D02*
X9638020Y-18956972D01*
X9638020Y-18956972D02*
X9657067Y-18966496D01*
X9657067Y-18966496D02*
X9695163Y-18966496D01*
X9695163Y-18966496D02*
X9714210Y-18956972D01*
X9714210Y-18956972D02*
X9723734Y-18947448D01*
X9723734Y-18947448D02*
X9733258Y-18928400D01*
X9733258Y-18928400D02*
X9733258Y-18890305D01*
X9733258Y-18890305D02*
X9723734Y-18871258D01*
X9723734Y-18871258D02*
X9714210Y-18861734D01*
X9714210Y-18861734D02*
X9695163Y-18852210D01*
X9809448Y-18766496D02*
X9809448Y-18804591D01*
X9885639Y-18766496D02*
X9885639Y-18804591D01*
X10180877Y-19042686D02*
X10171353Y-19033162D01*
X10171353Y-19033162D02*
X10152306Y-19004591D01*
X10152306Y-19004591D02*
X10142782Y-18985543D01*
X10142782Y-18985543D02*
X10133258Y-18956972D01*
X10133258Y-18956972D02*
X10123734Y-18909353D01*
X10123734Y-18909353D02*
X10123734Y-18871258D01*
X10123734Y-18871258D02*
X10133258Y-18823639D01*
X10133258Y-18823639D02*
X10142782Y-18795067D01*
X10142782Y-18795067D02*
X10152306Y-18776020D01*
X10152306Y-18776020D02*
X10171353Y-18747448D01*
X10171353Y-18747448D02*
X10180877Y-18737924D01*
X10361829Y-18966496D02*
X10247544Y-18966496D01*
X10304686Y-18966496D02*
X10304686Y-18766496D01*
X10304686Y-18766496D02*
X10285639Y-18795067D01*
X10285639Y-18795067D02*
X10266591Y-18814115D01*
X10266591Y-18814115D02*
X10247544Y-18823639D01*
X10438020Y-18785543D02*
X10447544Y-18776020D01*
X10447544Y-18776020D02*
X10466591Y-18766496D01*
X10466591Y-18766496D02*
X10514210Y-18766496D01*
X10514210Y-18766496D02*
X10533258Y-18776020D01*
X10533258Y-18776020D02*
X10542782Y-18785543D01*
X10542782Y-18785543D02*
X10552306Y-18804591D01*
X10552306Y-18804591D02*
X10552306Y-18823639D01*
X10552306Y-18823639D02*
X10542782Y-18852210D01*
X10542782Y-18852210D02*
X10428496Y-18966496D01*
X10428496Y-18966496D02*
X10552306Y-18966496D01*
X10666591Y-18852210D02*
X10647544Y-18842686D01*
X10647544Y-18842686D02*
X10638020Y-18833162D01*
X10638020Y-18833162D02*
X10628496Y-18814115D01*
X10628496Y-18814115D02*
X10628496Y-18804591D01*
X10628496Y-18804591D02*
X10638020Y-18785543D01*
X10638020Y-18785543D02*
X10647544Y-18776020D01*
X10647544Y-18776020D02*
X10666591Y-18766496D01*
X10666591Y-18766496D02*
X10704687Y-18766496D01*
X10704687Y-18766496D02*
X10723734Y-18776020D01*
X10723734Y-18776020D02*
X10733258Y-18785543D01*
X10733258Y-18785543D02*
X10742782Y-18804591D01*
X10742782Y-18804591D02*
X10742782Y-18814115D01*
X10742782Y-18814115D02*
X10733258Y-18833162D01*
X10733258Y-18833162D02*
X10723734Y-18842686D01*
X10723734Y-18842686D02*
X10704687Y-18852210D01*
X10704687Y-18852210D02*
X10666591Y-18852210D01*
X10666591Y-18852210D02*
X10647544Y-18861734D01*
X10647544Y-18861734D02*
X10638020Y-18871258D01*
X10638020Y-18871258D02*
X10628496Y-18890305D01*
X10628496Y-18890305D02*
X10628496Y-18928400D01*
X10628496Y-18928400D02*
X10638020Y-18947448D01*
X10638020Y-18947448D02*
X10647544Y-18956972D01*
X10647544Y-18956972D02*
X10666591Y-18966496D01*
X10666591Y-18966496D02*
X10704687Y-18966496D01*
X10704687Y-18966496D02*
X10723734Y-18956972D01*
X10723734Y-18956972D02*
X10733258Y-18947448D01*
X10733258Y-18947448D02*
X10742782Y-18928400D01*
X10742782Y-18928400D02*
X10742782Y-18890305D01*
X10742782Y-18890305D02*
X10733258Y-18871258D01*
X10733258Y-18871258D02*
X10723734Y-18861734D01*
X10723734Y-18861734D02*
X10704687Y-18852210D01*
X10980877Y-18966496D02*
X10980877Y-18766496D01*
X11066591Y-18966496D02*
X11066591Y-18861734D01*
X11066591Y-18861734D02*
X11057068Y-18842686D01*
X11057068Y-18842686D02*
X11038020Y-18833162D01*
X11038020Y-18833162D02*
X11009448Y-18833162D01*
X11009448Y-18833162D02*
X10990401Y-18842686D01*
X10990401Y-18842686D02*
X10980877Y-18852210D01*
X11190401Y-18966496D02*
X11171353Y-18956972D01*
X11171353Y-18956972D02*
X11161829Y-18947448D01*
X11161829Y-18947448D02*
X11152306Y-18928400D01*
X11152306Y-18928400D02*
X11152306Y-18871258D01*
X11152306Y-18871258D02*
X11161829Y-18852210D01*
X11161829Y-18852210D02*
X11171353Y-18842686D01*
X11171353Y-18842686D02*
X11190401Y-18833162D01*
X11190401Y-18833162D02*
X11218972Y-18833162D01*
X11218972Y-18833162D02*
X11238020Y-18842686D01*
X11238020Y-18842686D02*
X11247544Y-18852210D01*
X11247544Y-18852210D02*
X11257067Y-18871258D01*
X11257067Y-18871258D02*
X11257067Y-18928400D01*
X11257067Y-18928400D02*
X11247544Y-18947448D01*
X11247544Y-18947448D02*
X11238020Y-18956972D01*
X11238020Y-18956972D02*
X11218972Y-18966496D01*
X11218972Y-18966496D02*
X11190401Y-18966496D01*
X11371353Y-18966496D02*
X11352306Y-18956972D01*
X11352306Y-18956972D02*
X11342782Y-18937924D01*
X11342782Y-18937924D02*
X11342782Y-18766496D01*
X11523734Y-18956972D02*
X11504687Y-18966496D01*
X11504687Y-18966496D02*
X11466591Y-18966496D01*
X11466591Y-18966496D02*
X11447544Y-18956972D01*
X11447544Y-18956972D02*
X11438020Y-18937924D01*
X11438020Y-18937924D02*
X11438020Y-18861734D01*
X11438020Y-18861734D02*
X11447544Y-18842686D01*
X11447544Y-18842686D02*
X11466591Y-18833162D01*
X11466591Y-18833162D02*
X11504687Y-18833162D01*
X11504687Y-18833162D02*
X11523734Y-18842686D01*
X11523734Y-18842686D02*
X11533258Y-18861734D01*
X11533258Y-18861734D02*
X11533258Y-18880781D01*
X11533258Y-18880781D02*
X11438020Y-18899829D01*
X11609448Y-18956972D02*
X11628496Y-18966496D01*
X11628496Y-18966496D02*
X11666591Y-18966496D01*
X11666591Y-18966496D02*
X11685639Y-18956972D01*
X11685639Y-18956972D02*
X11695163Y-18937924D01*
X11695163Y-18937924D02*
X11695163Y-18928400D01*
X11695163Y-18928400D02*
X11685639Y-18909353D01*
X11685639Y-18909353D02*
X11666591Y-18899829D01*
X11666591Y-18899829D02*
X11638020Y-18899829D01*
X11638020Y-18899829D02*
X11618972Y-18890305D01*
X11618972Y-18890305D02*
X11609448Y-18871258D01*
X11609448Y-18871258D02*
X11609448Y-18861734D01*
X11609448Y-18861734D02*
X11618972Y-18842686D01*
X11618972Y-18842686D02*
X11638020Y-18833162D01*
X11638020Y-18833162D02*
X11666591Y-18833162D01*
X11666591Y-18833162D02*
X11685639Y-18842686D01*
X11761829Y-19042686D02*
X11771353Y-19033162D01*
X11771353Y-19033162D02*
X11790401Y-19004591D01*
X11790401Y-19004591D02*
X11799925Y-18985543D01*
X11799925Y-18985543D02*
X11809448Y-18956972D01*
X11809448Y-18956972D02*
X11818972Y-18909353D01*
X11818972Y-18909353D02*
X11818972Y-18871258D01*
X11818972Y-18871258D02*
X11809448Y-18823639D01*
X11809448Y-18823639D02*
X11799925Y-18795067D01*
X11799925Y-18795067D02*
X11790401Y-18776020D01*
X11790401Y-18776020D02*
X11771353Y-18747448D01*
X11771353Y-18747448D02*
X11761829Y-18737924D01*
X12123734Y-19042686D02*
X12114210Y-19033162D01*
X12114210Y-19033162D02*
X12095163Y-19004591D01*
X12095163Y-19004591D02*
X12085639Y-18985543D01*
X12085639Y-18985543D02*
X12076115Y-18956972D01*
X12076115Y-18956972D02*
X12066591Y-18909353D01*
X12066591Y-18909353D02*
X12066591Y-18871258D01*
X12066591Y-18871258D02*
X12076115Y-18823639D01*
X12076115Y-18823639D02*
X12085639Y-18795067D01*
X12085639Y-18795067D02*
X12095163Y-18776020D01*
X12095163Y-18776020D02*
X12114210Y-18747448D01*
X12114210Y-18747448D02*
X12123734Y-18737924D01*
X12199925Y-18833162D02*
X12199925Y-18966496D01*
X12199925Y-18852210D02*
X12209448Y-18842686D01*
X12209448Y-18842686D02*
X12228496Y-18833162D01*
X12228496Y-18833162D02*
X12257068Y-18833162D01*
X12257068Y-18833162D02*
X12276115Y-18842686D01*
X12276115Y-18842686D02*
X12285639Y-18861734D01*
X12285639Y-18861734D02*
X12285639Y-18966496D01*
X12409448Y-18966496D02*
X12390401Y-18956972D01*
X12390401Y-18956972D02*
X12380877Y-18947448D01*
X12380877Y-18947448D02*
X12371353Y-18928400D01*
X12371353Y-18928400D02*
X12371353Y-18871258D01*
X12371353Y-18871258D02*
X12380877Y-18852210D01*
X12380877Y-18852210D02*
X12390401Y-18842686D01*
X12390401Y-18842686D02*
X12409448Y-18833162D01*
X12409448Y-18833162D02*
X12438020Y-18833162D01*
X12438020Y-18833162D02*
X12457068Y-18842686D01*
X12457068Y-18842686D02*
X12466591Y-18852210D01*
X12466591Y-18852210D02*
X12476115Y-18871258D01*
X12476115Y-18871258D02*
X12476115Y-18928400D01*
X12476115Y-18928400D02*
X12466591Y-18947448D01*
X12466591Y-18947448D02*
X12457068Y-18956972D01*
X12457068Y-18956972D02*
X12438020Y-18966496D01*
X12438020Y-18966496D02*
X12409448Y-18966496D01*
X12533258Y-18833162D02*
X12609448Y-18833162D01*
X12561829Y-18766496D02*
X12561829Y-18937924D01*
X12561829Y-18937924D02*
X12571353Y-18956972D01*
X12571353Y-18956972D02*
X12590401Y-18966496D01*
X12590401Y-18966496D02*
X12609448Y-18966496D01*
X12828496Y-18833162D02*
X12828496Y-19033162D01*
X12828496Y-18842686D02*
X12847544Y-18833162D01*
X12847544Y-18833162D02*
X12885639Y-18833162D01*
X12885639Y-18833162D02*
X12904687Y-18842686D01*
X12904687Y-18842686D02*
X12914210Y-18852210D01*
X12914210Y-18852210D02*
X12923734Y-18871258D01*
X12923734Y-18871258D02*
X12923734Y-18928400D01*
X12923734Y-18928400D02*
X12914210Y-18947448D01*
X12914210Y-18947448D02*
X12904687Y-18956972D01*
X12904687Y-18956972D02*
X12885639Y-18966496D01*
X12885639Y-18966496D02*
X12847544Y-18966496D01*
X12847544Y-18966496D02*
X12828496Y-18956972D01*
X13038020Y-18966496D02*
X13018972Y-18956972D01*
X13018972Y-18956972D02*
X13009449Y-18937924D01*
X13009449Y-18937924D02*
X13009449Y-18766496D01*
X13199925Y-18966496D02*
X13199925Y-18861734D01*
X13199925Y-18861734D02*
X13190401Y-18842686D01*
X13190401Y-18842686D02*
X13171353Y-18833162D01*
X13171353Y-18833162D02*
X13133258Y-18833162D01*
X13133258Y-18833162D02*
X13114210Y-18842686D01*
X13199925Y-18956972D02*
X13180877Y-18966496D01*
X13180877Y-18966496D02*
X13133258Y-18966496D01*
X13133258Y-18966496D02*
X13114210Y-18956972D01*
X13114210Y-18956972D02*
X13104687Y-18937924D01*
X13104687Y-18937924D02*
X13104687Y-18918877D01*
X13104687Y-18918877D02*
X13114210Y-18899829D01*
X13114210Y-18899829D02*
X13133258Y-18890305D01*
X13133258Y-18890305D02*
X13180877Y-18890305D01*
X13180877Y-18890305D02*
X13199925Y-18880781D01*
X13266591Y-18833162D02*
X13342782Y-18833162D01*
X13295163Y-18766496D02*
X13295163Y-18937924D01*
X13295163Y-18937924D02*
X13304687Y-18956972D01*
X13304687Y-18956972D02*
X13323734Y-18966496D01*
X13323734Y-18966496D02*
X13342782Y-18966496D01*
X13485639Y-18956972D02*
X13466591Y-18966496D01*
X13466591Y-18966496D02*
X13428496Y-18966496D01*
X13428496Y-18966496D02*
X13409449Y-18956972D01*
X13409449Y-18956972D02*
X13399925Y-18937924D01*
X13399925Y-18937924D02*
X13399925Y-18861734D01*
X13399925Y-18861734D02*
X13409449Y-18842686D01*
X13409449Y-18842686D02*
X13428496Y-18833162D01*
X13428496Y-18833162D02*
X13466591Y-18833162D01*
X13466591Y-18833162D02*
X13485639Y-18842686D01*
X13485639Y-18842686D02*
X13495163Y-18861734D01*
X13495163Y-18861734D02*
X13495163Y-18880781D01*
X13495163Y-18880781D02*
X13399925Y-18899829D01*
X13666591Y-18966496D02*
X13666591Y-18766496D01*
X13666591Y-18956972D02*
X13647544Y-18966496D01*
X13647544Y-18966496D02*
X13609449Y-18966496D01*
X13609449Y-18966496D02*
X13590401Y-18956972D01*
X13590401Y-18956972D02*
X13580877Y-18947448D01*
X13580877Y-18947448D02*
X13571353Y-18928400D01*
X13571353Y-18928400D02*
X13571353Y-18871258D01*
X13571353Y-18871258D02*
X13580877Y-18852210D01*
X13580877Y-18852210D02*
X13590401Y-18842686D01*
X13590401Y-18842686D02*
X13609449Y-18833162D01*
X13609449Y-18833162D02*
X13647544Y-18833162D01*
X13647544Y-18833162D02*
X13666591Y-18842686D01*
X13742782Y-19042686D02*
X13752306Y-19033162D01*
X13752306Y-19033162D02*
X13771353Y-19004591D01*
X13771353Y-19004591D02*
X13780877Y-18985543D01*
X13780877Y-18985543D02*
X13790401Y-18956972D01*
X13790401Y-18956972D02*
X13799925Y-18909353D01*
X13799925Y-18909353D02*
X13799925Y-18871258D01*
X13799925Y-18871258D02*
X13790401Y-18823639D01*
X13790401Y-18823639D02*
X13780877Y-18795067D01*
X13780877Y-18795067D02*
X13771353Y-18776020D01*
X13771353Y-18776020D02*
X13752306Y-18747448D01*
X13752306Y-18747448D02*
X13742782Y-18737924D01*
X6618972Y-19183972D02*
G75*
G03*
X6618972Y-19183972I-100000J0D01*
G01*
X6961829Y-19076496D02*
X6866591Y-19076496D01*
X6866591Y-19076496D02*
X6857067Y-19171734D01*
X6857067Y-19171734D02*
X6866591Y-19162210D01*
X6866591Y-19162210D02*
X6885638Y-19152686D01*
X6885638Y-19152686D02*
X6933258Y-19152686D01*
X6933258Y-19152686D02*
X6952305Y-19162210D01*
X6952305Y-19162210D02*
X6961829Y-19171734D01*
X6961829Y-19171734D02*
X6971353Y-19190781D01*
X6971353Y-19190781D02*
X6971353Y-19238400D01*
X6971353Y-19238400D02*
X6961829Y-19257448D01*
X6961829Y-19257448D02*
X6952305Y-19266972D01*
X6952305Y-19266972D02*
X6933258Y-19276496D01*
X6933258Y-19276496D02*
X6885638Y-19276496D01*
X6885638Y-19276496D02*
X6866591Y-19266972D01*
X6866591Y-19266972D02*
X6857067Y-19257448D01*
X7057067Y-19257448D02*
X7066591Y-19266972D01*
X7066591Y-19266972D02*
X7057067Y-19276496D01*
X7057067Y-19276496D02*
X7047543Y-19266972D01*
X7047543Y-19266972D02*
X7057067Y-19257448D01*
X7057067Y-19257448D02*
X7057067Y-19276496D01*
X7190400Y-19076496D02*
X7209448Y-19076496D01*
X7209448Y-19076496D02*
X7228496Y-19086020D01*
X7228496Y-19086020D02*
X7238019Y-19095543D01*
X7238019Y-19095543D02*
X7247543Y-19114591D01*
X7247543Y-19114591D02*
X7257067Y-19152686D01*
X7257067Y-19152686D02*
X7257067Y-19200305D01*
X7257067Y-19200305D02*
X7247543Y-19238400D01*
X7247543Y-19238400D02*
X7238019Y-19257448D01*
X7238019Y-19257448D02*
X7228496Y-19266972D01*
X7228496Y-19266972D02*
X7209448Y-19276496D01*
X7209448Y-19276496D02*
X7190400Y-19276496D01*
X7190400Y-19276496D02*
X7171353Y-19266972D01*
X7171353Y-19266972D02*
X7161829Y-19257448D01*
X7161829Y-19257448D02*
X7152305Y-19238400D01*
X7152305Y-19238400D02*
X7142781Y-19200305D01*
X7142781Y-19200305D02*
X7142781Y-19152686D01*
X7142781Y-19152686D02*
X7152305Y-19114591D01*
X7152305Y-19114591D02*
X7161829Y-19095543D01*
X7161829Y-19095543D02*
X7171353Y-19086020D01*
X7171353Y-19086020D02*
X7190400Y-19076496D01*
X7438019Y-19076496D02*
X7342781Y-19076496D01*
X7342781Y-19076496D02*
X7333258Y-19171734D01*
X7333258Y-19171734D02*
X7342781Y-19162210D01*
X7342781Y-19162210D02*
X7361829Y-19152686D01*
X7361829Y-19152686D02*
X7409448Y-19152686D01*
X7409448Y-19152686D02*
X7428496Y-19162210D01*
X7428496Y-19162210D02*
X7438019Y-19171734D01*
X7438019Y-19171734D02*
X7447543Y-19190781D01*
X7447543Y-19190781D02*
X7447543Y-19238400D01*
X7447543Y-19238400D02*
X7438019Y-19257448D01*
X7438019Y-19257448D02*
X7428496Y-19266972D01*
X7428496Y-19266972D02*
X7409448Y-19276496D01*
X7409448Y-19276496D02*
X7361829Y-19276496D01*
X7361829Y-19276496D02*
X7342781Y-19266972D01*
X7342781Y-19266972D02*
X7333258Y-19257448D01*
X7571353Y-19076496D02*
X7590400Y-19076496D01*
X7590400Y-19076496D02*
X7609448Y-19086020D01*
X7609448Y-19086020D02*
X7618972Y-19095543D01*
X7618972Y-19095543D02*
X7628496Y-19114591D01*
X7628496Y-19114591D02*
X7638019Y-19152686D01*
X7638019Y-19152686D02*
X7638019Y-19200305D01*
X7638019Y-19200305D02*
X7628496Y-19238400D01*
X7628496Y-19238400D02*
X7618972Y-19257448D01*
X7618972Y-19257448D02*
X7609448Y-19266972D01*
X7609448Y-19266972D02*
X7590400Y-19276496D01*
X7590400Y-19276496D02*
X7571353Y-19276496D01*
X7571353Y-19276496D02*
X7552305Y-19266972D01*
X7552305Y-19266972D02*
X7542781Y-19257448D01*
X7542781Y-19257448D02*
X7533258Y-19238400D01*
X7533258Y-19238400D02*
X7523734Y-19200305D01*
X7523734Y-19200305D02*
X7523734Y-19152686D01*
X7523734Y-19152686D02*
X7533258Y-19114591D01*
X7533258Y-19114591D02*
X7542781Y-19095543D01*
X7542781Y-19095543D02*
X7552305Y-19086020D01*
X7552305Y-19086020D02*
X7571353Y-19076496D01*
X7723734Y-19276496D02*
X7723734Y-19143162D01*
X7723734Y-19162210D02*
X7733258Y-19152686D01*
X7733258Y-19152686D02*
X7752305Y-19143162D01*
X7752305Y-19143162D02*
X7780877Y-19143162D01*
X7780877Y-19143162D02*
X7799924Y-19152686D01*
X7799924Y-19152686D02*
X7809448Y-19171734D01*
X7809448Y-19171734D02*
X7809448Y-19276496D01*
X7809448Y-19171734D02*
X7818972Y-19152686D01*
X7818972Y-19152686D02*
X7838019Y-19143162D01*
X7838019Y-19143162D02*
X7866591Y-19143162D01*
X7866591Y-19143162D02*
X7885639Y-19152686D01*
X7885639Y-19152686D02*
X7895162Y-19171734D01*
X7895162Y-19171734D02*
X7895162Y-19276496D01*
X7990400Y-19276496D02*
X7990400Y-19143162D01*
X7990400Y-19162210D02*
X7999924Y-19152686D01*
X7999924Y-19152686D02*
X8018972Y-19143162D01*
X8018972Y-19143162D02*
X8047543Y-19143162D01*
X8047543Y-19143162D02*
X8066591Y-19152686D01*
X8066591Y-19152686D02*
X8076115Y-19171734D01*
X8076115Y-19171734D02*
X8076115Y-19276496D01*
X8076115Y-19171734D02*
X8085639Y-19152686D01*
X8085639Y-19152686D02*
X8104686Y-19143162D01*
X8104686Y-19143162D02*
X8133258Y-19143162D01*
X8133258Y-19143162D02*
X8152305Y-19152686D01*
X8152305Y-19152686D02*
X8161829Y-19171734D01*
X8161829Y-19171734D02*
X8161829Y-19276496D01*
X8552305Y-19066972D02*
X8380877Y-19324115D01*
X8809448Y-19076496D02*
X8828496Y-19076496D01*
X8828496Y-19076496D02*
X8847544Y-19086020D01*
X8847544Y-19086020D02*
X8857067Y-19095543D01*
X8857067Y-19095543D02*
X8866591Y-19114591D01*
X8866591Y-19114591D02*
X8876115Y-19152686D01*
X8876115Y-19152686D02*
X8876115Y-19200305D01*
X8876115Y-19200305D02*
X8866591Y-19238400D01*
X8866591Y-19238400D02*
X8857067Y-19257448D01*
X8857067Y-19257448D02*
X8847544Y-19266972D01*
X8847544Y-19266972D02*
X8828496Y-19276496D01*
X8828496Y-19276496D02*
X8809448Y-19276496D01*
X8809448Y-19276496D02*
X8790401Y-19266972D01*
X8790401Y-19266972D02*
X8780877Y-19257448D01*
X8780877Y-19257448D02*
X8771353Y-19238400D01*
X8771353Y-19238400D02*
X8761829Y-19200305D01*
X8761829Y-19200305D02*
X8761829Y-19152686D01*
X8761829Y-19152686D02*
X8771353Y-19114591D01*
X8771353Y-19114591D02*
X8780877Y-19095543D01*
X8780877Y-19095543D02*
X8790401Y-19086020D01*
X8790401Y-19086020D02*
X8809448Y-19076496D01*
X8961829Y-19257448D02*
X8971353Y-19266972D01*
X8971353Y-19266972D02*
X8961829Y-19276496D01*
X8961829Y-19276496D02*
X8952305Y-19266972D01*
X8952305Y-19266972D02*
X8961829Y-19257448D01*
X8961829Y-19257448D02*
X8961829Y-19276496D01*
X9161829Y-19276496D02*
X9047544Y-19276496D01*
X9104686Y-19276496D02*
X9104686Y-19076496D01*
X9104686Y-19076496D02*
X9085639Y-19105067D01*
X9085639Y-19105067D02*
X9066591Y-19124115D01*
X9066591Y-19124115D02*
X9047544Y-19133639D01*
X9257067Y-19276496D02*
X9295163Y-19276496D01*
X9295163Y-19276496D02*
X9314210Y-19266972D01*
X9314210Y-19266972D02*
X9323734Y-19257448D01*
X9323734Y-19257448D02*
X9342782Y-19228877D01*
X9342782Y-19228877D02*
X9352305Y-19190781D01*
X9352305Y-19190781D02*
X9352305Y-19114591D01*
X9352305Y-19114591D02*
X9342782Y-19095543D01*
X9342782Y-19095543D02*
X9333258Y-19086020D01*
X9333258Y-19086020D02*
X9314210Y-19076496D01*
X9314210Y-19076496D02*
X9276115Y-19076496D01*
X9276115Y-19076496D02*
X9257067Y-19086020D01*
X9257067Y-19086020D02*
X9247544Y-19095543D01*
X9247544Y-19095543D02*
X9238020Y-19114591D01*
X9238020Y-19114591D02*
X9238020Y-19162210D01*
X9238020Y-19162210D02*
X9247544Y-19181258D01*
X9247544Y-19181258D02*
X9257067Y-19190781D01*
X9257067Y-19190781D02*
X9276115Y-19200305D01*
X9276115Y-19200305D02*
X9314210Y-19200305D01*
X9314210Y-19200305D02*
X9333258Y-19190781D01*
X9333258Y-19190781D02*
X9342782Y-19181258D01*
X9342782Y-19181258D02*
X9352305Y-19162210D01*
X9466591Y-19162210D02*
X9447544Y-19152686D01*
X9447544Y-19152686D02*
X9438020Y-19143162D01*
X9438020Y-19143162D02*
X9428496Y-19124115D01*
X9428496Y-19124115D02*
X9428496Y-19114591D01*
X9428496Y-19114591D02*
X9438020Y-19095543D01*
X9438020Y-19095543D02*
X9447544Y-19086020D01*
X9447544Y-19086020D02*
X9466591Y-19076496D01*
X9466591Y-19076496D02*
X9504686Y-19076496D01*
X9504686Y-19076496D02*
X9523734Y-19086020D01*
X9523734Y-19086020D02*
X9533258Y-19095543D01*
X9533258Y-19095543D02*
X9542782Y-19114591D01*
X9542782Y-19114591D02*
X9542782Y-19124115D01*
X9542782Y-19124115D02*
X9533258Y-19143162D01*
X9533258Y-19143162D02*
X9523734Y-19152686D01*
X9523734Y-19152686D02*
X9504686Y-19162210D01*
X9504686Y-19162210D02*
X9466591Y-19162210D01*
X9466591Y-19162210D02*
X9447544Y-19171734D01*
X9447544Y-19171734D02*
X9438020Y-19181258D01*
X9438020Y-19181258D02*
X9428496Y-19200305D01*
X9428496Y-19200305D02*
X9428496Y-19238400D01*
X9428496Y-19238400D02*
X9438020Y-19257448D01*
X9438020Y-19257448D02*
X9447544Y-19266972D01*
X9447544Y-19266972D02*
X9466591Y-19276496D01*
X9466591Y-19276496D02*
X9504686Y-19276496D01*
X9504686Y-19276496D02*
X9523734Y-19266972D01*
X9523734Y-19266972D02*
X9533258Y-19257448D01*
X9533258Y-19257448D02*
X9542782Y-19238400D01*
X9542782Y-19238400D02*
X9542782Y-19200305D01*
X9542782Y-19200305D02*
X9533258Y-19181258D01*
X9533258Y-19181258D02*
X9523734Y-19171734D01*
X9523734Y-19171734D02*
X9504686Y-19162210D01*
X9657067Y-19162210D02*
X9638020Y-19152686D01*
X9638020Y-19152686D02*
X9628496Y-19143162D01*
X9628496Y-19143162D02*
X9618972Y-19124115D01*
X9618972Y-19124115D02*
X9618972Y-19114591D01*
X9618972Y-19114591D02*
X9628496Y-19095543D01*
X9628496Y-19095543D02*
X9638020Y-19086020D01*
X9638020Y-19086020D02*
X9657067Y-19076496D01*
X9657067Y-19076496D02*
X9695163Y-19076496D01*
X9695163Y-19076496D02*
X9714210Y-19086020D01*
X9714210Y-19086020D02*
X9723734Y-19095543D01*
X9723734Y-19095543D02*
X9733258Y-19114591D01*
X9733258Y-19114591D02*
X9733258Y-19124115D01*
X9733258Y-19124115D02*
X9723734Y-19143162D01*
X9723734Y-19143162D02*
X9714210Y-19152686D01*
X9714210Y-19152686D02*
X9695163Y-19162210D01*
X9695163Y-19162210D02*
X9657067Y-19162210D01*
X9657067Y-19162210D02*
X9638020Y-19171734D01*
X9638020Y-19171734D02*
X9628496Y-19181258D01*
X9628496Y-19181258D02*
X9618972Y-19200305D01*
X9618972Y-19200305D02*
X9618972Y-19238400D01*
X9618972Y-19238400D02*
X9628496Y-19257448D01*
X9628496Y-19257448D02*
X9638020Y-19266972D01*
X9638020Y-19266972D02*
X9657067Y-19276496D01*
X9657067Y-19276496D02*
X9695163Y-19276496D01*
X9695163Y-19276496D02*
X9714210Y-19266972D01*
X9714210Y-19266972D02*
X9723734Y-19257448D01*
X9723734Y-19257448D02*
X9733258Y-19238400D01*
X9733258Y-19238400D02*
X9733258Y-19200305D01*
X9733258Y-19200305D02*
X9723734Y-19181258D01*
X9723734Y-19181258D02*
X9714210Y-19171734D01*
X9714210Y-19171734D02*
X9695163Y-19162210D01*
X9809448Y-19076496D02*
X9809448Y-19114591D01*
X9885639Y-19076496D02*
X9885639Y-19114591D01*
X10180877Y-19352686D02*
X10171353Y-19343162D01*
X10171353Y-19343162D02*
X10152306Y-19314591D01*
X10152306Y-19314591D02*
X10142782Y-19295543D01*
X10142782Y-19295543D02*
X10133258Y-19266972D01*
X10133258Y-19266972D02*
X10123734Y-19219353D01*
X10123734Y-19219353D02*
X10123734Y-19181258D01*
X10123734Y-19181258D02*
X10133258Y-19133639D01*
X10133258Y-19133639D02*
X10142782Y-19105067D01*
X10142782Y-19105067D02*
X10152306Y-19086020D01*
X10152306Y-19086020D02*
X10171353Y-19057448D01*
X10171353Y-19057448D02*
X10180877Y-19047924D01*
X10342782Y-19076496D02*
X10304686Y-19076496D01*
X10304686Y-19076496D02*
X10285639Y-19086020D01*
X10285639Y-19086020D02*
X10276115Y-19095543D01*
X10276115Y-19095543D02*
X10257067Y-19124115D01*
X10257067Y-19124115D02*
X10247544Y-19162210D01*
X10247544Y-19162210D02*
X10247544Y-19238400D01*
X10247544Y-19238400D02*
X10257067Y-19257448D01*
X10257067Y-19257448D02*
X10266591Y-19266972D01*
X10266591Y-19266972D02*
X10285639Y-19276496D01*
X10285639Y-19276496D02*
X10323734Y-19276496D01*
X10323734Y-19276496D02*
X10342782Y-19266972D01*
X10342782Y-19266972D02*
X10352306Y-19257448D01*
X10352306Y-19257448D02*
X10361829Y-19238400D01*
X10361829Y-19238400D02*
X10361829Y-19190781D01*
X10361829Y-19190781D02*
X10352306Y-19171734D01*
X10352306Y-19171734D02*
X10342782Y-19162210D01*
X10342782Y-19162210D02*
X10323734Y-19152686D01*
X10323734Y-19152686D02*
X10285639Y-19152686D01*
X10285639Y-19152686D02*
X10266591Y-19162210D01*
X10266591Y-19162210D02*
X10257067Y-19171734D01*
X10257067Y-19171734D02*
X10247544Y-19190781D01*
X10533258Y-19143162D02*
X10533258Y-19276496D01*
X10485639Y-19066972D02*
X10438020Y-19209829D01*
X10438020Y-19209829D02*
X10561829Y-19209829D01*
X10790401Y-19276496D02*
X10790401Y-19076496D01*
X10876115Y-19276496D02*
X10876115Y-19171734D01*
X10876115Y-19171734D02*
X10866591Y-19152686D01*
X10866591Y-19152686D02*
X10847544Y-19143162D01*
X10847544Y-19143162D02*
X10818972Y-19143162D01*
X10818972Y-19143162D02*
X10799925Y-19152686D01*
X10799925Y-19152686D02*
X10790401Y-19162210D01*
X10999925Y-19276496D02*
X10980877Y-19266972D01*
X10980877Y-19266972D02*
X10971353Y-19257448D01*
X10971353Y-19257448D02*
X10961829Y-19238400D01*
X10961829Y-19238400D02*
X10961829Y-19181258D01*
X10961829Y-19181258D02*
X10971353Y-19162210D01*
X10971353Y-19162210D02*
X10980877Y-19152686D01*
X10980877Y-19152686D02*
X10999925Y-19143162D01*
X10999925Y-19143162D02*
X11028496Y-19143162D01*
X11028496Y-19143162D02*
X11047544Y-19152686D01*
X11047544Y-19152686D02*
X11057068Y-19162210D01*
X11057068Y-19162210D02*
X11066591Y-19181258D01*
X11066591Y-19181258D02*
X11066591Y-19238400D01*
X11066591Y-19238400D02*
X11057068Y-19257448D01*
X11057068Y-19257448D02*
X11047544Y-19266972D01*
X11047544Y-19266972D02*
X11028496Y-19276496D01*
X11028496Y-19276496D02*
X10999925Y-19276496D01*
X11180877Y-19276496D02*
X11161829Y-19266972D01*
X11161829Y-19266972D02*
X11152306Y-19247924D01*
X11152306Y-19247924D02*
X11152306Y-19076496D01*
X11333258Y-19266972D02*
X11314210Y-19276496D01*
X11314210Y-19276496D02*
X11276115Y-19276496D01*
X11276115Y-19276496D02*
X11257067Y-19266972D01*
X11257067Y-19266972D02*
X11247544Y-19247924D01*
X11247544Y-19247924D02*
X11247544Y-19171734D01*
X11247544Y-19171734D02*
X11257067Y-19152686D01*
X11257067Y-19152686D02*
X11276115Y-19143162D01*
X11276115Y-19143162D02*
X11314210Y-19143162D01*
X11314210Y-19143162D02*
X11333258Y-19152686D01*
X11333258Y-19152686D02*
X11342782Y-19171734D01*
X11342782Y-19171734D02*
X11342782Y-19190781D01*
X11342782Y-19190781D02*
X11247544Y-19209829D01*
X11418972Y-19266972D02*
X11438020Y-19276496D01*
X11438020Y-19276496D02*
X11476115Y-19276496D01*
X11476115Y-19276496D02*
X11495163Y-19266972D01*
X11495163Y-19266972D02*
X11504687Y-19247924D01*
X11504687Y-19247924D02*
X11504687Y-19238400D01*
X11504687Y-19238400D02*
X11495163Y-19219353D01*
X11495163Y-19219353D02*
X11476115Y-19209829D01*
X11476115Y-19209829D02*
X11447544Y-19209829D01*
X11447544Y-19209829D02*
X11428496Y-19200305D01*
X11428496Y-19200305D02*
X11418972Y-19181258D01*
X11418972Y-19181258D02*
X11418972Y-19171734D01*
X11418972Y-19171734D02*
X11428496Y-19152686D01*
X11428496Y-19152686D02*
X11447544Y-19143162D01*
X11447544Y-19143162D02*
X11476115Y-19143162D01*
X11476115Y-19143162D02*
X11495163Y-19152686D01*
X11571353Y-19352686D02*
X11580877Y-19343162D01*
X11580877Y-19343162D02*
X11599925Y-19314591D01*
X11599925Y-19314591D02*
X11609448Y-19295543D01*
X11609448Y-19295543D02*
X11618972Y-19266972D01*
X11618972Y-19266972D02*
X11628496Y-19219353D01*
X11628496Y-19219353D02*
X11628496Y-19181258D01*
X11628496Y-19181258D02*
X11618972Y-19133639D01*
X11618972Y-19133639D02*
X11609448Y-19105067D01*
X11609448Y-19105067D02*
X11599925Y-19086020D01*
X11599925Y-19086020D02*
X11580877Y-19057448D01*
X11580877Y-19057448D02*
X11571353Y-19047924D01*
X11933258Y-19352686D02*
X11923734Y-19343162D01*
X11923734Y-19343162D02*
X11904687Y-19314591D01*
X11904687Y-19314591D02*
X11895163Y-19295543D01*
X11895163Y-19295543D02*
X11885639Y-19266972D01*
X11885639Y-19266972D02*
X11876115Y-19219353D01*
X11876115Y-19219353D02*
X11876115Y-19181258D01*
X11876115Y-19181258D02*
X11885639Y-19133639D01*
X11885639Y-19133639D02*
X11895163Y-19105067D01*
X11895163Y-19105067D02*
X11904687Y-19086020D01*
X11904687Y-19086020D02*
X11923734Y-19057448D01*
X11923734Y-19057448D02*
X11933258Y-19047924D01*
X12009448Y-19143162D02*
X12009448Y-19276496D01*
X12009448Y-19162210D02*
X12018972Y-19152686D01*
X12018972Y-19152686D02*
X12038020Y-19143162D01*
X12038020Y-19143162D02*
X12066591Y-19143162D01*
X12066591Y-19143162D02*
X12085639Y-19152686D01*
X12085639Y-19152686D02*
X12095163Y-19171734D01*
X12095163Y-19171734D02*
X12095163Y-19276496D01*
X12218972Y-19276496D02*
X12199925Y-19266972D01*
X12199925Y-19266972D02*
X12190401Y-19257448D01*
X12190401Y-19257448D02*
X12180877Y-19238400D01*
X12180877Y-19238400D02*
X12180877Y-19181258D01*
X12180877Y-19181258D02*
X12190401Y-19162210D01*
X12190401Y-19162210D02*
X12199925Y-19152686D01*
X12199925Y-19152686D02*
X12218972Y-19143162D01*
X12218972Y-19143162D02*
X12247544Y-19143162D01*
X12247544Y-19143162D02*
X12266591Y-19152686D01*
X12266591Y-19152686D02*
X12276115Y-19162210D01*
X12276115Y-19162210D02*
X12285639Y-19181258D01*
X12285639Y-19181258D02*
X12285639Y-19238400D01*
X12285639Y-19238400D02*
X12276115Y-19257448D01*
X12276115Y-19257448D02*
X12266591Y-19266972D01*
X12266591Y-19266972D02*
X12247544Y-19276496D01*
X12247544Y-19276496D02*
X12218972Y-19276496D01*
X12342782Y-19143162D02*
X12418972Y-19143162D01*
X12371353Y-19076496D02*
X12371353Y-19247924D01*
X12371353Y-19247924D02*
X12380877Y-19266972D01*
X12380877Y-19266972D02*
X12399925Y-19276496D01*
X12399925Y-19276496D02*
X12418972Y-19276496D01*
X12638020Y-19143162D02*
X12638020Y-19343162D01*
X12638020Y-19152686D02*
X12657068Y-19143162D01*
X12657068Y-19143162D02*
X12695163Y-19143162D01*
X12695163Y-19143162D02*
X12714210Y-19152686D01*
X12714210Y-19152686D02*
X12723734Y-19162210D01*
X12723734Y-19162210D02*
X12733258Y-19181258D01*
X12733258Y-19181258D02*
X12733258Y-19238400D01*
X12733258Y-19238400D02*
X12723734Y-19257448D01*
X12723734Y-19257448D02*
X12714210Y-19266972D01*
X12714210Y-19266972D02*
X12695163Y-19276496D01*
X12695163Y-19276496D02*
X12657068Y-19276496D01*
X12657068Y-19276496D02*
X12638020Y-19266972D01*
X12847544Y-19276496D02*
X12828496Y-19266972D01*
X12828496Y-19266972D02*
X12818972Y-19247924D01*
X12818972Y-19247924D02*
X12818972Y-19076496D01*
X13009449Y-19276496D02*
X13009449Y-19171734D01*
X13009449Y-19171734D02*
X12999925Y-19152686D01*
X12999925Y-19152686D02*
X12980877Y-19143162D01*
X12980877Y-19143162D02*
X12942782Y-19143162D01*
X12942782Y-19143162D02*
X12923734Y-19152686D01*
X13009449Y-19266972D02*
X12990401Y-19276496D01*
X12990401Y-19276496D02*
X12942782Y-19276496D01*
X12942782Y-19276496D02*
X12923734Y-19266972D01*
X12923734Y-19266972D02*
X12914210Y-19247924D01*
X12914210Y-19247924D02*
X12914210Y-19228877D01*
X12914210Y-19228877D02*
X12923734Y-19209829D01*
X12923734Y-19209829D02*
X12942782Y-19200305D01*
X12942782Y-19200305D02*
X12990401Y-19200305D01*
X12990401Y-19200305D02*
X13009449Y-19190781D01*
X13076115Y-19143162D02*
X13152306Y-19143162D01*
X13104687Y-19076496D02*
X13104687Y-19247924D01*
X13104687Y-19247924D02*
X13114210Y-19266972D01*
X13114210Y-19266972D02*
X13133258Y-19276496D01*
X13133258Y-19276496D02*
X13152306Y-19276496D01*
X13295163Y-19266972D02*
X13276115Y-19276496D01*
X13276115Y-19276496D02*
X13238020Y-19276496D01*
X13238020Y-19276496D02*
X13218972Y-19266972D01*
X13218972Y-19266972D02*
X13209449Y-19247924D01*
X13209449Y-19247924D02*
X13209449Y-19171734D01*
X13209449Y-19171734D02*
X13218972Y-19152686D01*
X13218972Y-19152686D02*
X13238020Y-19143162D01*
X13238020Y-19143162D02*
X13276115Y-19143162D01*
X13276115Y-19143162D02*
X13295163Y-19152686D01*
X13295163Y-19152686D02*
X13304687Y-19171734D01*
X13304687Y-19171734D02*
X13304687Y-19190781D01*
X13304687Y-19190781D02*
X13209449Y-19209829D01*
X13476115Y-19276496D02*
X13476115Y-19076496D01*
X13476115Y-19266972D02*
X13457068Y-19276496D01*
X13457068Y-19276496D02*
X13418972Y-19276496D01*
X13418972Y-19276496D02*
X13399925Y-19266972D01*
X13399925Y-19266972D02*
X13390401Y-19257448D01*
X13390401Y-19257448D02*
X13380877Y-19238400D01*
X13380877Y-19238400D02*
X13380877Y-19181258D01*
X13380877Y-19181258D02*
X13390401Y-19162210D01*
X13390401Y-19162210D02*
X13399925Y-19152686D01*
X13399925Y-19152686D02*
X13418972Y-19143162D01*
X13418972Y-19143162D02*
X13457068Y-19143162D01*
X13457068Y-19143162D02*
X13476115Y-19152686D01*
X13552306Y-19352686D02*
X13561830Y-19343162D01*
X13561830Y-19343162D02*
X13580877Y-19314591D01*
X13580877Y-19314591D02*
X13590401Y-19295543D01*
X13590401Y-19295543D02*
X13599925Y-19266972D01*
X13599925Y-19266972D02*
X13609449Y-19219353D01*
X13609449Y-19219353D02*
X13609449Y-19181258D01*
X13609449Y-19181258D02*
X13599925Y-19133639D01*
X13599925Y-19133639D02*
X13590401Y-19105067D01*
X13590401Y-19105067D02*
X13580877Y-19086020D01*
X13580877Y-19086020D02*
X13561830Y-19057448D01*
X13561830Y-19057448D02*
X13552306Y-19047924D01*
M02*
