M48
; DRILL file {KiCad 7.0.1-0} date 2024 April 27, Saturday 23:40:27
; FORMAT={-:-/ absolute / inch / decimal}
; #@! TF.CreationDate,2024-04-27T23:40:27-07:00
; #@! TF.GenerationSoftware,Kicad,Pcbnew,7.0.1-0
; #@! TF.FileFunction,NonPlated,1,2,NPTH
FMAT,2
INCH
; #@! TA.AperFunction,NonPlated,NPTH,ComponentDrill
T1C0.0748
; #@! TA.AperFunction,NonPlated,NPTH,ComponentDrill
T2C0.1988
%
G90
G05
T1
X2.8546Y-5.7711
X2.9973Y-5.0368
X3.1401Y-4.3026
X3.2797Y-5.8538
X3.2828Y-3.5683
X3.4225Y-5.1195
X3.4255Y-2.834
X3.5652Y-4.3852
X3.5889Y-5.9139
X3.7079Y-3.6509
X3.7316Y-5.1796
X3.8507Y-2.9166
X3.8744Y-4.4453
X4.014Y-5.9965
X4.0171Y-3.711
X4.1567Y-5.2622
X4.1598Y-2.9767
X4.2995Y-4.5279
X4.3608Y-5.8634
X4.4422Y-3.7936
X4.5035Y-5.1291
X4.5849Y-3.0593
X4.6462Y-4.3948
X4.7859Y-5.946
X4.7889Y-3.6605
X4.9286Y-5.2117
X4.9317Y-2.9262
X5.0713Y-4.4774
X5.1326Y-5.8129
X5.2141Y-3.7431
X5.2753Y-5.0786
X5.3568Y-3.0088
X5.4181Y-4.3443
X5.5577Y-5.8955
X5.5608Y-3.61
X5.7004Y-5.1612
X5.7035Y-2.8757
X5.8293Y-6.1488
X5.8432Y-4.4269
X5.9721Y-5.4145
X5.9859Y-3.6926
X6.1148Y-4.6802
X6.1286Y-2.9583
X6.2544Y-6.2315
X6.2575Y-3.946
X6.3972Y-5.4972
X6.4003Y-3.2117
X6.5246Y-6.4925
X6.5399Y-4.7629
X6.6688Y-5.7505
X6.6826Y-4.0286
X6.8115Y-5.0162
X6.8254Y-3.2943
X6.9497Y-6.5751
X6.9542Y-4.2819
X7.0939Y-5.8331
X7.097Y-3.5476
X7.2366Y-5.0988
X7.3028Y-6.4142
X7.3794Y-4.3646
X7.4457Y-5.6789
X7.5221Y-3.6303
X7.7279Y-6.4968
X7.8708Y-5.7616
X8.9234Y-5.765
X9.0656Y-6.4964
X9.3107Y-3.6723
X9.3485Y-5.6824
X9.4544Y-4.4064
X9.4907Y-6.4137
X9.5943Y-5.1413
X9.7352Y-5.8769
X9.7358Y-3.5897
X9.8762Y-6.6125
X9.8795Y-4.3238
X10.0092Y-3.335
X10.0194Y-5.0586
X10.1533Y-4.066
X10.1604Y-5.7943
X10.2933Y-4.8018
X10.3013Y-6.5299
X10.4343Y-3.2524
X10.437Y-5.541
X10.5784Y-3.9834
X10.5809Y-6.271
X10.7084Y-3.0016
X10.7184Y-4.7192
X10.8537Y-3.7384
X10.8621Y-5.4583
X10.9919Y-4.4755
X11.006Y-6.1884
X11.1335Y-2.9189
X11.1392Y-5.228
X11.2788Y-3.6557
X11.2877Y-5.9922
X11.417Y-4.3929
X11.4774Y-3.0526
X11.5643Y-5.1454
X11.628Y-3.7914
X11.7129Y-5.9096
X11.7664Y-4.5396
X11.9007Y-5.2615
X11.9025Y-2.97
X12.0531Y-3.7088
X12.0618Y-5.9922
X12.1915Y-4.4569
X12.2529Y-3.1064
X12.3258Y-5.1788
X12.3956Y-3.8407
X12.4869Y-5.9095
X12.5418Y-4.5774
X12.678Y-3.0238
X12.6874Y-5.3111
X12.8207Y-3.7581
X12.8273Y-6.0459
X12.9669Y-4.4947
X12.992Y-2.9628
X13.1125Y-5.2284
X13.1341Y-3.6992
X13.2524Y-5.9633
X13.2762Y-4.4196
X13.4171Y-2.8801
X13.4225Y-5.1722
X13.5592Y-3.6165
X13.5639Y-5.8997
X13.7013Y-4.3369
X13.8476Y-5.0896
X13.989Y-5.8171
T2
X3.0672Y-5.8124
X3.2099Y-5.0782
X3.3526Y-4.3439
X3.4954Y-3.6096
X3.6381Y-2.8753
X3.8015Y-5.9552
X3.9442Y-5.2209
X4.0869Y-4.4866
X4.2297Y-3.7523
X4.3724Y-3.018
X4.5733Y-5.9047
X4.716Y-5.1704
X4.8588Y-4.4361
X5.0015Y-3.7018
X5.1442Y-2.9675
X5.3452Y-5.8542
X5.4879Y-5.1199
X5.6306Y-4.3856
X5.7734Y-3.6513
X5.9161Y-2.917
X6.0419Y-6.1901
X6.1846Y-5.4559
X6.3273Y-4.7216
X6.4701Y-3.9873
X6.6128Y-3.253
X6.7371Y-6.5338
X6.8813Y-5.7918
X7.0241Y-5.0575
X7.1668Y-4.3232
X7.3095Y-3.589
X7.5154Y-6.4555
X7.6583Y-5.7202
X9.1359Y-5.7237
X9.2781Y-6.4551
X9.5233Y-3.631
X9.667Y-4.3651
X9.8068Y-5.1
X9.9478Y-5.8356
X10.0888Y-6.5712
X10.2218Y-3.2937
X10.3659Y-4.0247
X10.5059Y-4.7605
X10.6496Y-5.4996
X10.7935Y-6.2297
X10.921Y-2.9603
X11.0662Y-3.6971
X11.2045Y-4.4342
X11.3518Y-5.1867
X11.5003Y-5.9509
X11.6899Y-3.0113
X11.8406Y-3.7501
X11.979Y-4.4983
X12.1133Y-5.2201
X12.2744Y-5.9509
X12.4654Y-3.0651
X12.6082Y-3.7994
X12.7544Y-4.536
X12.9Y-5.2698
X13.0398Y-6.0046
X13.2046Y-2.9215
X13.3467Y-3.6579
X13.4887Y-4.3782
X13.635Y-5.1309
X13.7764Y-5.8584
T0
M30
