M48
; DRILL file {KiCad (5.1.7-0-10_14)} date Sunday, November 13, 2022 at 08:20:44 PM
; FORMAT={-:-/ absolute / inch / decimal}
; #@! TF.CreationDate,2022-11-13T20:20:44-08:00
; #@! TF.GenerationSoftware,Kicad,Pcbnew,(5.1.7-0-10_14)
; #@! TF.FileFunction,Plated,1,2,PTH
FMAT,2
INCH
T1C0.0157
T2C0.0354
T3C0.0472
T4C0.0748
T5C0.1339
%
G90
G05
T1
X2.1535Y-2.1063
X2.6043Y-3.3937
X3.1004Y-1.6811
X3.2913Y-2.2008
X3.5669Y-2.6339
X4.0945Y-1.2283
X4.1102Y-1.1102
X4.4961Y-2.7677
X5.3031Y-3.3858
X5.5689Y-1.8484
X5.5866Y-2.6181
X5.5986Y-2.4726
X5.6299Y-2.7205
X5.6575Y-1.9567
X5.6693Y-3.3504
X5.7205Y-3.1772
X5.7559Y-3.9449
X5.7835Y-3.7205
X6.0598Y-2.8201
X6.1602Y-1.7571
X6.3291Y-1.624
T2
X2.5081Y-1.1991
X2.6081Y-1.1991
X2.7081Y-1.1991
X5.872Y-1.6154
X5.872Y-1.7154
X5.872Y-1.8154
X5.872Y-1.9154
X5.872Y-2.0154
X5.872Y-2.1154
X5.872Y-2.2154
X5.872Y-2.3154
X5.872Y-2.4154
X5.872Y-2.5154
X5.872Y-2.6154
X5.872Y-2.7154
X6.4823Y-1.6154
X6.4823Y-1.7154
X6.4823Y-1.8154
X6.4823Y-1.9154
X6.4823Y-2.0154
X6.4823Y-2.1154
X6.4823Y-2.2154
X6.4823Y-2.3154
X6.4823Y-2.4154
X6.4823Y-2.5154
X6.4823Y-2.6154
X6.4823Y-2.7154
T3
X2.3957Y-4.6102
X2.5906Y-4.5276
X2.7854Y-4.6102
X3.813Y-3.4685
X4.0079Y-3.3858
X4.2028Y-3.4685
X3.813Y-2.7205
X4.0079Y-2.6378
X4.2028Y-2.7205
X4.5217Y-3.6654
X4.7165Y-3.5827
X4.9114Y-3.6654
X3.813Y-1.9724
X4.0079Y-1.8898
X4.2028Y-1.9724
X5.2303Y-3.1142
X5.4252Y-3.0315
X5.6201Y-3.1142
X4.5217Y-2.9173
X4.7165Y-2.8346
X4.9114Y-2.9173
X3.813Y-1.2244
X4.0079Y-1.1417
X4.2028Y-1.2244
X5.2303Y-2.3661
X5.4252Y-2.2835
X5.6201Y-2.3661
X2.3957Y-3.8622
X2.5906Y-3.7795
X2.7854Y-3.8622
X3.1043Y-4.4134
X3.2992Y-4.3307
X3.4941Y-4.4134
X5.2303Y-1.6181
X5.4252Y-1.5354
X5.6201Y-1.6181
X2.3957Y-3.1142
X2.5906Y-3.0315
X2.7854Y-3.1142
X2.3957Y-2.3661
X2.5906Y-2.2835
X2.7854Y-2.3661
X3.1043Y-2.9173
X3.2992Y-2.8346
X3.4941Y-2.9173
X2.3957Y-1.6181
X2.5906Y-1.5354
X2.7854Y-1.6181
X3.1043Y-2.1693
X3.2992Y-2.0866
X3.4941Y-2.1693
X5.9783Y-4.6102
X6.1732Y-4.5276
X6.3681Y-4.6102
X3.1043Y-3.6654
X3.2992Y-3.5827
X3.4941Y-3.6654
X4.5217Y-4.4134
X4.7165Y-4.3307
X4.9114Y-4.4134
X5.9783Y-3.8622
X6.1732Y-3.7795
X6.3681Y-3.8622
X4.5217Y-2.1693
X4.7165Y-2.0866
X4.9114Y-2.1693
X1.687Y-4.6102
X1.8819Y-4.5276
X2.0768Y-4.6102
X4.5217Y-1.4213
X4.7165Y-1.3386
X4.9114Y-1.4213
X1.687Y-3.8622
X1.8819Y-3.7795
X2.0768Y-3.8622
X3.813Y-4.2165
X4.0079Y-4.1339
X4.2028Y-4.2165
X1.687Y-2.3661
X1.8819Y-2.2835
X2.0768Y-2.3661
X1.687Y-3.1142
X1.8819Y-3.0315
X2.0768Y-3.1142
X5.2303Y-4.6102
X5.4252Y-4.5276
X5.6201Y-4.6102
X1.687Y-1.6181
X1.8819Y-1.5354
X2.0768Y-1.6181
X5.2303Y-3.8622
X5.4252Y-3.7795
X5.6201Y-3.8622
X3.1043Y-1.4213
X3.2992Y-1.3386
X3.4941Y-1.4213
T4
X1.6654Y-1.7677
X2.0984Y-1.7677
X5.2087Y-4.0118
X5.6417Y-4.0118
X3.0827Y-1.5709
X3.5157Y-1.5709
X2.374Y-4.7598
X2.8071Y-4.7598
X3.7913Y-3.6181
X4.2244Y-3.6181
X3.7913Y-2.8701
X4.2244Y-2.8701
X4.5Y-3.815
X4.9331Y-3.815
X3.7913Y-2.122
X4.2244Y-2.122
X5.2087Y-3.2638
X5.6417Y-3.2638
X4.5Y-3.0669
X4.9331Y-3.0669
X3.7913Y-1.374
X4.2244Y-1.374
X5.2087Y-2.5157
X5.6417Y-2.5157
X2.374Y-4.0118
X2.8071Y-4.0118
X3.0827Y-4.563
X3.5157Y-4.563
X5.2087Y-1.7677
X5.6417Y-1.7677
X2.374Y-3.2638
X2.8071Y-3.2638
X2.374Y-2.5157
X2.8071Y-2.5157
X3.0827Y-3.0669
X3.5157Y-3.0669
X2.374Y-1.7677
X2.8071Y-1.7677
X3.0827Y-2.3189
X3.5157Y-2.3189
X5.9567Y-4.7598
X6.3898Y-4.7598
X3.0827Y-3.815
X3.5157Y-3.815
X4.5Y-4.563
X4.9331Y-4.563
X5.9567Y-4.0118
X6.3898Y-4.0118
X4.5Y-2.3189
X4.9331Y-2.3189
X1.6654Y-4.7598
X2.0984Y-4.7598
X4.5Y-1.5709
X4.9331Y-1.5709
X1.6654Y-4.0118
X2.0984Y-4.0118
X3.7913Y-4.3661
X4.2244Y-4.3661
X1.6654Y-2.5157
X2.0984Y-2.5157
X1.6654Y-3.2638
X2.0984Y-3.2638
X5.2087Y-4.7598
X5.6417Y-4.7598
T5
X1.8819Y-4.0118
X4.0079Y-4.3661
X1.8819Y-2.5157
X1.8819Y-3.2638
X5.4252Y-4.7598
X1.8819Y-1.7677
X5.4252Y-4.0118
X3.2992Y-1.5709
X2.5906Y-4.7598
X4.0079Y-3.6181
X4.0079Y-2.8701
X4.7165Y-3.815
X4.0079Y-2.122
X5.4252Y-3.2638
X4.7165Y-3.0669
X4.0079Y-1.374
X5.4252Y-2.5157
X2.5906Y-4.0118
X3.2992Y-4.563
X5.4252Y-1.7677
X2.5906Y-3.2638
X2.5906Y-2.5157
X3.2992Y-3.0669
X2.5906Y-1.7677
X3.2992Y-2.3189
X6.1732Y-4.7598
X3.2992Y-3.815
X4.7165Y-4.563
X6.1732Y-4.0118
X4.7165Y-2.3189
X1.8819Y-4.7598
X4.7165Y-1.5709
T0
M30
