%TF.GenerationSoftware,KiCad,Pcbnew,(5.1.7-0-10_14)*%
%TF.CreationDate,2022-11-13T20:21:01-08:00*%
%TF.ProjectId,swing-atreus-r,7377696e-672d-4617-9472-6575732d722e,rev?*%
%TF.SameCoordinates,Original*%
%TF.FileFunction,Paste,Top*%
%TF.FilePolarity,Positive*%
%FSLAX46Y46*%
G04 Gerber Fmt 4.6, Leading zero omitted, Abs format (unit mm)*
G04 Created by KiCad (PCBNEW (5.1.7-0-10_14)) date 2022-11-13 20:21:01*
%MOMM*%
%LPD*%
G01*
G04 APERTURE LIST*
%ADD10R,0.900000X1.200000*%
G04 APERTURE END LIST*
D10*
%TO.C,D1*%
X50800000Y-35400000D03*
X47500000Y-35400000D03*
%TD*%
%TO.C,D2*%
X50450000Y-54900000D03*
X47150000Y-54900000D03*
%TD*%
%TO.C,D3*%
X50450000Y-73900000D03*
X47150000Y-73900000D03*
%TD*%
%TO.C,D4*%
X47150000Y-92400000D03*
X50450000Y-92400000D03*
%TD*%
%TO.C,D5*%
X46650000Y-111400000D03*
X49950000Y-111400000D03*
%TD*%
%TO.C,D6*%
X68450000Y-35900000D03*
X65150000Y-35900000D03*
%TD*%
%TO.C,D7*%
X67950000Y-54800000D03*
X64650000Y-54800000D03*
%TD*%
%TO.C,D8*%
X67950000Y-73900000D03*
X64650000Y-73900000D03*
%TD*%
%TO.C,D9*%
X64650000Y-92900000D03*
X67950000Y-92900000D03*
%TD*%
%TO.C,D10*%
X65150000Y-111400000D03*
X68450000Y-111400000D03*
%TD*%
%TO.C,D11*%
X85950000Y-30900000D03*
X82650000Y-30900000D03*
%TD*%
%TO.C,D12*%
X86450000Y-49400000D03*
X83150000Y-49400000D03*
%TD*%
%TO.C,D13*%
X85950000Y-68400000D03*
X82650000Y-68400000D03*
%TD*%
%TO.C,D14*%
X82650000Y-87900000D03*
X85950000Y-87900000D03*
%TD*%
%TO.C,D15*%
X82150000Y-106900000D03*
X85450000Y-106900000D03*
%TD*%
%TO.C,D16*%
X103950000Y-25900000D03*
X100650000Y-25900000D03*
%TD*%
%TO.C,D17*%
X103950000Y-44900000D03*
X100650000Y-44900000D03*
%TD*%
%TO.C,D18*%
X100650000Y-63900000D03*
X103950000Y-63900000D03*
%TD*%
%TO.C,D19*%
X101300000Y-82900000D03*
X104600000Y-82900000D03*
%TD*%
%TO.C,D20*%
X100650000Y-101900000D03*
X103950000Y-101900000D03*
%TD*%
%TO.C,D21*%
X121950000Y-30900000D03*
X118650000Y-30900000D03*
%TD*%
%TO.C,D22*%
X122100000Y-49900000D03*
X118800000Y-49900000D03*
%TD*%
%TO.C,D23*%
X121950000Y-68900000D03*
X118650000Y-68900000D03*
%TD*%
%TO.C,D24*%
X118650000Y-87700000D03*
X121950000Y-87700000D03*
%TD*%
%TO.C,D25*%
X118650000Y-106900000D03*
X121950000Y-106900000D03*
%TD*%
%TO.C,D26*%
X139950000Y-35900000D03*
X136650000Y-35900000D03*
%TD*%
%TO.C,D27*%
X139450000Y-54400000D03*
X136150000Y-54400000D03*
%TD*%
%TO.C,D28*%
X136650000Y-73400000D03*
X139950000Y-73400000D03*
%TD*%
%TO.C,D29*%
X136650000Y-92900000D03*
X139950000Y-92900000D03*
%TD*%
%TO.C,D30*%
X136150000Y-111650000D03*
X139450000Y-111650000D03*
%TD*%
%TO.C,D31*%
X155650000Y-92650000D03*
X158950000Y-92650000D03*
%TD*%
%TO.C,D32*%
X155900000Y-111650000D03*
X159200000Y-111650000D03*
%TD*%
%TO.C,J1*%
G36*
G01*
X159450000Y-75250000D02*
X156550000Y-75250000D01*
G75*
G02*
X156300000Y-75000000I0J250000D01*
G01*
X156300000Y-74000000D01*
G75*
G02*
X156550000Y-73750000I250000J0D01*
G01*
X159450000Y-73750000D01*
G75*
G02*
X159700000Y-74000000I0J-250000D01*
G01*
X159700000Y-75000000D01*
G75*
G02*
X159450000Y-75250000I-250000J0D01*
G01*
G37*
G36*
G01*
X159450000Y-81950000D02*
X156550000Y-81950000D01*
G75*
G02*
X156300000Y-81700000I0J250000D01*
G01*
X156300000Y-80700000D01*
G75*
G02*
X156550000Y-80450000I250000J0D01*
G01*
X159450000Y-80450000D01*
G75*
G02*
X159700000Y-80700000I0J-250000D01*
G01*
X159700000Y-81700000D01*
G75*
G02*
X159450000Y-81950000I-250000J0D01*
G01*
G37*
G36*
G01*
X153750000Y-77350000D02*
X150750000Y-77350000D01*
G75*
G02*
X150500000Y-77100000I0J250000D01*
G01*
X150500000Y-76600000D01*
G75*
G02*
X150750000Y-76350000I250000J0D01*
G01*
X153750000Y-76350000D01*
G75*
G02*
X154000000Y-76600000I0J-250000D01*
G01*
X154000000Y-77100000D01*
G75*
G02*
X153750000Y-77350000I-250000J0D01*
G01*
G37*
G36*
G01*
X153750000Y-79350000D02*
X150750000Y-79350000D01*
G75*
G02*
X150500000Y-79100000I0J250000D01*
G01*
X150500000Y-78600000D01*
G75*
G02*
X150750000Y-78350000I250000J0D01*
G01*
X153750000Y-78350000D01*
G75*
G02*
X154000000Y-78600000I0J-250000D01*
G01*
X154000000Y-79100000D01*
G75*
G02*
X153750000Y-79350000I-250000J0D01*
G01*
G37*
%TD*%
M02*
