%TF.GenerationSoftware,KiCad,Pcbnew,(5.1.7-0-10_14)*%
%TF.CreationDate,2022-11-13T20:21:01-08:00*%
%TF.ProjectId,swing-atreus-r,7377696e-672d-4617-9472-6575732d722e,rev?*%
%TF.SameCoordinates,Original*%
%TF.FileFunction,Soldermask,Bot*%
%TF.FilePolarity,Negative*%
%FSLAX46Y46*%
G04 Gerber Fmt 4.6, Leading zero omitted, Abs format (unit mm)*
G04 Created by KiCad (PCBNEW (5.1.7-0-10_14)) date 2022-11-13 20:21:01*
%MOMM*%
%LPD*%
G01*
G04 APERTURE LIST*
%ADD10R,1.000000X1.500000*%
%ADD11C,2.500000*%
%ADD12O,2.000000X1.500000*%
%ADD13C,2.000000*%
%ADD14C,1.900000*%
%ADD15C,3.400000*%
%ADD16C,1.524000*%
G04 APERTURE END LIST*
D10*
%TO.C,REF\u002A\u002A*%
X155280000Y-41950000D03*
X156580000Y-41950000D03*
X157880000Y-41950000D03*
%TD*%
%TO.C,REF\u002A\u002A*%
X155200000Y-47370000D03*
X156500000Y-47370000D03*
X157800000Y-47370000D03*
%TD*%
D11*
%TO.C,REF\u002A\u002A*%
X110550000Y-64000000D03*
%TD*%
%TO.C,REF\u002A\u002A*%
X56800000Y-73250000D03*
%TD*%
%TO.C,REF\u002A\u002A*%
X93150000Y-82900000D03*
%TD*%
%TO.C,REF\u002A\u002A*%
X40700000Y-128250000D03*
%TD*%
%TO.C,REF\u002A\u002A*%
X108250000Y-124900000D03*
%TD*%
%TO.C,REF\u002A\u002A*%
X164650000Y-128050000D03*
%TD*%
%TO.C,REF\u002A\u002A*%
X149350000Y-89550000D03*
%TD*%
%TO.C,REF\u002A\u002A*%
X129650000Y-34750000D03*
%TD*%
%TO.C,REF\u002A\u002A*%
X83350000Y-25350000D03*
%TD*%
%TO.C,REF\u002A\u002A*%
X41550000Y-31100000D03*
%TD*%
%TO.C,REF\u002A\u002A*%
X47500000Y-25000000D03*
%TD*%
D12*
%TO.C,U1*%
X164650000Y-41030000D03*
X149150000Y-41030000D03*
X164650000Y-43570000D03*
X149150000Y-43570000D03*
X164650000Y-46110000D03*
X149150000Y-46110000D03*
X164650000Y-48650000D03*
X149150000Y-48650000D03*
X164650000Y-51190000D03*
X149150000Y-51190000D03*
X164650000Y-53730000D03*
X149150000Y-53730000D03*
X164650000Y-56270000D03*
X149150000Y-56270000D03*
X164650000Y-58810000D03*
X149150000Y-58810000D03*
X164650000Y-61350000D03*
X149150000Y-61350000D03*
X164650000Y-63890000D03*
X149150000Y-63890000D03*
X164650000Y-66430000D03*
X149150000Y-66430000D03*
X164650000Y-68970000D03*
X149150000Y-68970000D03*
%TD*%
D13*
%TO.C,SW4*%
X42850000Y-60100000D03*
X52750000Y-60100000D03*
X47800000Y-58000000D03*
D14*
X42300000Y-63900000D03*
X53300000Y-63900000D03*
D15*
X47800000Y-63900000D03*
%TD*%
D16*
%TO.C,SW1*%
X68786000Y-30456000D03*
X66246000Y-30456000D03*
X63706000Y-30456000D03*
%TD*%
D15*
%TO.C,SW3*%
X47800000Y-44900000D03*
D14*
X53300000Y-44900000D03*
X42300000Y-44900000D03*
D13*
X47800000Y-39000000D03*
X52750000Y-41100000D03*
X42850000Y-41100000D03*
%TD*%
%TO.C,SW5*%
X42850000Y-79100000D03*
X52750000Y-79100000D03*
X47800000Y-77000000D03*
D14*
X42300000Y-82900000D03*
X53300000Y-82900000D03*
D15*
X47800000Y-82900000D03*
%TD*%
%TO.C,SW6*%
X47800000Y-101900000D03*
D14*
X53300000Y-101900000D03*
X42300000Y-101900000D03*
D13*
X47800000Y-96000000D03*
X52750000Y-98100000D03*
X42850000Y-98100000D03*
%TD*%
D15*
%TO.C,SW7*%
X47800000Y-120900000D03*
D14*
X53300000Y-120900000D03*
X42300000Y-120900000D03*
D13*
X47800000Y-115000000D03*
X52750000Y-117100000D03*
X42850000Y-117100000D03*
%TD*%
%TO.C,SW8*%
X60850000Y-41100000D03*
X70750000Y-41100000D03*
X65800000Y-39000000D03*
D14*
X60300000Y-44900000D03*
X71300000Y-44900000D03*
D15*
X65800000Y-44900000D03*
%TD*%
D13*
%TO.C,SW9*%
X60850000Y-60100000D03*
X70750000Y-60100000D03*
X65800000Y-58000000D03*
D14*
X60300000Y-63900000D03*
X71300000Y-63900000D03*
D15*
X65800000Y-63900000D03*
%TD*%
D13*
%TO.C,SW10*%
X60850000Y-79100000D03*
X70750000Y-79100000D03*
X65800000Y-77000000D03*
D14*
X60300000Y-82900000D03*
X71300000Y-82900000D03*
D15*
X65800000Y-82900000D03*
%TD*%
%TO.C,SW11*%
X65800000Y-101900000D03*
D14*
X71300000Y-101900000D03*
X60300000Y-101900000D03*
D13*
X65800000Y-96000000D03*
X70750000Y-98100000D03*
X60850000Y-98100000D03*
%TD*%
D15*
%TO.C,SW12*%
X65800000Y-120900000D03*
D14*
X71300000Y-120900000D03*
X60300000Y-120900000D03*
D13*
X65800000Y-115000000D03*
X70750000Y-117100000D03*
X60850000Y-117100000D03*
%TD*%
%TO.C,SW13*%
X78850000Y-36100000D03*
X88750000Y-36100000D03*
X83800000Y-34000000D03*
D14*
X78300000Y-39900000D03*
X89300000Y-39900000D03*
D15*
X83800000Y-39900000D03*
%TD*%
D13*
%TO.C,SW14*%
X78850000Y-55100000D03*
X88750000Y-55100000D03*
X83800000Y-53000000D03*
D14*
X78300000Y-58900000D03*
X89300000Y-58900000D03*
D15*
X83800000Y-58900000D03*
%TD*%
D13*
%TO.C,SW15*%
X78850000Y-74100000D03*
X88750000Y-74100000D03*
X83800000Y-72000000D03*
D14*
X78300000Y-77900000D03*
X89300000Y-77900000D03*
D15*
X83800000Y-77900000D03*
%TD*%
%TO.C,SW16*%
X83800000Y-96900000D03*
D14*
X89300000Y-96900000D03*
X78300000Y-96900000D03*
D13*
X83800000Y-91000000D03*
X88750000Y-93100000D03*
X78850000Y-93100000D03*
%TD*%
D15*
%TO.C,SW17*%
X83800000Y-115900000D03*
D14*
X89300000Y-115900000D03*
X78300000Y-115900000D03*
D13*
X83800000Y-110000000D03*
X88750000Y-112100000D03*
X78850000Y-112100000D03*
%TD*%
%TO.C,SW18*%
X96850000Y-31100000D03*
X106750000Y-31100000D03*
X101800000Y-29000000D03*
D14*
X96300000Y-34900000D03*
X107300000Y-34900000D03*
D15*
X101800000Y-34900000D03*
%TD*%
D13*
%TO.C,SW19*%
X96850000Y-50100000D03*
X106750000Y-50100000D03*
X101800000Y-48000000D03*
D14*
X96300000Y-53900000D03*
X107300000Y-53900000D03*
D15*
X101800000Y-53900000D03*
%TD*%
D13*
%TO.C,SW20*%
X96850000Y-69100000D03*
X106750000Y-69100000D03*
X101800000Y-67000000D03*
D14*
X96300000Y-72900000D03*
X107300000Y-72900000D03*
D15*
X101800000Y-72900000D03*
%TD*%
%TO.C,SW21*%
X101800000Y-91900000D03*
D14*
X107300000Y-91900000D03*
X96300000Y-91900000D03*
D13*
X101800000Y-86000000D03*
X106750000Y-88100000D03*
X96850000Y-88100000D03*
%TD*%
D15*
%TO.C,SW22*%
X101800000Y-110900000D03*
D14*
X107300000Y-110900000D03*
X96300000Y-110900000D03*
D13*
X101800000Y-105000000D03*
X106750000Y-107100000D03*
X96850000Y-107100000D03*
%TD*%
%TO.C,SW23*%
X114850000Y-36100000D03*
X124750000Y-36100000D03*
X119800000Y-34000000D03*
D14*
X114300000Y-39900000D03*
X125300000Y-39900000D03*
D15*
X119800000Y-39900000D03*
%TD*%
D13*
%TO.C,SW24*%
X114850000Y-55100000D03*
X124750000Y-55100000D03*
X119800000Y-53000000D03*
D14*
X114300000Y-58900000D03*
X125300000Y-58900000D03*
D15*
X119800000Y-58900000D03*
%TD*%
D13*
%TO.C,SW25*%
X114850000Y-74100000D03*
X124750000Y-74100000D03*
X119800000Y-72000000D03*
D14*
X114300000Y-77900000D03*
X125300000Y-77900000D03*
D15*
X119800000Y-77900000D03*
%TD*%
%TO.C,SW26*%
X119800000Y-96900000D03*
D14*
X125300000Y-96900000D03*
X114300000Y-96900000D03*
D13*
X119800000Y-91000000D03*
X124750000Y-93100000D03*
X114850000Y-93100000D03*
%TD*%
D15*
%TO.C,SW27*%
X119800000Y-115900000D03*
D14*
X125300000Y-115900000D03*
X114300000Y-115900000D03*
D13*
X119800000Y-110000000D03*
X124750000Y-112100000D03*
X114850000Y-112100000D03*
%TD*%
%TO.C,SW28*%
X132850000Y-41100000D03*
X142750000Y-41100000D03*
X137800000Y-39000000D03*
D14*
X132300000Y-44900000D03*
X143300000Y-44900000D03*
D15*
X137800000Y-44900000D03*
%TD*%
D13*
%TO.C,SW29*%
X132850000Y-60100000D03*
X142750000Y-60100000D03*
X137800000Y-58000000D03*
D14*
X132300000Y-63900000D03*
X143300000Y-63900000D03*
D15*
X137800000Y-63900000D03*
%TD*%
%TO.C,SW30*%
X137800000Y-82900000D03*
D14*
X143300000Y-82900000D03*
X132300000Y-82900000D03*
D13*
X137800000Y-77000000D03*
X142750000Y-79100000D03*
X132850000Y-79100000D03*
%TD*%
D15*
%TO.C,SW31*%
X137800000Y-101900000D03*
D14*
X143300000Y-101900000D03*
X132300000Y-101900000D03*
D13*
X137800000Y-96000000D03*
X142750000Y-98100000D03*
X132850000Y-98100000D03*
%TD*%
D15*
%TO.C,SW32*%
X137800000Y-120900000D03*
D14*
X143300000Y-120900000D03*
X132300000Y-120900000D03*
D13*
X137800000Y-115000000D03*
X142750000Y-117100000D03*
X132850000Y-117100000D03*
%TD*%
D15*
%TO.C,SW33*%
X156800000Y-101900000D03*
D14*
X162300000Y-101900000D03*
X151300000Y-101900000D03*
D13*
X156800000Y-96000000D03*
X161750000Y-98100000D03*
X151850000Y-98100000D03*
%TD*%
D15*
%TO.C,SW34*%
X156800000Y-120900000D03*
D14*
X162300000Y-120900000D03*
X151300000Y-120900000D03*
D13*
X156800000Y-115000000D03*
X161750000Y-117100000D03*
X151850000Y-117100000D03*
%TD*%
M02*
