M48
; DRILL file {KiCad 7.0.1-0} date 2024 April 27, Saturday 23:40:27
; FORMAT={-:-/ absolute / inch / decimal}
; #@! TF.CreationDate,2024-04-27T23:40:27-07:00
; #@! TF.GenerationSoftware,Kicad,Pcbnew,7.0.1-0
; #@! TF.FileFunction,Plated,1,2,PTH
FMAT,2
INCH
; #@! TA.AperFunction,Plated,PTH,ViaDrill
T1C0.0157
; #@! TA.AperFunction,Plated,PTH,ComponentDrill
T2C0.0354
; #@! TA.AperFunction,Plated,PTH,ComponentDrill
T3C0.0472
; #@! TA.AperFunction,Plated,PTH,ComponentDrill
T4C0.0630
%
G90
G05
T1
X8.3076Y-3.3322
X8.3573Y-2.7844
X8.377Y-3.5236
X8.4646Y-3.3689
X8.7539Y-3.812
X8.8937Y-3.4183
X8.9478Y-3.1417
X9.1294Y-4.9946
X9.1929Y-5.0276
X9.2313Y-5.2431
X10.0335Y-3.0906
X10.5138Y-2.8297
X11.3189Y-2.6575
X12.1407Y-2.56
X12.437Y-2.5689
T2
X8.1132Y-2.4378
X8.1132Y-2.5378
X8.1132Y-2.6378
X8.1132Y-2.7378
X8.1132Y-2.8378
X8.1132Y-2.9378
X8.1132Y-3.0378
X8.1132Y-3.1378
X8.1132Y-3.2378
X8.1132Y-3.3378
X8.1132Y-3.4378
X8.1132Y-3.5378
X8.7234Y-2.4378
X8.7234Y-2.5378
X8.7234Y-2.6378
X8.7234Y-2.7378
X8.7234Y-2.8378
X8.7234Y-2.9378
X8.7234Y-3.0378
X8.7234Y-3.1378
X8.7234Y-3.2378
X8.7234Y-3.3378
X8.7234Y-3.4378
X8.7234Y-3.5378
X9.1274Y-2.5828
X9.2274Y-2.5828
X9.3274Y-2.5828
T3
X2.9063Y-5.6288
X3.0491Y-4.8945
X3.1115Y-5.5844
X3.1918Y-4.1602
X3.2542Y-4.8501
X3.289Y-5.7032
X3.3345Y-3.4259
X3.397Y-4.1159
X3.4317Y-4.9689
X3.4773Y-2.6916
X3.5397Y-3.3816
X3.5744Y-4.2346
X3.6406Y-5.7715
X3.6824Y-2.6473
X3.7171Y-3.5003
X3.7834Y-5.0372
X3.8458Y-5.7272
X3.8599Y-2.766
X3.9261Y-4.3029
X3.9885Y-4.9929
X4.0232Y-5.8459
X4.0688Y-3.5686
X4.1312Y-4.2586
X4.166Y-5.1116
X4.2116Y-2.8344
X4.274Y-3.5243
X4.3087Y-4.3773
X4.4125Y-5.721
X4.4167Y-2.79
X4.4514Y-3.643
X4.5552Y-4.9867
X4.5942Y-2.9087
X4.6176Y-5.6767
X4.6979Y-4.2524
X4.7604Y-4.9424
X4.7951Y-5.7954
X4.8407Y-3.5181
X4.9031Y-4.2081
X4.9378Y-5.0611
X4.9834Y-2.7839
X5.0458Y-3.4738
X5.0806Y-4.3268
X5.1843Y-5.6705
X5.1886Y-2.7395
X5.2233Y-3.5925
X5.3271Y-4.9362
X5.366Y-2.8582
X5.3895Y-5.6262
X5.4698Y-4.2019
X5.5322Y-4.8919
X5.5669Y-5.7449
X5.6125Y-3.4676
X5.6749Y-4.1576
X5.7097Y-5.0106
X5.7553Y-2.7334
X5.8177Y-3.4233
X5.8524Y-4.2763
X5.8811Y-6.0065
X5.9604Y-2.689
X5.9951Y-3.542
X6.0238Y-5.2722
X6.0862Y-5.9621
X6.1379Y-2.8077
X6.1665Y-4.5379
X6.2289Y-5.2278
X6.2637Y-6.0808
X6.3093Y-3.8036
X6.3717Y-4.4935
X6.4064Y-5.3466
X6.452Y-3.0693
X6.5144Y-3.7593
X6.5491Y-4.6123
X6.5763Y-6.3502
X6.6571Y-3.025
X6.6919Y-3.878
X6.7205Y-5.6081
X6.7814Y-6.3058
X6.8346Y-3.1437
X6.8633Y-4.8739
X6.9257Y-5.5638
X6.9589Y-6.4245
X7.006Y-4.1396
X7.0684Y-4.8295
X7.1031Y-5.6825
X7.1487Y-3.4053
X7.2111Y-4.0952
X7.2459Y-4.9482
X7.3539Y-3.3609
X7.3545Y-6.2718
X7.3886Y-4.2139
X7.4975Y-5.5366
X7.5313Y-3.4797
X7.5597Y-6.2275
X7.7026Y-5.4922
X7.7372Y-6.3462
X7.8801Y-5.6109
X8.918Y-5.6136
X9.0602Y-6.345
X9.0916Y-5.4957
X9.2338Y-6.227
X9.3006Y-5.5393
X9.3054Y-3.521
X9.4428Y-6.2706
X9.4491Y-4.2551
X9.479Y-3.403
X9.5889Y-4.9899
X9.6227Y-4.1371
X9.688Y-3.4466
X9.7299Y-5.7255
X9.7625Y-4.8719
X9.8317Y-4.1807
X9.8709Y-6.4612
X9.9035Y-5.6076
X9.9715Y-4.9155
X10.0038Y-3.1836
X10.0445Y-6.3432
X10.1125Y-5.6512
X10.1479Y-3.9147
X10.1774Y-3.0657
X10.2535Y-6.3868
X10.288Y-4.6505
X10.3215Y-3.7967
X10.3864Y-3.1093
X10.4316Y-5.3896
X10.4616Y-4.5325
X10.5305Y-3.8403
X10.5755Y-6.1196
X10.6052Y-5.2716
X10.6706Y-4.5761
X10.7031Y-2.8502
X10.7491Y-6.0017
X10.8142Y-5.3152
X10.8483Y-3.587
X10.8767Y-2.7322
X10.9582Y-6.0453
X10.9866Y-4.3242
X11.0219Y-3.469
X11.0857Y-2.7758
X11.1338Y-5.0766
X11.1602Y-4.2062
X11.2309Y-3.5126
X11.2824Y-5.8409
X11.3074Y-4.9587
X11.3692Y-4.2498
X11.456Y-5.7229
X11.472Y-2.9013
X11.5164Y-5.0023
X11.6226Y-3.64
X11.6456Y-2.7833
X11.665Y-5.7665
X11.761Y-4.3882
X11.7962Y-3.5221
X11.8546Y-2.8269
X11.8954Y-5.1101
X11.9346Y-4.2702
X12.0052Y-3.5657
X12.0564Y-5.8408
X12.0689Y-4.9921
X12.1437Y-4.3138
X12.23Y-5.7228
X12.2475Y-2.9551
X12.278Y-5.0357
X12.3902Y-3.6894
X12.4211Y-2.8371
X12.439Y-5.7664
X12.5364Y-4.426
X12.5638Y-3.5714
X12.6301Y-2.8807
X12.6821Y-5.1597
X12.71Y-4.308
X12.7729Y-3.615
X12.8219Y-5.8946
X12.8557Y-5.0417
X12.919Y-4.3516
X12.9866Y-2.8114
X12.9955Y-5.7766
X13.0647Y-5.0853
X13.1288Y-3.5478
X13.1602Y-2.6934
X13.2045Y-5.8202
X13.2708Y-4.2682
X13.3024Y-3.4298
X13.3692Y-2.737
X13.4171Y-5.0208
X13.4444Y-4.1502
X13.5114Y-3.4734
X13.5585Y-5.7484
X13.5907Y-4.9029
X13.6534Y-4.1938
X13.7321Y-5.6304
X13.7997Y-4.9465
X13.9411Y-5.674
T4
X2.8353Y-5.9739
X2.978Y-5.2396
X3.1207Y-4.5053
X3.2221Y-6.0471
X3.2634Y-3.7711
X3.3648Y-5.3128
X3.4062Y-3.0368
X3.5076Y-4.5785
X3.5695Y-6.1166
X3.6503Y-3.8442
X3.7123Y-5.3824
X3.793Y-3.11
X3.855Y-4.6481
X3.9564Y-6.1898
X3.9977Y-3.9138
X4.0991Y-5.4555
X4.1405Y-3.1795
X4.2418Y-4.7213
X4.3414Y-6.0661
X4.3846Y-3.987
X4.4841Y-5.3319
X4.5273Y-3.2527
X4.6269Y-4.5976
X4.7282Y-6.1393
X4.7696Y-3.8633
X4.871Y-5.405
X4.9123Y-3.129
X5.0137Y-4.6708
X5.1132Y-6.0156
X5.1564Y-3.9365
X5.256Y-5.2814
X5.2992Y-3.2022
X5.3987Y-4.5471
X5.5001Y-6.0888
X5.5414Y-3.8128
X5.6428Y-5.3545
X5.6842Y-3.0785
X5.7855Y-4.6203
X5.81Y-6.3516
X5.9283Y-3.886
X5.9527Y-5.6173
X6.071Y-3.1517
X6.0954Y-4.883
X6.1968Y-6.4248
X6.2382Y-4.1487
X6.3395Y-5.6905
X6.3809Y-3.4145
X6.4823Y-4.9562
X6.5052Y-6.6953
X6.625Y-4.2219
X6.6494Y-5.9533
X6.7677Y-3.4876
X6.7922Y-5.219
X6.892Y-6.7685
X6.9349Y-4.4847
X7.0363Y-6.0265
X7.0776Y-3.7504
X7.179Y-5.2922
X7.2835Y-6.617
X7.3217Y-4.5579
X7.4264Y-5.8817
X7.4645Y-3.8236
X7.6703Y-6.6902
X7.8132Y-5.9549
X8.9814Y-5.9603
X9.1236Y-6.6917
X9.3675Y-5.8832
X9.3687Y-3.8676
X9.5097Y-6.6146
X9.5124Y-4.6017
X9.6523Y-5.3365
X9.7548Y-3.7905
X9.7933Y-6.0722
X9.8985Y-4.5246
X9.9342Y-6.8078
X10.0384Y-5.2595
X10.0672Y-3.5303
X10.1794Y-5.9951
X10.2113Y-4.2613
X10.3203Y-6.7308
X10.3513Y-4.9971
X10.4533Y-3.4532
X10.495Y-5.7362
X10.5974Y-4.1842
X10.6389Y-6.4663
X10.7374Y-4.9201
X10.7664Y-3.1968
X10.8811Y-5.6592
X10.9117Y-3.9337
X11.025Y-6.3892
X11.0499Y-4.6708
X11.1525Y-3.1198
X11.1972Y-5.4233
X11.2978Y-3.8566
X11.3458Y-6.1875
X11.436Y-4.5938
X11.5354Y-3.2479
X11.5833Y-5.3462
X11.686Y-3.9867
X11.7319Y-6.1105
X11.8244Y-4.7348
X11.9215Y-3.1709
X11.9587Y-5.4567
X12.0721Y-3.9096
X12.1198Y-6.1875
X12.2105Y-4.6578
X12.3109Y-3.3017
X12.3448Y-5.3797
X12.4536Y-4.036
X12.5059Y-6.1104
X12.5998Y-4.7726
X12.697Y-3.2247
X12.7454Y-5.5064
X12.8397Y-3.9589
X12.8853Y-6.2412
X12.9859Y-4.6956
X13.05Y-3.158
X13.1315Y-5.4293
X13.1921Y-3.8945
X13.2714Y-6.1641
X13.3342Y-4.6148
X13.4361Y-3.081
X13.4805Y-5.3675
X13.5782Y-3.8174
X13.6219Y-6.095
X13.7203Y-4.5378
X13.8666Y-5.2904
X14.008Y-6.018
T0
M30
